<?xml version="1.0" standalone="no"?>
<!DOCTYPE svg PUBLIC "-//W3C//DTD SVG 1.1//EN" "http://www.w3.org/Graphics/SVG/1.1/DTD/svg11.dtd" >
<svg xmlns="http://www.w3.org/2000/svg" xmlns:xlink="http://www.w3.org/1999/xlink" version="1.1">
<metadata>
Created by FontForge 20170731 at Fri Aug 20 14:36:20 2021
 By Aleksey,,,
feetype
</metadata>
<defs>
<font id="HelloSummerRegular" horiz-adv-x="0" >
  <font-face 
    font-family="Hello Summer"
    font-weight="400"
    font-stretch="normal"
    units-per-em="1000"
    panose-1="0 0 0 0 0 0 0 0 0 0"
    ascent="800"
    descent="-200"
    x-height="431"
    cap-height="1346"
    bbox="-368.321 -460.4 1604.14 1372.5"
    underline-thickness="0"
    underline-position="0"
    unicode-range="U+000A-00AD"
  />
<missing-glyph horiz-adv-x="527" 
d="M50 700h427v-700h-427v700zM78 680l185 -309l186 309h-371zM251 350l-180 300v-601zM264 329l-185 -308h370zM276 350l181 -303v605z" />
    <glyph glyph-name=".notdef" horiz-adv-x="527" 
d="M50 700h427v-700h-427v700zM78 680l185 -309l186 309h-371zM251 350l-180 300v-601zM264 329l-185 -308h370zM276 350l181 -303v605z" />
    <glyph glyph-name=".null" 
 />
    <glyph glyph-name=".null" 
 />
    <glyph glyph-name="nonmarkingreturn" horiz-adv-x="333" 
 />
    <glyph glyph-name="controlLF" unicode="&#xa;" 
 />
    <glyph glyph-name="controlCR" unicode="&#xd;" 
 />
    <glyph glyph-name="space" unicode=" " horiz-adv-x="332" 
 />
    <glyph glyph-name="exclam" unicode="!" horiz-adv-x="355" 
d="M293 910.5q12 -3.5 11 -18.5q-3 -16 -4 -17q-38 -143 -115 -430q-33 -123 -54 -200q-3 -10 -4 -13q-6 -16 -20 -12q-13 4 -10 21q0 2 3 10q82 307 104 390q28 103 66 246q3 10 5 14q6 13 18 9.5zM102 198q10 -3 16.5 -12t6.5 -19q0 -9 -5.5 -19.5t-13.5 -18.5t-17 -10
q-11 -4 -22 0q-22 8 -16 29q6 23 18 39q14 18 33 11z" />
    <glyph glyph-name="quotedbl" unicode="&#x22;" horiz-adv-x="351" 
d="M185 878v-5q-10 -80 -67 -112q-25 -15 -37 -18q-7 -1 -13 0.5t-10.5 6t-6.5 11.5q-3 8 2 14.5t13 3.5q14 -4 33 7t27 21q5 7 -3 10h-1.5t-1.5 1q-30 10 -29 42q1 19 14.5 34.5t32.5 18.5q10 1 19 -4q2 0 6.5 -3t6.5 -4q14 -6 15 -24zM288 891q15 -12 12 -29
q-7 -50 -17 -69q-8 -16 -19 -27q-18 -18 -47 -36q-4 -2 -9 -4q-9 -3 -17 2.5t-9 15.5q-1 6 2.5 10.5t10.5 4.5q11 1 23 10q2 2 6.5 5t7 5t6 5t6 6.5t4.5 7.5q-1 1 -11 6q-25 11 -22 37q3 28 21 51q17 22 41 7q8 -5 11 -8z" />
    <glyph glyph-name="quotedbl" unicode="&#x201d;" horiz-adv-x="351" 
d="M185 878v-5q-10 -80 -67 -112q-25 -15 -37 -18q-7 -1 -13 0.5t-10.5 6t-6.5 11.5q-3 8 2 14.5t13 3.5q14 -4 33 7t27 21q5 7 -3 10h-1.5t-1.5 1q-30 10 -29 42q1 19 14.5 34.5t32.5 18.5q10 1 19 -4q2 0 6.5 -3t6.5 -4q14 -6 15 -24zM288 891q15 -12 12 -29
q-7 -50 -17 -69q-8 -16 -19 -27q-18 -18 -47 -36q-4 -2 -9 -4q-9 -3 -17 2.5t-9 15.5q-1 6 2.5 10.5t10.5 4.5q11 1 23 10q2 2 6.5 5t7 5t6 5t6 6.5t4.5 7.5q-1 1 -11 6q-25 11 -22 37q3 28 21 51q17 22 41 7q8 -5 11 -8z" />
    <glyph glyph-name="quotedbl" unicode="&#x201c;" horiz-adv-x="351" 
d="M185 878v-5q-10 -80 -67 -112q-25 -15 -37 -18q-7 -1 -13 0.5t-10.5 6t-6.5 11.5q-3 8 2 14.5t13 3.5q14 -4 33 7t27 21q5 7 -3 10h-1.5t-1.5 1q-30 10 -29 42q1 19 14.5 34.5t32.5 18.5q10 1 19 -4q2 0 6.5 -3t6.5 -4q14 -6 15 -24zM288 891q15 -12 12 -29
q-7 -50 -17 -69q-8 -16 -19 -27q-18 -18 -47 -36q-4 -2 -9 -4q-9 -3 -17 2.5t-9 15.5q-1 6 2.5 10.5t10.5 4.5q11 1 23 10q2 2 6.5 5t7 5t6 5t6 6.5t4.5 7.5q-1 1 -11 6q-25 11 -22 37q3 28 21 51q17 22 41 7q8 -5 11 -8z" />
    <glyph glyph-name="numbersign" unicode="#" horiz-adv-x="871" 
d="M810 501q11 -4 10 -14q0 -11 -12 -14q-4 -1 -9 -1q-44 1 -52 3h-8q-71 4 -93 5q-33 1 -41 3q-15 2 -22 -12q-2 -4 -37 -78q-44 -93 -62 -132q-4 -9 -11 -25q-2 -7 5 -7q5 -1 13 -1q94 -1 97 -1q6 0 33 -1.5t41 -1.5q5 0 9 -1q11 -3 12 -14q0 -11 -12 -15q-4 -1 -9 -1
q-74 1 -80 2t-19 1h-80h-21q-8 0 -12 -7q0 -1 -1 -2.5t-1.5 -3.5t-1.5 -3q-77 -163 -87 -183q-2 -6 -5.5 -13.5t-7 -14.5l-6.5 -13q-3 -8 -8 -12q-6 -8 -17 -4q-11 6 -8 17q1 6 5 14q15 31 63 133q32 68 35 74.5t4 10.5q2 6 -4 7q-25 3 -33 3q-64 1 -140 1q-10 1 -34 2.5
t-37 0.5q-16 0 -20 -2.5t-11 -16.5q-14 -31 -79 -173q-3 -5 -7 -14.5t-7.5 -17t-6.5 -14.5q-4 -7 -8 -12q-8 -8 -18 -3q-11 5 -8 17q1 5 5 14q7 13 36 78q51 111 58 127q6 12 4.5 15t-15.5 3h-18.5h-24.5q-72 4 -95 3q-4 0 -7 1q-11 3 -12 13t9 15q5 3 14 3h39q96 -3 105 -3
q19 -1 23 1.5t12 19.5q41 89 105 229q2 5 4 11q0 3 -3 4t-6 1q-34 3 -41 3q-16 1 -48 2.5t-48 2.5q-9 0 -45 3q-4 0 -7 1q-11 4 -11 14q-1 10 10 15q7 3 16 1q17 -2 47.5 -3t43.5 -2q21 -3 86 -5q18 -1 22 1.5t12 20.5q14 29 73 158q16 36 30 66q5 9 8 13q8 11 20 4
q10 -6 6 -18q-2 -6 -6 -17q-30 -65 -70 -151q-5 -10 -15 -31.5t-15 -32.5q-2 -6 -4 -10q-1 -4 4 -6q1 0 4 -1q41 -2 65 -3q69 -4 119 -7q5 -1 17 -1q38 -1 50 -3t16 9q6 12 12 25q27 58 71 150q28 58 39 83q5 9 8 13q7 10 18 4q11 -5 9 -17q-1 -4 -5 -12q-8 -19 -19 -41.5
t-19 -40t-19.5 -41.5t-19.5 -40q-7 -15 -36 -76q-2 -6 -3 -7q-3 -9 6 -11q13 -2 24 -2q67 -3 124 -7q5 -1 10 -1h11h9q12 -1 17 -3zM548 470q6 13 -9 16q-3 1 -5 1q-18 0 -78 4q-16 1 -34 1.5t-39 1.5t-33 2q-3 0 -7 0.5t-6 0.5q-17 1 -47 2q-9 0 -14 -9q-1 -4 -3 -6
q-51 -112 -82 -178q-19 -42 -23 -51q-3 -6 -5 -14q0 -3 3 -4q4 -2 9 -2q75 -2 103 -3h54v-2h80q9 1 12.5 -0.5t7 1.5t5 5.5t6.5 11.5q11 25 71 152q29 60 34 70z" />
    <glyph glyph-name="dollar" unicode="$" horiz-adv-x="558" 
d="M472 777q50 -50 29 -115q-22 -67 -75 -114q-7 -7 -15 -11q-9 -5 -17 3q-7 8 0 17q2 3 7 7q38 36 62 88q4 9 8 23q13 43 -20 78q-20 21 -52 29q-9 2 -12 -6l-3 -12q-76 -310 -91 -372q-5 -19 5 -37q35 -67 59 -133q23 -64 28 -114q5 -45 -2 -79q-14 -68 -75 -99
q-41 -21 -81 -19q-14 -1 -35 3q-9 1 -12 -1t-6 -11q-1 -6 -4 -17.5t-4 -16.5q-3 -10 -6 -16q-5 -8 -15 -7t-12 12q-2 6 0 15q9 34 10 38q2 12 0.5 14.5t-12.5 7.5q-31 12 -53 28q-36 25 -56 63q-8 15 -14 29.5t-9 29.5q-2 5 -15 64q-3 12 -2 26q1 6 3 11q4 9 13 8q8 0 12 -8
q3 -7 3 -14q4 -26 15 -73q4 -18 14 -41q26 -65 100 -93q12 -5 15 7.5t22 90.5q50 205 71 290q0 1 0.5 3.5t1.5 3.5q4 11 -3 23q-2 3 -8 15q-40 79 -55 115q-22 51 -26 83q-13 84 35 146q13 17 35 33q55 37 116 44q4 1 7 1q12 3 14 14q0 1 6 25q2 9 6 13q7 9 17 5q8 -3 9 -13
q1 -5 -2 -18q-5 -22 -3 -25t20 -9q31 -11 52 -32zM296 286q-4 9 -15 30q-1 2 -3 2t-2 -2q-3 -9 -5 -16q-13 -51 -70 -288q-12 -49 -13 -53q-2 -7 -0.5 -9.5t8.5 -3.5q53 -12 101 14q43 23 54 73q5 24 4 40q-2 42 -9 74q-15 60 -50 139zM350 763q5 14 2.5 18.5t-19.5 0.5
q-39 -8 -78 -32q-39 -23 -55 -66q-12 -31 -11 -57q-1 -27 10 -61q15 -47 60 -135l1 -1q3 -5 5 -5q3 0 5 7q1 6 3 14q4 15 9.5 37.5t10 42t8.5 36.5q2 8 21 84.5t28 116.5z" />
    <glyph glyph-name="percent" unicode="%" horiz-adv-x="641" 
d="M569 774q15 -1 19.5 -11.5t-3.5 -22.5q-3 -5 -12 -14q-9 -10 -36.5 -38t-42.5 -44q-90 -94 -174 -204q-63 -83 -157 -217q-19 -27 -58.5 -82.5t-59.5 -83.5q-6 -10 -23 -36q-1 -1 -1 -3t1 -2q2 -2 5 -1q9 4 17 9q34 19 71 47q105 81 203 156l8.5 8.5t7.5 6.5q11 10 22 0
q3 -3 6 -7q8 -14 11 -24q14 -49 13 -90q0 -64 -26 -111q-17 -30 -36 -45q-15 -11 -32 -15q-29 -6 -46 19q-12 18 -13 46q0 30 13 67q14 39 27 60q3 5 1 8q-3 0 -12 -7q-19 -14 -40 -30t-46.5 -35.5t-39.5 -30.5q-36 -27 -71 -48q-26 -15 -48 -21q-9 -3 -14 -3
q-16 -1 -24 10.5t-1 26.5q2 4 9 16q31 47 84 121q113 160 133 187q95 132 162 214q13 14 36 40t28 33q20 22 89 93q14 14 16 20q-3 3 -7 4t-6 0.5t-7 -1t-7 -1.5q-15 -1 -44 -2t-41 -2q-23 -1 -101 -2q-20 0 -33 2q-7 1 -17 1q-12 0 -11 -13q0 -1 0.5 -3t1 -3.5t0.5 -2.5
q4 -26 4 -30q5 -53 -22 -102q-9 -18 -25 -32q-5 -5 -8 -7q-21 -14 -40.5 -9.5t-30.5 25.5q-20 38 -4 82q21 56 62 91q2 2 6 5t4.5 4.5t-2.5 7.5q-9 21 14 23q6 0 10 -1q8 -1 18.5 -1.5t21.5 -1t19 -1.5q36 -4 82 -2q18 1 53.5 2t52.5 2q13 0 37.5 2.5t29.5 3.5q17 1 24 0z
M209 584q35 51 24 109q-2 8 -9 11q-7 2 -13 -5q-30 -34 -43 -67q-6 -16 -5 -28q0 -22 8 -33t19 -4.5t19 17.5zM342 193q-42 -61 -60 -106q-13 -33 -16 -64q-2 -18 5 -33q6 -11 19 -7q16 5 29 22q21 29 29 64q10 42 2 96q-3 19 -8 28z" />
    <glyph glyph-name="ampersand" unicode="&#x26;" horiz-adv-x="673" 
d="M618 505q8 -14 2 -27q-8 -14 -14 -22q-41 -51 -68 -82q-5 -6 -70 -82l-0.5 -0.5l-1.5 -1.5q-4 -5 -4.5 -8t4.5 -9q2 -3 7 -9q34 -44 77 -88q10 -10 12 -13q6 -8 0 -15q-7 -10 -17 -5q-7 4 -12 9q-38 34 -58 58q-6 7 -17 21t-16 19q-5 7 -11 1q-13 -13 -29 -30
q-93 -100 -167 -169q-34 -31 -63 -50q-24 -16 -44 -23q-17 -6 -31 -6q-29 1 -41 28q-6 12 -6 29q0 19 7 48q11 43 35 96q40 87 112 191q3 4 76 107q0 1 1.5 3t2.5 3q4 6 0 12q0 1 -1.5 3.5t-1.5 3.5q-42 72 -45 78q-38 73 -49 128q-25 128 81 213q30 24 68 33q66 17 104 -43
q20 -33 22 -70q1 -4 2 -13t1 -12t-2 -11q-3 -88 -60 -195q-26 -48 -65 -105q-9 -13 -9 -17.5t8 -17.5q45 -71 89 -136q10 -15 14 -15.5t16 13.5q73 83 121 144q14 18 15 30q0 9 10 11t16 -7zM229 672q22 -63 72 -147q1 -3 5 -6q2 -2 5 0q4 3 6 7q61 90 90 163q25 63 24 120
q0 23 -1 24q-2 35 -22 62q-24 33 -62 24q-18 -4 -33 -12q-52 -27 -78 -78q-19 -36 -20 -76q-1 -38 14 -81zM410 276q5 6 5 9t-4 9q0 1 -1 2l-1 1q-54 79 -95 145q-2 4 -5 7t-5 0q-5 -5 -8 -10q-63 -88 -100 -144q-45 -70 -75 -137q-19 -41 -30 -76q-6 -23 -9 -48
q0 -11 2 -18q5 -11 16 -11q6 1 13 3q13 3 29 13q23 13 45 32q51 43 102 96q31 32 92 95q12 13 29 32z" />
    <glyph glyph-name="quotesingle" unicode="'" horiz-adv-x="213" 
d="M163 811v-14q0 -55 -35 -90q-15 -16 -39 -27q-12 -5 -22 -4q-11 1 -16 11q-2 6 0.5 12t8.5 8h3.5t3.5 1q35 8 53 43q2 2 0.5 4t-4.5 2q-15 -4 -24 4q-10 9 -11 27q-1 30 18 51q7 8 17 12q12 4 20 -4q11 -10 15 -12q12 -8 12 -24z" />
    <glyph glyph-name="quotesingle" unicode="&#x2019;" horiz-adv-x="213" 
d="M163 811v-14q0 -55 -35 -90q-15 -16 -39 -27q-12 -5 -22 -4q-11 1 -16 11q-2 6 0.5 12t8.5 8h3.5t3.5 1q35 8 53 43q2 2 0.5 4t-4.5 2q-15 -4 -24 4q-10 9 -11 27q-1 30 18 51q7 8 17 12q12 4 20 -4q11 -10 15 -12q12 -8 12 -24z" />
    <glyph glyph-name="quotesingle" unicode="&#x2018;" horiz-adv-x="213" 
d="M163 811v-14q0 -55 -35 -90q-15 -16 -39 -27q-12 -5 -22 -4q-11 1 -16 11q-2 6 0.5 12t8.5 8h3.5t3.5 1q35 8 53 43q2 2 0.5 4t-4.5 2q-15 -4 -24 4q-10 9 -11 27q-1 30 18 51q7 8 17 12q12 4 20 -4q11 -10 15 -12q12 -8 12 -24z" />
    <glyph glyph-name="parenleft" unicode="(" horiz-adv-x="259" 
d="M422 1036q8 -4 8 -14q0 -7 -9 -11l-1 -1q-7 -1 -12.5 -3t-12 -6.5t-9 -6.5t-10 -9.5l-8.5 -8.5q-66 -60 -121 -149q-96 -154 -138 -343q-13 -62 -20 -117q-9 -87 -3 -179q10 -164 76 -326q10 -24 10 -26q5 -11 11 -15q9 -7 11 -20q1 -4 3 -10.5t3 -9.5q3 -14 -8.5 -19
t-20.5 6q-1 2 -2 3q-25 50 -26 54q-56 131 -76 247q-13 79 -14 132q0 5 -1.5 22.5t-1.5 27.5q1 7 2.5 44t3.5 56q11 122 53 252q49 150 134 273q32 47 76 95q25 26 58 50q14 10 28 13q10 2 17 -1z" />
    <glyph glyph-name="parenright" unicode=")" horiz-adv-x="347" 
d="M294 580q3 -51 2 -87q-3 -78 -10 -136q-12 -103 -37 -200q-32 -124 -85 -230q-48 -96 -109 -169q-18 -21 -47 -49q-4 -4 -9 -6q-12 -7 -20 3q-7 9 1 19q1 2 5 5q71 67 128 169q71 128 111 290q20 85 31 176q8 76 7 151v56q-6 152 -49 276q-20 61 -48 109q-4 7 -6 12
q-3 11 8 17q10 6 17 -2q4 -4 9 -12q22 -36 40 -84q39 -100 53 -217q5 -37 8 -91z" />
    <glyph glyph-name="asterisk" unicode="*" horiz-adv-x="388" 
d="M331 946q11 -8 6 -21q-3 -8 -14 -17q-37 -30 -83 -58q-15 -10 -20 -13q-8 -6 -2 -14q4 -7 28 -42q4 -5 9 -12t9 -12.5t8.5 -12l9 -13t9 -12.5t5.5 -10q4 -9 -4 -17q-7 -6 -17 -2q-5 3 -12 12q-42 60 -54 76q-1 2 -3 5.5t-3.5 5.5t-4 4.5t-6.5 2.5q-3 -2 -4.5 -5.5
t-3 -8.5t-2.5 -7q-3 -9 -9 -26t-8 -23q-4 -11 -4 -20q1 -12 -12 -17q-9 -4 -17 1t-6 15q0 6 4 17q2 7 5.5 17t7 19.5t6.5 17.5q3 12 2 18q-3 -3 -26.5 -18.5t-33.5 -25.5q-6 -7 -21 -13q-10 -4 -17 4q-7 9 1 19q5 6 14 14q22 18 74 51q18 12 18.5 16t-13.5 21q-3 4 -45 57
q-6 8 -7 15q-1 8 5 13t14 2q5 -2 14 -13q28 -34 40 -49q4 -5 8 -8t6 2l6 14q23 57 28 71q3 7 7 13q7 8 17 4q9 -4 9 -14q0 -5 -2 -11q0 -2 -2 -10t-3.5 -11.5t-4 -9.5t-6.5 -10l-1 -3q-5 -10 -8 -19.5t-4 -14t0 -4.5q8 1 34 19q15 10 32 23q19 15 26 24q9 12 21 4z" />
    <glyph glyph-name="plus" unicode="+" horiz-adv-x="464" 
d="M407 316q8 -5 7 -13q0 -10 -9 -13q-5 -2 -11 -2q-21 0 -28 1q-10 1 -45 2q-32 1 -42 3q-6 1 -21 1q-6 0 -8.5 -1t-4 -3.5t-3.5 -7.5q-2 -9 -7.5 -27t-7.5 -27q-7 -23 -33 -107q-4 -14 -10 -22q-6 -6 -14.5 -5.5t-12.5 8.5q-4 7 0 14q6 11 19 54l30 104q5 16 2.5 19.5
t-18.5 4.5q-11 0 -112 4q-13 1 -18 3q-12 5 -10 17t14 12h38q10 0 23.5 -1t24 -2t23.5 -1.5t24 -0.5q19 0 22.5 3t8.5 21q9 31 18 61q4 15 2 25q-2 16 12 35q6 7 15 4q9 -2 11 -11q3 -14 -1 -28q-4 -19 -11 -44q-1 -5 -3 -11.5t-3.5 -11.5t-3.5 -11.5t-3 -11.5q-3 -8 -3 -13
q-2 -9 8 -10q33 -3 40 -3q13 0 27.5 -1t31.5 -2t27 -1.5t15 -3.5z" />
    <glyph glyph-name="comma" unicode="," horiz-adv-x="193" 
d="M123 170q22 -23 19 -43q0 -3 -0.5 -7l-1 -8t-0.5 -7q-4 -27 -24 -40q-15 -9 -37 -22q-5 -3 -12 -4q-11 -2 -15.5 8t3.5 17q1 2 3 3t5 3t4 2q1 1 11.5 7t15.5 11l-14 7q-12 7 -14 19q-4 23 5 40q6 12 18.5 17t25.5 1q6 -2 8 -4z" />
    <glyph glyph-name="hyphen" unicode="-" horiz-adv-x="365" 
d="M315 365q1 -9 -7 -14q-4 -2 -7.5 -2.5t-9.5 -0.5q-95 -4 -106 -4q-16 0 -49 -2t-49 -2h-17q-7 1 -11 2q-9 4 -9 13t8 14q4 2 15 3l130 4q9 0 29.5 2t31.5 1h28q8 0 13 -2q9 -3 10 -12z" />
    <glyph glyph-name="period" unicode="." horiz-adv-x="179" 
d="M129 131q2 -12 -3 -23.5t-15.5 -19t-22.5 -8.5q-10 -1 -20 5t-14 16q-6 11 -3 25t12 22q8 7 25 7q20 -3 22 -3q16 -4 19 -21z" />
    <glyph glyph-name="slash" unicode="/" horiz-adv-x="741" 
d="M683 836q8 -4 8 -12t-5 -16q-11 -19 -18 -30q-126 -200 -158 -251q-23 -37 -70.5 -111.5t-70.5 -112.5q-24 -37 -67.5 -106.5t-63.5 -100.5q-16 -26 -116 -184q-4 -7 -16.5 -27t-19.5 -30q-7 -11 -11 -15q-10 -8 -19 -1q-9 6 -5 17q3 7 8 16q16 25 90 142q24 39 79 126
t84 133q11 18 59.5 95t74.5 118q22 35 50.5 80.5t57 90.5t50.5 80q20 33 53 84q7 11 12 14q7 4 14 1z" />
    <glyph glyph-name="zero" unicode="0" horiz-adv-x="571" 
d="M519 692q0 -3 1 -13t1 -16q-1 -26 -3 -48q-5 -51 -18 -105q-18 -76 -49 -152q-43 -107 -102 -192q-41 -61 -86 -101q-31 -29 -62 -43q-19 -9 -36 -11q-53 -9 -84 36q-15 21 -22 51q-10 40 -9 75q0 66 16 140q24 114 77 226q38 80 79 140q38 53 73 87q26 26 54 43
q29 18 56 23q48 8 79 -30q17 -19 25 -49q9 -32 10 -61zM484 557q11 60 10 104v24q0 30 -9 61q-7 25 -20 41q-23 26 -56 20q-22 -4 -41 -16q-27 -16 -50 -38q-48 -46 -91 -113q-35 -56 -63 -115q-53 -116 -76 -231q-12 -60 -13 -119q0 -7 1 -19.5t1 -15.5q2 -24 10 -50
q10 -28 26 -42q18 -16 44 -13q24 3 49 18q21 13 42 32q44 41 83 99q35 52 67 116q62 127 86 257z" />
    <glyph glyph-name="one" unicode="1" horiz-adv-x="360" 
d="M308 800q2 -5 2 -17q-4 -18 -4 -19q-22 -76 -30 -99q-9 -31 -31 -100t-34 -106q-22 -74 -67 -224q-34 -113 -65 -230q-2 -7 -4 -11q-4 -9 -13 -7q-7 1 -10 9q-4 10 1 18q3 5 8 20q29 109 58 207q29 96 55 183q5 15 13.5 43t11.5 36q73 236 78 251l0.5 2t0.5 4l2 6.5
t1 9.5q-4 1 -6.5 0t-5.5 -4.5l-3 -3.5q-61 -48 -113 -102q-8 -9 -12 -15q-2 -4 -7 -7q-8 -3 -13 2q-7 6 -3 14q3 5 8 12q18 23 53 55q40 36 73 62q9 7 20 15q7 5 14 7q16 5 22 -11z" />
    <glyph glyph-name="two" unicode="2" horiz-adv-x="629" 
d="M570 766q12 -34 8 -69q-5 -50 -32 -112q-16 -38 -42 -78q-44 -69 -87 -117q-45 -53 -88 -96q-6 -6 -33 -34t-42 -43q-78 -76 -103 -102q-2 -2 -41 -43q0 -1 1 -2l9 2q55 19 113 25q54 5 84 1q8 -1 22 -1.5t21 -1.5q50 -6 96 -21q7 -2 30 -9q13 -5 21 -4q6 1 12 -6t5 -14
q0 -5 -4 -8.5t-10 -2.5q-2 1 -11 4q-72 24 -92 28q-48 10 -84 11q-5 0 -14 1t-12 1h-16q-70 -4 -117 -16q-35 -9 -86 -28q-9 -4 -12 -4q-9 -2 -14 6q-4 7 0 14l6 6q17 19 21 23q12 13 33 35t39 40.5t35 34.5q51 48 99 98q81 84 113 121q68 80 111 161q32 59 42 116
q6 37 -2 66q-4 16 -13 28q-13 17 -33 18q-26 2 -53 -10q-40 -20 -78 -50q-56 -44 -99 -91q-4 -4 -28 -32q-6 -7 -4.5 -13t-4.5 -13q-8 -10 -16 -15q-7 -4 -14 0t-6 13t7 19q9 15 27 35q61 71 140 130q30 22 68 40q25 12 49 13q43 2 66 -30q9 -12 13 -24z" />
    <glyph glyph-name="three" unicode="3" horiz-adv-x="632" 
d="M539 829q53 -16 42 -69q-3 -14 -10 -26q-12 -23 -18 -32q-25 -40 -66 -89q-41 -47 -120 -109q-4 -2 -72 -52q-6 -5 -9 -7q-2 -2 -1 -4q0 -1 2 -2q10 -2 17 -3q50 -8 75 -14q65 -18 110 -55q48 -39 49 -100q1 -36 -5 -58q-12 -44 -42 -82q-29 -36 -84 -68
q-47 -28 -113 -42q-34 -7 -62 -10q-2 -1 -38 -2t-65 6q-30 7 -53 27q-20 17 -25 43q-3 17 5 32q7 13 22 31q2 3 5 5q9 6 15 0q7 -6 3 -15q-1 -2 -6 -8q-9 -14 -12 -17q-8 -12 -6.5 -24.5t9.5 -22.5q15 -15 35 -23q23 -8 46 -8q29 -2 54 0q19 0 56 8q42 9 72 20q55 20 99 60
q53 47 64 113q6 37 -5 68q-10 29 -37 50q-40 31 -95 47q-25 7 -73 14l-18 3l-18 3q-9 2 -15 5q-16 11 -3 25q3 4 12 10q9 7 24 17.5t28 20t24 17.5q74 56 116 100q52 55 86 112q9 16 13 28q3 7 5 12q2 11 0 20t-9.5 14.5t-19.5 6.5q-19 3 -36 -1q-26 -6 -47 -16
q-39 -17 -71 -38q-51 -34 -95 -74q-20 -19 -40 -48q-6 -8 -7 -15q0 -4 -4 -7q-7 -7 -14 -3q-7 3 -7 12q0 7 6 17q16 28 32 44q29 31 65 59q58 45 108 68q33 16 61 23q25 7 50 5q7 -1 11 -2z" />
    <glyph glyph-name="four" unicode="4" horiz-adv-x="553" 
d="M496.5 808.5q6.5 -3.5 6.5 -12.5q0 -5 -3 -8q-7 -8 -14 -29q-22 -69 -35 -109q-9 -31 -43 -144q-3 -8 -7.5 -23.5t-6.5 -23.5q-1 -5 4 -9q10 -7 5 -17q-5 -13 -14 -16q-7 -1 -9 -10q-3 -7 -7.5 -24t-7.5 -26q-43 -158 -59 -218q-13 -50 -31 -134q0 -1 -1 -2q-1 -8 -2 -12
q-2 -6 -4 -10q-4 -6 -13 -5q-7 0 -10 7t-2 14q2 15 7 24q4 8 6 18q13 63 42 167q5 18 52 192l1 2t1 3q2 8 0.5 9.5t-7.5 1.5q-101 -10 -105 -10q-64 -10 -100 -19q-32 -8 -58 -20q-9 -4 -14 -5q-9 -2 -14.5 3.5t-2.5 14.5q1 4 6 16q66 156 123 331q14 42 18 65q0 2 1 4
q3 7 10.5 7t10.5 -7q3 -8 0 -18q-10 -41 -11 -43q-15 -50 -62 -179q-27 -73 -57 -145q-4 -9 -2 -11q1 -2 2.5 -2t3 0.5t3.5 1.5t3 1q41 14 112 25q28 5 53 8q13 2 40 4q9 1 25.5 2t20.5 1q8 1 10 2.5t4 9.5q2 5 3.5 10.5t3.5 12t3 10.5q28 92 41 136q29 96 39 125
q10 30 20 49q5 9 8 12q7 6 13.5 2.5z" />
    <glyph glyph-name="five" unicode="5" horiz-adv-x="710" 
d="M650 765q11 -3 10 -13q-1 -8 -11 -10q-3 -1 -7 -1q-41 1 -53 2q-1 1 -2 1q-60 3 -70 3q-53 3 -88 5q-17 2 -64 4q-20 1 -71 3h-15q-5 0 -10 -6q-9 -11 -17 -36q-22 -73 -54 -202l-3 -16q19 12 20 13q50 32 110 45q52 12 107 -6q48 -15 77 -65q19 -32 27 -81q5 -32 1 -80
q-4 -37 -16 -75q-18 -57 -55 -105q-56 -74 -132 -120q-50 -29 -97 -36q-65 -9 -121 18q-31 14 -45 47q-9 20 -14 45q-7 47 -7 71q0 17 8 31q4 6 8 10q6 3 12 0t5 -9q0 -5 -2 -10q-8 -18 -5 -40q5 -43 7 -53q4 -18 10 -33q11 -27 36 -38q35 -15 68 -16q59 -2 114 29
q62 35 108 86q33 37 51 69q37 66 42 134q2 33 2 34q-2 62 -26 108q-21 38 -54 52q-43 18 -87 11q-69 -9 -136 -56q-3 -2 -9 -6.5t-9 -6.5q-7 -4 -12 -6q-7 -3 -12.5 1t-5.5 11q0 5 3 16q31 127 40 159q5 18 29 99q4 12 2 19t5 12q6 4 7 6q7 5 14 3q6 -3 23 -3q39 0 52 -2h8
q11 0 84 -4q85 -5 104 -5q13 -1 38.5 -3t32.5 -2q6 -1 18 -1h15q9 0 12 -1z" />
    <glyph glyph-name="six" unicode="6" horiz-adv-x="586" 
d="M535 761q1 -3 0 -6q-1 -6 -7 -8q-5 -2 -10 2q-3 3 -6 10q-18 41 -62 33q-40 -7 -84 -34q-63 -38 -121 -106q-43 -49 -77 -116q-33 -65 -51 -119q-20 -63 -27 -119v-3q2 1 7 9q38 73 101 123q45 36 96 45q54 10 98 -17q37 -24 45 -71q5 -29 -5 -70q-6 -25 -19 -57
q-40 -94 -120 -165q-41 -36 -88 -47q-24 -5 -38 -3q-40 4 -67 40q-12 16 -21 40q-8 25 -11 42q-2 11 -10 15q-10 4 -7 15q1 7 6 19t5 23q-2 79 25 167q37 124 106 223q72 103 172 160q41 24 86 31q34 6 62 -17q16 -13 22 -39zM95 240q-8 -19 -8 -21t2 -21v-4.5v-3.5
q5 -41 19 -71q9 -22 26 -37q18 -15 40 -15q16 0 29 3q39 11 72 40q17 14 38 38q63 69 91 158q9 31 8 54v16q-3 39 -36 59q-36 22 -80 12q-50 -10 -93 -48q-72 -64 -108 -159z" />
    <glyph glyph-name="seven" unicode="7" horiz-adv-x="644" 
d="M584 801q13 -5 9 -19q-2 -7 -11 -17q-19 -23 -32 -38q-97 -114 -190 -244q-48 -68 -104 -152q-102 -154 -170 -297q-6 -11 -9 -17q-3 -5 -6 -8q-7 -6 -15 -1t-5 13q2 7 5 12q5 8 13 25q60 122 140 247q109 168 213 304q50 65 110 136q12 13 21 24q3 3 1.5 5.5t-5.5 1.5
q-2 0 -38 -3q-6 -1 -15 -2t-17.5 -1.5t-14.5 -1.5q-39 -2 -67 -3q-6 0 -42 -2t-55 -1h-81q-18 0 -24 -2q-2 -1 -5 -1q-12 1 -14 13q-2 10 10 13q6 2 15 2h71h69q13 1 43 2t46 3q11 1 32 2t26 2q10 0 27.5 2t23.5 2q23 2 36 3q4 0 9 -2z" />
    <glyph glyph-name="eight" unicode="8" horiz-adv-x="628" 
d="M577 728q3 -30 -14 -64q-15 -32 -47 -69q-33 -39 -85 -87q-7 -6 -14.5 -12.5t-16 -14.5t-13.5 -13q-9 -8 -19.5 -17.5t-21.5 -19.5t-18 -17q-7 -6 -2 -13q26 -33 40 -50q36 -45 52 -72q28 -47 22 -103q-1 -14 -10 -32q-10 -23 -31 -47q-51 -56 -127 -83q-39 -14 -73 -19
q-6 -1 -35 -2q-36 0 -51 4q-31 8 -46 23q-16 16 -17 38q-1 25 7 50q16 51 45 97q37 60 91 121q39 43 84 81q3 2 4 4q3 3 1 7l-5 7l-33 49q-31 52 -35 112q-3 53 25 99q30 50 84 85.5t114 42.5q40 5 67 0q14 -3 25 -8q49 -22 53 -77zM361 317q-10 12 -49 62l-6 6q-3 3 -7 1
l-5 -5q-5 -4 -15.5 -14t-16.5 -15.5t-14.5 -14.5t-14.5 -17q-7 -10 -16 -11q-6 -1 -11 -7l-10 -10q-42 -51 -70 -96q-31 -49 -46 -99q-5 -19 -5 -36t15 -28q10 -7 27 -11q14 -4 46 -4q34 2 41 3q111 21 177 94q15 17 24 35q11 21 11 43q0 40 -20 74q-12 20 -35 50zM552 713
q2 15 -2.5 29t-14 24.5t-24.5 16.5q-16 7 -37 8q-26 1 -58 -6q-96 -21 -155 -104q-28 -40 -26 -86q-1 -38 15 -77q13 -31 53 -85q3 -5 8 -1l5 5q2 2 3 2q48 44 51 48q70 62 112 107q29 30 49 64q18 29 21 55z" />
    <glyph glyph-name="nine" unicode="9" horiz-adv-x="621" 
d="M566 749q-6 -35 -19 -97q-2 -12 1 -18q3 -7 -3 -14q-7 -8 -11 -28q-36 -149 -66 -250q-24 -81 -51 -135q-41 -78 -103 -138q-36 -35 -88 -49q-32 -8 -68 -2q-44 7 -80 26q-13 7 -20 14q-10 11 -7.5 25t15.5 21q7 4 12 -1q6 -5 3 -12l-2 -4q-4 -8 -2.5 -11t8.5 -7
q26 -16 63 -24q77 -17 140 34q23 19 57 62q50 63 81 154q23 64 49 168q5 18 22 85q1 5 2 8q0 2 -1 3q-1 2 -3 0q-18 -21 -23 -26q-40 -47 -85 -90q-41 -39 -89 -68q-21 -12 -38 -18q-13 -4 -29 -4q-33 -1 -50 29q-14 22 -15 51q-2 52 9 102q17 79 49 141q28 53 64 87
q32 29 58 39q55 21 103 -10q44 -28 66 -80q0 -1 11 -30q3 8 6 24q2 8 6 30.5t6 35.5q2 8 -1 14q-4 11 4 24q4 6 11 5.5t10 -6.5q3 -5 3 -15q0 -16 -5 -45zM501 604q9 11 8 24q-5 54 -27 94q-18 31 -46 49q-41 26 -85 6q-12 -6 -25 -15q-45 -34 -76 -90q-34 -64 -50 -143
q-10 -45 -9 -75v-22q2 -23 12 -39q11 -16 29 -16q12 1 19 3q15 5 30 14q51 30 105 82q20 19 68 74q8 9 23.5 27t23.5 27z" />
    <glyph glyph-name="colon" unicode=":" horiz-adv-x="206" 
d="M88 263q11 0 19.5 -4.5t13 -12t6 -16.5t-2.5 -19q-9 -22 -28 -29q-13 -5 -26.5 1.5t-17.5 19.5q-5 14 2.5 32t21.5 25q7 3 12 3zM155 358q1 -1 1 -8q0 -18 -14 -31.5t-31 -11.5q-12 1 -19.5 10t-6.5 21q2 30 24 52q5 6 13 7q10 2 14 -4q1 -2 6.5 -10t8.5 -13.5t4 -11.5z
" />
    <glyph glyph-name="semicolon" unicode=";" horiz-adv-x="233" 
d="M117 265q16 7 30.5 -3.5t13.5 -29.5q-7 -48 -26 -75q-16 -22 -48 -38q-8 -4 -18 -3q-18 3 -19 20q0 7 4 12t10 4q3 -1 5.5 -1.5t5.5 0t4.5 1t4.5 2.5t4 2.5t4 3t4 3.5q3 2 7 6q6 6 -2 11q-28 17 -16 50q7 16 19 27q6 5 13 8zM178 369q5 -7 5 -19l-1 -6q-12 -31 -40 -38
q-15 -4 -26 5.5t-9 25.5q3 27 21 44q19 18 37 1z" />
    <glyph glyph-name="less" unicode="&#x3c;" horiz-adv-x="482" 
d="M5 261q-7 -4 -9 -9q33 -16 61 -25q63 -21 348 -128q9 -3 15 -7q10 -6 7 -16q-3 -11 -15 -12q-6 0 -15 3q-3 2 -193 74q-40 15 -156 55q-37 13 -78 33q-10 5 -16 10t-6 12.5t6 13.5q4 4 15 11q80 52 177 106q19 10 82 45.5t98 54.5q15 9 68 35q7 4 17 7q8 2 15 -5
q6 -4 5.5 -10.5t-6.5 -9.5q-2 -1 -3 -2q-17 -7 -33.5 -15.5t-38.5 -21.5t-32 -18q-82 -45 -221 -125q-11 -6 -92 -56z" />
    <glyph glyph-name="equal" unicode="=" horiz-adv-x="462" 
d="M158 314h-80q-11 0 -16 2q-13 2 -12 15q1 10 11 13q4 1 11 2h11h8q242 3 264 3h17q6 0 9 -1q14 -4 13 -17q-2 -11 -14 -13q-3 0 -9 -1h-21q-33 1 -97 -1.5t-95 -1.5zM412 179q1 -12 -11 -16q-6 -2 -14 -2q-26 0 -72.5 -2t-59.5 -3q-96 -3 -115 -3q-5 0 -15.5 -1.5
t-15.5 -1.5h-18q-17 2 -17 16t17 15q48 4 62 4q28 0 81 2t79 3q12 0 35.5 1t34.5 2q10 0 17 -2q11 -2 12 -12z" />
    <glyph glyph-name="greater" unicode="&#x3e;" horiz-adv-x="549" 
d="M489 331q15 -11 8 -28q-6 -12 -19 -23q-23 -18 -37 -28q-128 -93 -251 -181q-20 -14 -90 -64q-15 -11 -27 -11q-10 0 -16.5 5.5t-6.5 14.5q0 6 3 12t9 10t12 4q2 0 7 -2q7 -2 14 3q1 1 5.5 4l7.5 5q25 17 97.5 69.5t112.5 81.5l45.5 32.5t48.5 34.5l42 32q9 7 -3 12
q-9 3 -22 8t-25 10t-22 8q-166 66 -248 99q-4 1 -41 19q-9 4 -15 13q-9 11 -0.5 20t19.5 2q12 -10 60 -29q121 -50 293 -115q15 -6 26 -11q8 -3 13 -7z" />
    <glyph glyph-name="question" unicode="?" horiz-adv-x="517" 
d="M459 871q11 -34 7 -70q-7 -63 -42 -124q-28 -50 -67 -89q-8 -9 -26.5 -27.5t-27.5 -28.5q-45 -46 -83 -95q-35 -45 -62 -113q-12 -31 -31 -99q-4 -16 -8 -28q-3 -10 -9 -16q-11 -11 -24 -3q-6 5 -8 11.5t1 12.5q5 6 8.5 14.5t5 14.5t4 16.5t4.5 15.5q18 60 35 100
q27 61 81 127q24 29 83 88q48 48 72 83q41 58 54 116q8 38 3 67q-4 24 -17 43q-18 26 -50 28q-37 3 -70 -11t-54 -32q-48 -43 -71 -92q-19 -42 -11 -81q3 -20 14 -32q8 -9 0 -18q-9 -10 -21 -4q-6 4 -11 9q-5 7 -8 14q-15 37 -11 72q6 38 23 69q42 72 102 110q35 22 76 30
q2 0 31 2q43 2 75 -27q22 -20 33 -53zM93 163q12 0 22 -9.5t12 -22.5q3 -20 -11.5 -35t-33.5 -15q-13 1 -22 9.5t-10 21.5q-1 17 10 31.5t27 18.5q1 0 6 1z" />
    <glyph glyph-name="at" unicode="@" horiz-adv-x="879" 
d="M816 504q17 -46 11 -105q-8 -85 -63 -188q-31 -58 -82 -103q-18 -17 -38 -29q-24 -14 -53 -17q-16 -2 -30.5 2t-25 12.5t-17.5 20t-9 24.5q-2 10 -3 43t9 74q4 14 -7 23q-5 4 -9 -1q-13 -15 -23 -27q-17 -22 -42 -45q-33 -30 -76 -47q-32 -12 -56 -6q-47 12 -60 58
q-9 28 -3 59q15 78 70 140q26 29 65 42q47 16 87 -18q22 -18 36 -45l3 -6t3 -6.5t3 -6t3 -6.5q6 -10 13 0q2 2 9 12q8 12 41 60q7 11 12 14q10 8 19 2q10 -7 7 -18q-2 -8 -7 -19q-27 -65 -45 -121q-14 -45 -19 -95q-3 -25 0 -48q4 -24 20.5 -33.5t36.5 -4.5q29 6 54 27
q47 38 78 92q44 75 59 142q8 34 10 69q2 75 -52 136q-61 69 -158 85q-78 13 -158 -15q-113 -41 -196 -119q-71 -67 -108 -153q-28 -63 -37 -115q-12 -68 2 -128q20 -82 103 -114q34 -14 81 -18q4 0 11.5 -0.5t11.5 -1.5q17 -1 22 0q75 5 122 15q39 9 73 16q13 3 22 9
q15 11 24 -4q9 -14 -5 -24q-5 -5 -19 -8q-73 -17 -125 -26q-60 -11 -106 -10q-70 2 -121 21q-60 22 -96 71q-25 35 -33 84q-12 73 5 143q22 89 65 160q63 104 169 171q42 26 79 42q73 33 142 38q70 5 128 -16q79 -28 126 -81q32 -37 47 -79zM487 297q6 9 1 19
q-3 6 -8.5 17.5t-8.5 17.5q-12 26 -33 43q-23 19 -50 11q-34 -10 -58 -38q-38 -44 -55 -101q-5 -18 -6 -38q0 -16 5 -32q7 -17 23 -25.5t34 -4.5q37 9 71 37t85 94z" />
    <glyph glyph-name="A" unicode="A" horiz-adv-x="978" 
d="M1080 1316q4 0 6.5 -1.5t4.5 -4.5t2 -7q0 -15 -4 -30q-2 -6 -6 -8q-8 -5 -11 -19q-36 -136 -36 -139q-9 -35 -24 -98.5t-19 -81.5q-49 -204 -75 -339q-3 -16 0 -25q3 -8 -3 -14q-6 -8 -9 -25q-34 -204 -40 -237q-4 -22 -11 -67.5t-10 -68.5q-4 -23 -21 -113q-1 -7 -4 -13
q-4 -10 -14 -10q-10 1 -14 10q-5 11 -6 28q-1 9 6 13q9 4 11 19q7 35 23 137q11 69 32 197q4 20 10 56t8 46v9q0 5 -5 5q-6 0 -12 -1q-120 -25 -181 -38q-10 -2 -86 -19q-1 0 -3 -0.5l-4 -1t-3 -0.5q-10 -1 -17 -12q-8 -14 -24 -38.5t-20 -30.5q-51 -81 -108 -150
q-35 -43 -71 -79q-40 -39 -79 -64q-40 -25 -82 -32q-40 -6 -76 8q-52 21 -55 81q1 33 20 67q25 47 75 91q60 53 163 102q90 42 223 75q16 4 20.5 7t13.5 17q23 40 66 115.5t49 86.5q121 208 135 231q82 132 169 258q37 55 64 86q11 13 21 19q6 4 11 3zM522 448q5 8 2 11
q-1 1 -9 -1q-139 -33 -260 -100q-69 -38 -118 -90q-30 -32 -44 -62q-12 -25 -12 -50q-1 -39 36 -52q21 -8 39 -8q32 0 67 17q42 19 91 66q35 33 83 92q49 59 125 177zM1034 1219q1 6 -2 8q-4 -6 -10.5 -15.5t-12.5 -18t-11 -15.5q-81 -118 -166 -256q-6 -10 -122 -211
q-2 -2 -97 -169q-1 -2 -19 -33q14 2 15 2q8 2 34 7.5t40 8.5q62 13 181 37q15 3 18 6t6 17q25 120 28 136q9 43 82 352q7 28 20.5 83t15.5 61z" />
    <glyph glyph-name="A" unicode="&#xc5;" horiz-adv-x="978" 
d="M1080 1316q4 0 6.5 -1.5t4.5 -4.5t2 -7q0 -15 -4 -30q-2 -6 -6 -8q-8 -5 -11 -19q-36 -136 -36 -139q-9 -35 -24 -98.5t-19 -81.5q-49 -204 -75 -339q-3 -16 0 -25q3 -8 -3 -14q-6 -8 -9 -25q-34 -204 -40 -237q-4 -22 -11 -67.5t-10 -68.5q-4 -23 -21 -113q-1 -7 -4 -13
q-4 -10 -14 -10q-10 1 -14 10q-5 11 -6 28q-1 9 6 13q9 4 11 19q7 35 23 137q11 69 32 197q4 20 10 56t8 46v9q0 5 -5 5q-6 0 -12 -1q-120 -25 -181 -38q-10 -2 -86 -19q-1 0 -3 -0.5l-4 -1t-3 -0.5q-10 -1 -17 -12q-8 -14 -24 -38.5t-20 -30.5q-51 -81 -108 -150
q-35 -43 -71 -79q-40 -39 -79 -64q-40 -25 -82 -32q-40 -6 -76 8q-52 21 -55 81q1 33 20 67q25 47 75 91q60 53 163 102q90 42 223 75q16 4 20.5 7t13.5 17q23 40 66 115.5t49 86.5q121 208 135 231q82 132 169 258q37 55 64 86q11 13 21 19q6 4 11 3zM522 448q5 8 2 11
q-1 1 -9 -1q-139 -33 -260 -100q-69 -38 -118 -90q-30 -32 -44 -62q-12 -25 -12 -50q-1 -39 36 -52q21 -8 39 -8q32 0 67 17q42 19 91 66q35 33 83 92q49 59 125 177zM1034 1219q1 6 -2 8q-4 -6 -10.5 -15.5t-12.5 -18t-11 -15.5q-81 -118 -166 -256q-6 -10 -122 -211
q-2 -2 -97 -169q-1 -2 -19 -33q14 2 15 2q8 2 34 7.5t40 8.5q62 13 181 37q15 3 18 6t6 17q25 120 28 136q9 43 82 352q7 28 20.5 83t15.5 61z" />
    <glyph glyph-name="A" unicode="&#xc4;" horiz-adv-x="978" 
d="M1080 1316q4 0 6.5 -1.5t4.5 -4.5t2 -7q0 -15 -4 -30q-2 -6 -6 -8q-8 -5 -11 -19q-36 -136 -36 -139q-9 -35 -24 -98.5t-19 -81.5q-49 -204 -75 -339q-3 -16 0 -25q3 -8 -3 -14q-6 -8 -9 -25q-34 -204 -40 -237q-4 -22 -11 -67.5t-10 -68.5q-4 -23 -21 -113q-1 -7 -4 -13
q-4 -10 -14 -10q-10 1 -14 10q-5 11 -6 28q-1 9 6 13q9 4 11 19q7 35 23 137q11 69 32 197q4 20 10 56t8 46v9q0 5 -5 5q-6 0 -12 -1q-120 -25 -181 -38q-10 -2 -86 -19q-1 0 -3 -0.5l-4 -1t-3 -0.5q-10 -1 -17 -12q-8 -14 -24 -38.5t-20 -30.5q-51 -81 -108 -150
q-35 -43 -71 -79q-40 -39 -79 -64q-40 -25 -82 -32q-40 -6 -76 8q-52 21 -55 81q1 33 20 67q25 47 75 91q60 53 163 102q90 42 223 75q16 4 20.5 7t13.5 17q23 40 66 115.5t49 86.5q121 208 135 231q82 132 169 258q37 55 64 86q11 13 21 19q6 4 11 3zM522 448q5 8 2 11
q-1 1 -9 -1q-139 -33 -260 -100q-69 -38 -118 -90q-30 -32 -44 -62q-12 -25 -12 -50q-1 -39 36 -52q21 -8 39 -8q32 0 67 17q42 19 91 66q35 33 83 92q49 59 125 177zM1034 1219q1 6 -2 8q-4 -6 -10.5 -15.5t-12.5 -18t-11 -15.5q-81 -118 -166 -256q-6 -10 -122 -211
q-2 -2 -97 -169q-1 -2 -19 -33q14 2 15 2q8 2 34 7.5t40 8.5q62 13 181 37q15 3 18 6t6 17q25 120 28 136q9 43 82 352q7 28 20.5 83t15.5 61z" />
    <glyph glyph-name="A" unicode="&#xc3;" horiz-adv-x="978" 
d="M1080 1316q4 0 6.5 -1.5t4.5 -4.5t2 -7q0 -15 -4 -30q-2 -6 -6 -8q-8 -5 -11 -19q-36 -136 -36 -139q-9 -35 -24 -98.5t-19 -81.5q-49 -204 -75 -339q-3 -16 0 -25q3 -8 -3 -14q-6 -8 -9 -25q-34 -204 -40 -237q-4 -22 -11 -67.5t-10 -68.5q-4 -23 -21 -113q-1 -7 -4 -13
q-4 -10 -14 -10q-10 1 -14 10q-5 11 -6 28q-1 9 6 13q9 4 11 19q7 35 23 137q11 69 32 197q4 20 10 56t8 46v9q0 5 -5 5q-6 0 -12 -1q-120 -25 -181 -38q-10 -2 -86 -19q-1 0 -3 -0.5l-4 -1t-3 -0.5q-10 -1 -17 -12q-8 -14 -24 -38.5t-20 -30.5q-51 -81 -108 -150
q-35 -43 -71 -79q-40 -39 -79 -64q-40 -25 -82 -32q-40 -6 -76 8q-52 21 -55 81q1 33 20 67q25 47 75 91q60 53 163 102q90 42 223 75q16 4 20.5 7t13.5 17q23 40 66 115.5t49 86.5q121 208 135 231q82 132 169 258q37 55 64 86q11 13 21 19q6 4 11 3zM522 448q5 8 2 11
q-1 1 -9 -1q-139 -33 -260 -100q-69 -38 -118 -90q-30 -32 -44 -62q-12 -25 -12 -50q-1 -39 36 -52q21 -8 39 -8q32 0 67 17q42 19 91 66q35 33 83 92q49 59 125 177zM1034 1219q1 6 -2 8q-4 -6 -10.5 -15.5t-12.5 -18t-11 -15.5q-81 -118 -166 -256q-6 -10 -122 -211
q-2 -2 -97 -169q-1 -2 -19 -33q14 2 15 2q8 2 34 7.5t40 8.5q62 13 181 37q15 3 18 6t6 17q25 120 28 136q9 43 82 352q7 28 20.5 83t15.5 61z" />
    <glyph glyph-name="A" unicode="&#xc2;" horiz-adv-x="978" 
d="M1080 1316q4 0 6.5 -1.5t4.5 -4.5t2 -7q0 -15 -4 -30q-2 -6 -6 -8q-8 -5 -11 -19q-36 -136 -36 -139q-9 -35 -24 -98.5t-19 -81.5q-49 -204 -75 -339q-3 -16 0 -25q3 -8 -3 -14q-6 -8 -9 -25q-34 -204 -40 -237q-4 -22 -11 -67.5t-10 -68.5q-4 -23 -21 -113q-1 -7 -4 -13
q-4 -10 -14 -10q-10 1 -14 10q-5 11 -6 28q-1 9 6 13q9 4 11 19q7 35 23 137q11 69 32 197q4 20 10 56t8 46v9q0 5 -5 5q-6 0 -12 -1q-120 -25 -181 -38q-10 -2 -86 -19q-1 0 -3 -0.5l-4 -1t-3 -0.5q-10 -1 -17 -12q-8 -14 -24 -38.5t-20 -30.5q-51 -81 -108 -150
q-35 -43 -71 -79q-40 -39 -79 -64q-40 -25 -82 -32q-40 -6 -76 8q-52 21 -55 81q1 33 20 67q25 47 75 91q60 53 163 102q90 42 223 75q16 4 20.5 7t13.5 17q23 40 66 115.5t49 86.5q121 208 135 231q82 132 169 258q37 55 64 86q11 13 21 19q6 4 11 3zM522 448q5 8 2 11
q-1 1 -9 -1q-139 -33 -260 -100q-69 -38 -118 -90q-30 -32 -44 -62q-12 -25 -12 -50q-1 -39 36 -52q21 -8 39 -8q32 0 67 17q42 19 91 66q35 33 83 92q49 59 125 177zM1034 1219q1 6 -2 8q-4 -6 -10.5 -15.5t-12.5 -18t-11 -15.5q-81 -118 -166 -256q-6 -10 -122 -211
q-2 -2 -97 -169q-1 -2 -19 -33q14 2 15 2q8 2 34 7.5t40 8.5q62 13 181 37q15 3 18 6t6 17q25 120 28 136q9 43 82 352q7 28 20.5 83t15.5 61z" />
    <glyph glyph-name="A" unicode="&#xc1;" horiz-adv-x="978" 
d="M1080 1316q4 0 6.5 -1.5t4.5 -4.5t2 -7q0 -15 -4 -30q-2 -6 -6 -8q-8 -5 -11 -19q-36 -136 -36 -139q-9 -35 -24 -98.5t-19 -81.5q-49 -204 -75 -339q-3 -16 0 -25q3 -8 -3 -14q-6 -8 -9 -25q-34 -204 -40 -237q-4 -22 -11 -67.5t-10 -68.5q-4 -23 -21 -113q-1 -7 -4 -13
q-4 -10 -14 -10q-10 1 -14 10q-5 11 -6 28q-1 9 6 13q9 4 11 19q7 35 23 137q11 69 32 197q4 20 10 56t8 46v9q0 5 -5 5q-6 0 -12 -1q-120 -25 -181 -38q-10 -2 -86 -19q-1 0 -3 -0.5l-4 -1t-3 -0.5q-10 -1 -17 -12q-8 -14 -24 -38.5t-20 -30.5q-51 -81 -108 -150
q-35 -43 -71 -79q-40 -39 -79 -64q-40 -25 -82 -32q-40 -6 -76 8q-52 21 -55 81q1 33 20 67q25 47 75 91q60 53 163 102q90 42 223 75q16 4 20.5 7t13.5 17q23 40 66 115.5t49 86.5q121 208 135 231q82 132 169 258q37 55 64 86q11 13 21 19q6 4 11 3zM522 448q5 8 2 11
q-1 1 -9 -1q-139 -33 -260 -100q-69 -38 -118 -90q-30 -32 -44 -62q-12 -25 -12 -50q-1 -39 36 -52q21 -8 39 -8q32 0 67 17q42 19 91 66q35 33 83 92q49 59 125 177zM1034 1219q1 6 -2 8q-4 -6 -10.5 -15.5t-12.5 -18t-11 -15.5q-81 -118 -166 -256q-6 -10 -122 -211
q-2 -2 -97 -169q-1 -2 -19 -33q14 2 15 2q8 2 34 7.5t40 8.5q62 13 181 37q15 3 18 6t6 17q25 120 28 136q9 43 82 352q7 28 20.5 83t15.5 61z" />
    <glyph glyph-name="A" unicode="&#xc0;" horiz-adv-x="978" 
d="M1080 1316q4 0 6.5 -1.5t4.5 -4.5t2 -7q0 -15 -4 -30q-2 -6 -6 -8q-8 -5 -11 -19q-36 -136 -36 -139q-9 -35 -24 -98.5t-19 -81.5q-49 -204 -75 -339q-3 -16 0 -25q3 -8 -3 -14q-6 -8 -9 -25q-34 -204 -40 -237q-4 -22 -11 -67.5t-10 -68.5q-4 -23 -21 -113q-1 -7 -4 -13
q-4 -10 -14 -10q-10 1 -14 10q-5 11 -6 28q-1 9 6 13q9 4 11 19q7 35 23 137q11 69 32 197q4 20 10 56t8 46v9q0 5 -5 5q-6 0 -12 -1q-120 -25 -181 -38q-10 -2 -86 -19q-1 0 -3 -0.5l-4 -1t-3 -0.5q-10 -1 -17 -12q-8 -14 -24 -38.5t-20 -30.5q-51 -81 -108 -150
q-35 -43 -71 -79q-40 -39 -79 -64q-40 -25 -82 -32q-40 -6 -76 8q-52 21 -55 81q1 33 20 67q25 47 75 91q60 53 163 102q90 42 223 75q16 4 20.5 7t13.5 17q23 40 66 115.5t49 86.5q121 208 135 231q82 132 169 258q37 55 64 86q11 13 21 19q6 4 11 3zM522 448q5 8 2 11
q-1 1 -9 -1q-139 -33 -260 -100q-69 -38 -118 -90q-30 -32 -44 -62q-12 -25 -12 -50q-1 -39 36 -52q21 -8 39 -8q32 0 67 17q42 19 91 66q35 33 83 92q49 59 125 177zM1034 1219q1 6 -2 8q-4 -6 -10.5 -15.5t-12.5 -18t-11 -15.5q-81 -118 -166 -256q-6 -10 -122 -211
q-2 -2 -97 -169q-1 -2 -19 -33q14 2 15 2q8 2 34 7.5t40 8.5q62 13 181 37q15 3 18 6t6 17q25 120 28 136q9 43 82 352q7 28 20.5 83t15.5 61z" />
    <glyph glyph-name="B" unicode="B" horiz-adv-x="1162" 
d="M1152 772q35 -76 26 -150q-9 -75 -32 -130t-63 -112q-37 -50 -74 -90q-27 -28 -73 -66q-125 -101 -288 -164q-66 -25 -147 -37q-49 -7 -97 -6q-124 3 -227 53q-55 26 -88 59q-52 52 -34 125q12 49 55 85q31 27 76 50q104 55 224 86q19 5 23 25q27 155 91 332
q36 99 68 163q15 28 40 67l2 4q7 9 15 5q11 -6 8 -16q-2 -6 -7 -15q-9 -14 -38.5 -72t-66.5 -165q-42 -118 -64 -216q-2 -6 -18 -86q-1 -4 -1 -7q-1 -6 6 -6q2 1 18 3q55 10 96 12q4 1 57 6h2h4q6 1 14.5 1.5t15.5 0.5t15 0.5t15.5 1t15.5 1.5q6 0 14 0.5t15.5 1t14.5 1.5
q7 0 13 -1q12 -1 15 -12q2 -10 -8 -17q-14 -10 -27 -4q-7 3 -18 2q-11 0 -27.5 -1t-31.5 -1.5t-28 -1.5q-17 -2 -49 -5t-47 -4q-31 -3 -82 -12q-15 -3 -18.5 -6t-5.5 -18q-10 -58 -27 -159q-3 -15 -5.5 -33t-6 -38.5t-5.5 -33.5q-2 -10 -6 -16q-6 -10 -15 -8q-11 1 -13 12
q-6 28 5 44q6 9 8 25q5 28 34 204q1 6 1.5 8t-1.5 3.5t-4 1.5t-7 -1q-94 -26 -175 -64q-51 -25 -81 -46q-23 -15 -39 -32q-41 -43 -32 -107q2 -19 21 -39q25 -29 63 -49q77 -42 159 -55q68 -10 120 -7q55 3 115 18q72 17 145 52q90 43 158 90q71 49 120 99q71 74 116 157
q39 72 48 149q8 69 -12 126q-17 48 -58 82q-28 24 -62 37q-73 30 -159 24q-73 -5 -144 -24l-26 -7q-7 -1 -12 0q-9 2 -12 10t3 16q4 4 13 10q41 27 74 48q82 53 146 113q57 53 85 86q36 41 51 87q6 15 6 24q0 19 -13 31q-7 6 -12 9q-32 17 -65 19q-70 4 -154 -20
q-136 -38 -280 -118q-85 -47 -162 -105q-75 -56 -126 -109q-26 -27 -47 -57q-2 -2 -14 -21q0 -1 -2 -4t-3 -5q-7 -8 -15 -4q-9 5 -8 14q1 6 7 17q22 39 53 72q55 59 141 123q82 62 181 115q116 62 237 101q70 23 127 28q55 6 91 -2q21 -4 41 -13q11 -5 20 -11q39 -27 30 -74
q-3 -16 -10 -32q-19 -46 -52 -85q-36 -41 -111 -109q-51 -46 -128 -95q-10 -7 -12 -10q4 -2 13 0q76 14 135 12q83 -3 149 -39q73 -38 101 -99z" />
    <glyph glyph-name="C" unicode="C" horiz-adv-x="862" 
d="M1044 1061q7 -44 -4 -102q-19 -104 -70 -217l-0.5 -1t-0.5 -2q-6 -11 -16 -8q-12 2 -11 16q1 4 4 11q32 79 51 149q17 60 19 110q3 45 -17 85q-11 23 -36 40q-31 20 -72 27q-39 7 -97 -5q-61 -13 -131 -54q-109 -62 -208 -160q-115 -115 -202 -272q-112 -204 -159 -449
q-14 -75 -12 -129q-2 -46 8 -94q5 -28 15 -48q17 -36 52 -55t78 -10q41 8 93 37q19 11 46 28q160 103 345 252q24 19 161 128q8 6 13 9q12 7 20 -3.5t-2 -20.5l-4 -4q-12 -7 -24 -16t-29.5 -23.5t-22.5 -18.5q-23 -18 -66.5 -52.5t-71 -56.5t-65.5 -51.5t-71 -53.5
q-98 -71 -196 -132q-38 -24 -85 -42q-40 -15 -82 -12q-21 1 -44 12q-62 29 -82 97q-14 46 -15 89q0 5 -1.5 22.5t-1.5 26.5q5 74 11 108q29 166 97 335q74 180 192 327q125 156 284 250q63 38 117 55q52 17 101 19q58 2 106 -22q73 -38 86 -119z" />
    <glyph glyph-name="C" unicode="&#xc7;" horiz-adv-x="862" 
d="M1044 1061q7 -44 -4 -102q-19 -104 -70 -217l-0.5 -1t-0.5 -2q-6 -11 -16 -8q-12 2 -11 16q1 4 4 11q32 79 51 149q17 60 19 110q3 45 -17 85q-11 23 -36 40q-31 20 -72 27q-39 7 -97 -5q-61 -13 -131 -54q-109 -62 -208 -160q-115 -115 -202 -272q-112 -204 -159 -449
q-14 -75 -12 -129q-2 -46 8 -94q5 -28 15 -48q17 -36 52 -55t78 -10q41 8 93 37q19 11 46 28q160 103 345 252q24 19 161 128q8 6 13 9q12 7 20 -3.5t-2 -20.5l-4 -4q-12 -7 -24 -16t-29.5 -23.5t-22.5 -18.5q-23 -18 -66.5 -52.5t-71 -56.5t-65.5 -51.5t-71 -53.5
q-98 -71 -196 -132q-38 -24 -85 -42q-40 -15 -82 -12q-21 1 -44 12q-62 29 -82 97q-14 46 -15 89q0 5 -1.5 22.5t-1.5 26.5q5 74 11 108q29 166 97 335q74 180 192 327q125 156 284 250q63 38 117 55q52 17 101 19q58 2 106 -22q73 -38 86 -119z" />
    <glyph glyph-name="D" unicode="D" horiz-adv-x="1173" 
d="M1230 884q4 -50 2 -71q-5 -61 -7 -72q-11 -74 -41 -150q-31 -78 -67 -137q-35 -56 -83 -113q-32 -38 -79 -82q-82 -78 -187 -136q-90 -49 -180 -78q-78 -25 -147 -34q-55 -8 -122 -4q-35 3 -78 14q-72 19 -127 70q-65 60 -64 149q0 39 24 86q23 43 69 79q61 47 143 78
q35 14 81 27l11 3q11 2 13 13q1 2 2.5 9t2.5 11q38 148 62 229q32 104 77 197q6 11 13 23q3 4 7 9q7 5 14 1q9 -5 6 -15q-1 -4 -3 -8q-17 -32 -53 -121q-23 -57 -50 -154q-4 -15 -43 -161q-1 -6 -2 -10q-2 -8 -0.5 -9.5t9.5 -0.5q68 15 118 23q25 4 84 12q35 5 64 8
q6 1 22 2q7 0 13 -4q11 -7 6 -19q-7 -13 -25 -20q-7 -3 -12 3q-7 9 -23 7q-120 -17 -146 -21q-9 -2 -95 -19q-1 0 -5 -1.5t-6 -1.5q-15 -2 -19 -19q-2 -13 -8.5 -43t-9.5 -46q-9 -45 -33 -177q-1 -5 -5 -33q-1 -7 -4 -11q-5 -7 -12.5 -6.5t-11.5 7.5q-3 5 -3 9q-1 10 0 27
q0 5 1 7q5 6 7 12.5t4 20t3 14.5q34 183 40 207q1 4 1 5q1 7 -1.5 9.5t-8.5 0.5q-6 -1 -12 -3q-61 -19 -95 -34q-74 -35 -120 -77q-52 -47 -60 -111q-10 -76 44 -132q50 -54 124 -73q49 -13 105 -14q83 -2 182 25q182 49 333 163q29 23 65 55q67 63 120 135q48 65 82 141
q27 60 41 107q16 51 23 109l3 51q3 77 -31 174q-41 116 -151 200q-46 35 -114 55q-60 18 -130 25q-17 2 -83 3h-7h-7h-7h-7q-58 0 -128 -15q-91 -19 -173 -54q-68 -29 -128 -72q-43 -32 -72 -57q-20 -17 -32 -34q-5 -7 -8 -9q-5 -4 -11 -1.5t-7 9.5t4 16q7 12 19 25
q17 18 43 39q57 45 106 73q51 31 126 58q82 29 164 43q49 8 84 8q5 0 14 0.5t12 0.5q16 1 20 1q7 -1 16 -1.5t18.5 -0.5t16.5 -1q114 -7 200 -40q95 -37 163 -117q26 -31 42 -54q35 -52 58 -133q14 -47 17 -78z" />
    <glyph glyph-name="E" unicode="E" horiz-adv-x="809" 
d="M884 893q0 3 5 13q34 75 13 148q-17 62 -73 89q-57 29 -121 19q-103 -14 -176 -91q-57 -60 -67 -136q-5 -42 14 -80q19 -37 47 -58q8 -6 24.5 -18t24.5 -18q11 -9 16 -14q7 -8 5 -16.5t-12 -13.5q-8 -4 -27 -6q-34 -3 -75 -15q-67 -20 -107 -40q-55 -27 -109 -74
q-110 -95 -158 -253q-14 -43 -20 -80q-5 -33 -6 -53v-10.5t-0.5 -11.5t-1.5 -10v-12q2 -30 3 -40q6 -73 24 -116q41 -96 144 -113q46 -7 98 -2q101 9 182 61q128 82 216 201q68 91 117 195q7 15 3 23q-2 6 4 13q6 9 16 14q9 4 16 -2q9 -6 7 -16q-1 -4 -4 -10
q-66 -156 -167 -276q-96 -114 -225 -186q-45 -25 -118 -41q-50 -10 -122 -6q-91 5 -150 65q-34 35 -50 83q-15 44 -20 97q-4 40 -4 58q0 74 17 140q22 91 59 160q47 88 129 158q91 78 221 114q32 9 64 14q5 1 6 3q-1 3 -13 11q-30 21 -48 40q-40 44 -49 97q-7 49 12 100
q36 99 126 153q58 35 111 45q71 14 133 -8q91 -33 115 -125q19 -72 -10 -145q-7 -16 -16 -29q-7 -10 -17 -5q-10 6 -6 16z" />
    <glyph glyph-name="E" unicode="&#xcb;" horiz-adv-x="809" 
d="M884 893q0 3 5 13q34 75 13 148q-17 62 -73 89q-57 29 -121 19q-103 -14 -176 -91q-57 -60 -67 -136q-5 -42 14 -80q19 -37 47 -58q8 -6 24.5 -18t24.5 -18q11 -9 16 -14q7 -8 5 -16.5t-12 -13.5q-8 -4 -27 -6q-34 -3 -75 -15q-67 -20 -107 -40q-55 -27 -109 -74
q-110 -95 -158 -253q-14 -43 -20 -80q-5 -33 -6 -53v-10.5t-0.5 -11.5t-1.5 -10v-12q2 -30 3 -40q6 -73 24 -116q41 -96 144 -113q46 -7 98 -2q101 9 182 61q128 82 216 201q68 91 117 195q7 15 3 23q-2 6 4 13q6 9 16 14q9 4 16 -2q9 -6 7 -16q-1 -4 -4 -10
q-66 -156 -167 -276q-96 -114 -225 -186q-45 -25 -118 -41q-50 -10 -122 -6q-91 5 -150 65q-34 35 -50 83q-15 44 -20 97q-4 40 -4 58q0 74 17 140q22 91 59 160q47 88 129 158q91 78 221 114q32 9 64 14q5 1 6 3q-1 3 -13 11q-30 21 -48 40q-40 44 -49 97q-7 49 12 100
q36 99 126 153q58 35 111 45q71 14 133 -8q91 -33 115 -125q19 -72 -10 -145q-7 -16 -16 -29q-7 -10 -17 -5q-10 6 -6 16z" />
    <glyph glyph-name="E" unicode="&#xca;" horiz-adv-x="809" 
d="M884 893q0 3 5 13q34 75 13 148q-17 62 -73 89q-57 29 -121 19q-103 -14 -176 -91q-57 -60 -67 -136q-5 -42 14 -80q19 -37 47 -58q8 -6 24.5 -18t24.5 -18q11 -9 16 -14q7 -8 5 -16.5t-12 -13.5q-8 -4 -27 -6q-34 -3 -75 -15q-67 -20 -107 -40q-55 -27 -109 -74
q-110 -95 -158 -253q-14 -43 -20 -80q-5 -33 -6 -53v-10.5t-0.5 -11.5t-1.5 -10v-12q2 -30 3 -40q6 -73 24 -116q41 -96 144 -113q46 -7 98 -2q101 9 182 61q128 82 216 201q68 91 117 195q7 15 3 23q-2 6 4 13q6 9 16 14q9 4 16 -2q9 -6 7 -16q-1 -4 -4 -10
q-66 -156 -167 -276q-96 -114 -225 -186q-45 -25 -118 -41q-50 -10 -122 -6q-91 5 -150 65q-34 35 -50 83q-15 44 -20 97q-4 40 -4 58q0 74 17 140q22 91 59 160q47 88 129 158q91 78 221 114q32 9 64 14q5 1 6 3q-1 3 -13 11q-30 21 -48 40q-40 44 -49 97q-7 49 12 100
q36 99 126 153q58 35 111 45q71 14 133 -8q91 -33 115 -125q19 -72 -10 -145q-7 -16 -16 -29q-7 -10 -17 -5q-10 6 -6 16z" />
    <glyph glyph-name="E" unicode="&#xc9;" horiz-adv-x="809" 
d="M884 893q0 3 5 13q34 75 13 148q-17 62 -73 89q-57 29 -121 19q-103 -14 -176 -91q-57 -60 -67 -136q-5 -42 14 -80q19 -37 47 -58q8 -6 24.5 -18t24.5 -18q11 -9 16 -14q7 -8 5 -16.5t-12 -13.5q-8 -4 -27 -6q-34 -3 -75 -15q-67 -20 -107 -40q-55 -27 -109 -74
q-110 -95 -158 -253q-14 -43 -20 -80q-5 -33 -6 -53v-10.5t-0.5 -11.5t-1.5 -10v-12q2 -30 3 -40q6 -73 24 -116q41 -96 144 -113q46 -7 98 -2q101 9 182 61q128 82 216 201q68 91 117 195q7 15 3 23q-2 6 4 13q6 9 16 14q9 4 16 -2q9 -6 7 -16q-1 -4 -4 -10
q-66 -156 -167 -276q-96 -114 -225 -186q-45 -25 -118 -41q-50 -10 -122 -6q-91 5 -150 65q-34 35 -50 83q-15 44 -20 97q-4 40 -4 58q0 74 17 140q22 91 59 160q47 88 129 158q91 78 221 114q32 9 64 14q5 1 6 3q-1 3 -13 11q-30 21 -48 40q-40 44 -49 97q-7 49 12 100
q36 99 126 153q58 35 111 45q71 14 133 -8q91 -33 115 -125q19 -72 -10 -145q-7 -16 -16 -29q-7 -10 -17 -5q-10 6 -6 16z" />
    <glyph glyph-name="E" unicode="&#xc8;" horiz-adv-x="809" 
d="M884 893q0 3 5 13q34 75 13 148q-17 62 -73 89q-57 29 -121 19q-103 -14 -176 -91q-57 -60 -67 -136q-5 -42 14 -80q19 -37 47 -58q8 -6 24.5 -18t24.5 -18q11 -9 16 -14q7 -8 5 -16.5t-12 -13.5q-8 -4 -27 -6q-34 -3 -75 -15q-67 -20 -107 -40q-55 -27 -109 -74
q-110 -95 -158 -253q-14 -43 -20 -80q-5 -33 -6 -53v-10.5t-0.5 -11.5t-1.5 -10v-12q2 -30 3 -40q6 -73 24 -116q41 -96 144 -113q46 -7 98 -2q101 9 182 61q128 82 216 201q68 91 117 195q7 15 3 23q-2 6 4 13q6 9 16 14q9 4 16 -2q9 -6 7 -16q-1 -4 -4 -10
q-66 -156 -167 -276q-96 -114 -225 -186q-45 -25 -118 -41q-50 -10 -122 -6q-91 5 -150 65q-34 35 -50 83q-15 44 -20 97q-4 40 -4 58q0 74 17 140q22 91 59 160q47 88 129 158q91 78 221 114q32 9 64 14q5 1 6 3q-1 3 -13 11q-30 21 -48 40q-40 44 -49 97q-7 49 12 100
q36 99 126 153q58 35 111 45q71 14 133 -8q91 -33 115 -125q19 -72 -10 -145q-7 -16 -16 -29q-7 -10 -17 -5q-10 6 -6 16z" />
    <glyph glyph-name="F" unicode="F" horiz-adv-x="498" 
d="M1201 1290q1 -9 -7 -13t-29 -13q-8 -3 -14 2q-7 6 -21 6h-22.5t-26.5 -0.5t-22 -2.5h-6q-119 -4 -130 -5q-6 0 -92 -6h-5q-88 -4 -95 -5q-5 0 -78 -5q-4 -1 -7 -1q-13 -1 -40 -2t-40 -2q-6 0 -7 -1q-14 -1 -19 -13q-4 -10 -13 -30t-14 -31q-38 -91 -86 -226
q-52 -143 -100 -307q-3 -10 -4.5 -17t5.5 -7h29q15 2 37 3q23 0 65.5 2t60.5 2q88 3 91 3q11 0 19 4q16 7 21 -6q7 -17 -8 -25q-6 -3 -19 -3q-53 -1 -55 -1q-20 -1 -58.5 -2t-55.5 -2q-10 0 -33.5 -1t-36.5 -2q-45 -3 -62 -3q-12 0 -15 -12q-2 -8 -7 -25.5t-8 -26.5
q-59 -218 -103 -417q-2 -8 -16 -85q-2 -14 -5 -19q-5 -9 -14 -9q-10 0 -15 9q-2 6 -3 10q0 7 -2.5 26t-1.5 29l6 66q10 104 9 137q-1 70 -29 136q-15 36 -36 76q-15 25 -25 45q-18 37 20 55q15 7 44 13q44 9 83 12q10 1 34 3.5t37 3.5q11 0 14 12q3 9 6 18.5t6.5 21.5
t5.5 18q42 144 95 290q36 99 65 173l30 69q5 13 8 20q1 3 -1 5t-5 2q-19 0 -28 -1q-58 -6 -85 -10q-153 -21 -224 -42q-25 -8 -72 -26q-17 -7 -18 -8q-6 -2 -10 -1q-9 0 -12 9q-3 7 3 13q4 3 9 6q85 41 184 58q89 16 146 22q70 9 100 11q2 0 9 1t10 1q15 1 23 11q11 16 25 0
q7 -7 17 -6q19 1 21 1t5.5 0.5t5.5 0.5q8 1 37 2.5t45 2.5q7 0 82 6h2h3q95 4 98 4q9 1 101 6h2.5t2.5 1q107 3 127 4q49 2 55 2q6 1 18 1q5 0 10 -2q8 -4 9 -13zM275 568q2 8 -7 8q-2 0 -4 -1q-84 -8 -93 -10q-41 -5 -68 -13q-9 -3 -15 -6t-4 -9q3 -7 6 -11q19 -36 30 -57
q23 -42 40 -89q18 -54 18 -107v-25v-25v-6.5v-6.5v-7.5v-7.5q3 3 5.5 14t13.5 55.5t17 68.5q21 87 59 224q2 8 2 11z" />
    <glyph glyph-name="G" unicode="G" horiz-adv-x="1003" 
d="M1001 1123q3 -82 -10 -144q-1 -2 -1 -5t-0.5 -6t-0.5 -5q-2 -7 -4 -11q-3 -7 -11 -8q-10 0 -13 9q-2 6 -2 11t2 16q8 61 9 115q1 52 -19 109q-10 30 -21 47q-18 29 -47 49q-26 17 -58 18q-48 2 -95 -14q-90 -29 -166 -84q-60 -44 -108 -93q-51 -52 -100 -117
q-84 -112 -151 -257q-72 -158 -111 -357q-12 -60 -10 -111q-2 -61 12 -109q8 -30 22 -55q32 -61 101 -77q39 -9 83 2q61 16 118 48q73 40 158 111q56 47 105 96q77 76 153 171q27 34 48 61q4 5 8 11q1 2 0 4t-3 1q-6 0 -9 -1q-82 -19 -312 -67q-16 -3 -79 -12q-7 -1 -14 1
q-10 3 -11 12.5t8 12.5q7 4 14 5q28 4 60.5 10t57.5 11t60.5 12.5t58.5 12.5q61 12 179 40q2 0 6 1t5 2q6 1 8 6q4 12 22 14q9 2 20 -2q12 -3 14.5 -13.5t-6.5 -19.5q-1 -2 -2 -2q-9 -4 -16 -22q-16 -47 -29 -104q-19 -87 -25 -125q-7 -50 -13 -97q-3 -24 -14 -129
q-1 -9 -5 -46q-1 -14 -5 -22q-4 -9 -13 -10.5t-16 6.5q-2 3 -7 13q-8 15 4 24q7 5 9 22q1 8 2.5 23.5t1.5 16.5q11 107 13 118q11 100 34 197q1 5 5 22.5t6 26.5q1 5 1 7q1 4 -2 5q-2 0 -3 -1q-3 -2 -5 -6q-47 -58 -91 -110q-76 -87 -162 -165q-59 -53 -111 -90
q-83 -61 -159 -91q-45 -18 -81 -24q-57 -10 -113 14t-86 81q-16 29 -23 57q-20 71 -15 150q3 50 14 105q34 166 88 296q76 184 187 328q64 82 131 143q86 78 172 119q57 26 108 39q39 9 85 6q43 -3 80 -34q37 -30 55 -74q20 -46 28 -98q2 -8 2 -20z" />
    <glyph glyph-name="H" unicode="H" horiz-adv-x="844" 
d="M1059 1320q11 -4 10 -15q-1 -5 -4 -14q-71 -204 -141 -401q-15 -44 -43.5 -125t-36.5 -105q-4 -10 -5 -16q-2 -6 5 -6h39q6 0 15 0.5t17.5 1t15.5 1.5q13 2 20 5q7 4 17.5 1t15.5 -10q8 -12 -4 -20q-6 -5 -15 -5q-8 0 -35 -2t-41 -1q-5 0 -53 -3q-12 -1 -16 -12
q-1 -4 -25 -73q-14 -40 -34 -96.5t-34.5 -98.5t-33 -95t-34.5 -97q-7 -21 -44 -125l-5 -15q-3 -6 -6 -9q-7 -6 -15 -3q-10 4 -9 14q1 6 4 15q14 41 33 95q10 27 22 61.5t24.5 70t21.5 62.5q46 132 99 281q3 9 4 16q2 7 -5 7q-11 1 -16 0q-5 0 -65 -3q-104 -3 -113 -4
q-9 0 -34 -1t-38 -2q-12 -1 -28 -1.5t-31 -1.5t-28 -3h-9q-8 0 -103 -7q-13 -1 -17 -13q-3 -11 -9 -31l-9 -30q-54 -192 -102 -351q-3 -9 -12.5 -41t-14.5 -49q-3 -8 -8 -27q-3 -12 -7 -18q-7 -12 -18 -7q-11 4 -9 17q1 4 4 14q37 123 44 149q28 89 88 300q17 57 19 66
q3 11 0.5 14t-13.5 2q-15 -1 -104 -7q-34 -2 -74 -2q-11 0 -17 2q-9 4 -9 12t9 12q3 1 8 2q2 0 9 1q95 4 102 4q10 1 22 2t25.5 2t21.5 2q9 1 25 1q9 1 11 9q3 7 4 14q128 460 139 500q6 20 57 197q2 8 4 12q5 10 14 8q11 -2 12 -12q1 -11 1 -24q0 -5 -4 -8q-4 -5 -9 -21
q-15 -51 -73 -260q-16 -58 -34 -123.5t-40 -144t-34 -122.5q0 -1 -1 -3.5t-1.5 -4t-0.5 -2.5q-2 -7 0 -9t8 -2q41 4 90 7q6 0 87 5l2 0.5t3 0.5q111 4 116 4q60 3 117 4q6 1 23 2t26 1q14 0 18 13q6 16 12.5 34.5t14.5 41t12 34.5q92 261 137 392q9 26 26 74t20 58
q5 14 9 23q2 6 4 10q7 9 17 5z" />
    <glyph glyph-name="I" unicode="I" horiz-adv-x="543" 
d="M656 1235v-21q1 -27 -8 -90q-13 -98 -58 -259q-36 -133 -64 -223q-26 -85 -66 -204q-6 -17 -19.5 -56.5t-20.5 -60.5q-60 -175 -110 -297q-3 -8 -14 -31q-3 -7 -8 -11q-10 -6 -18.5 0.5t-5.5 17.5q1 2 2 3q7 9 24 53q49 122 109 301q69 203 78 232q36 108 76 254
q29 108 34 130q24 95 36 190q2 21 3 44q2 28 -6 60q-3 14 -11 26q-20 28 -54 23q-22 -3 -49 -14q-76 -31 -151 -84q-73 -51 -159 -127q-44 -38 -84 -77q-5 -5 -31 -28q-8 -6 -14 -7q-11 -2 -15 6q-4 7 1 15l5 5q62 59 71 67q106 98 208 171q79 55 163 89q28 11 52 14
q26 4 48.5 -7t36.5 -33q16 -28 19 -71z" />
    <glyph glyph-name="I" unicode="&#xcf;" horiz-adv-x="543" 
d="M656 1235v-21q1 -27 -8 -90q-13 -98 -58 -259q-36 -133 -64 -223q-26 -85 -66 -204q-6 -17 -19.5 -56.5t-20.5 -60.5q-60 -175 -110 -297q-3 -8 -14 -31q-3 -7 -8 -11q-10 -6 -18.5 0.5t-5.5 17.5q1 2 2 3q7 9 24 53q49 122 109 301q69 203 78 232q36 108 76 254
q29 108 34 130q24 95 36 190q2 21 3 44q2 28 -6 60q-3 14 -11 26q-20 28 -54 23q-22 -3 -49 -14q-76 -31 -151 -84q-73 -51 -159 -127q-44 -38 -84 -77q-5 -5 -31 -28q-8 -6 -14 -7q-11 -2 -15 6q-4 7 1 15l5 5q62 59 71 67q106 98 208 171q79 55 163 89q28 11 52 14
q26 4 48.5 -7t36.5 -33q16 -28 19 -71z" />
    <glyph glyph-name="I" unicode="&#xce;" horiz-adv-x="543" 
d="M656 1235v-21q1 -27 -8 -90q-13 -98 -58 -259q-36 -133 -64 -223q-26 -85 -66 -204q-6 -17 -19.5 -56.5t-20.5 -60.5q-60 -175 -110 -297q-3 -8 -14 -31q-3 -7 -8 -11q-10 -6 -18.5 0.5t-5.5 17.5q1 2 2 3q7 9 24 53q49 122 109 301q69 203 78 232q36 108 76 254
q29 108 34 130q24 95 36 190q2 21 3 44q2 28 -6 60q-3 14 -11 26q-20 28 -54 23q-22 -3 -49 -14q-76 -31 -151 -84q-73 -51 -159 -127q-44 -38 -84 -77q-5 -5 -31 -28q-8 -6 -14 -7q-11 -2 -15 6q-4 7 1 15l5 5q62 59 71 67q106 98 208 171q79 55 163 89q28 11 52 14
q26 4 48.5 -7t36.5 -33q16 -28 19 -71z" />
    <glyph glyph-name="I" unicode="&#xcd;" horiz-adv-x="543" 
d="M656 1235v-21q1 -27 -8 -90q-13 -98 -58 -259q-36 -133 -64 -223q-26 -85 -66 -204q-6 -17 -19.5 -56.5t-20.5 -60.5q-60 -175 -110 -297q-3 -8 -14 -31q-3 -7 -8 -11q-10 -6 -18.5 0.5t-5.5 17.5q1 2 2 3q7 9 24 53q49 122 109 301q69 203 78 232q36 108 76 254
q29 108 34 130q24 95 36 190q2 21 3 44q2 28 -6 60q-3 14 -11 26q-20 28 -54 23q-22 -3 -49 -14q-76 -31 -151 -84q-73 -51 -159 -127q-44 -38 -84 -77q-5 -5 -31 -28q-8 -6 -14 -7q-11 -2 -15 6q-4 7 1 15l5 5q62 59 71 67q106 98 208 171q79 55 163 89q28 11 52 14
q26 4 48.5 -7t36.5 -33q16 -28 19 -71z" />
    <glyph glyph-name="I" unicode="&#xcc;" horiz-adv-x="543" 
d="M656 1235v-21q1 -27 -8 -90q-13 -98 -58 -259q-36 -133 -64 -223q-26 -85 -66 -204q-6 -17 -19.5 -56.5t-20.5 -60.5q-60 -175 -110 -297q-3 -8 -14 -31q-3 -7 -8 -11q-10 -6 -18.5 0.5t-5.5 17.5q1 2 2 3q7 9 24 53q49 122 109 301q69 203 78 232q36 108 76 254
q29 108 34 130q24 95 36 190q2 21 3 44q2 28 -6 60q-3 14 -11 26q-20 28 -54 23q-22 -3 -49 -14q-76 -31 -151 -84q-73 -51 -159 -127q-44 -38 -84 -77q-5 -5 -31 -28q-8 -6 -14 -7q-11 -2 -15 6q-4 7 1 15l5 5q62 59 71 67q106 98 208 171q79 55 163 89q28 11 52 14
q26 4 48.5 -7t36.5 -33q16 -28 19 -71z" />
    <glyph glyph-name="J" unicode="J" horiz-adv-x="1035" 
d="M1175 1177v-33t-1 -33q-2 -50 -15 -113q-16 -81 -48 -190q0 -1 -1 -4t-2 -4q-2 -8 -1 -9.5t8 -6.5q16 -11 7 -25q-6 -9 -17 -7q-1 1 -2 1t-1 1q-8 1 -10 -6q-1 -1 -3 -8q-24 -68 -64 -151q-49 -101 -94 -176q-62 -103 -122 -169q-103 -117 -205 -176q-39 -23 -79.5 -39
t-82.5 -24q-49 -9 -86 -7q-84 3 -135 22q-78 30 -120 88q-68 93 -46 203q19 90 79 166q36 44 104 99q66 54 144 94q70 37 159 64q69 22 168 41q54 11 98 16q50 6 95 5h27v-1q37 0 39 1q26 0 95 -6q8 0 10 1.5t5 8.5q16 54 24 83q21 77 32 137q15 88 11 163q-3 52 -21 87
q-6 10 -11 17q-21 27 -60 24q-45 -4 -109 -35q-63 -31 -136 -83q-90 -64 -164 -128q-11 -10 -53 -49q-12 -10 -14 -18q-1 -2 -3 -4q-9 -9 -19 -3t-5 18q3 7 11 16q29 31 55 54q79 69 181 142q78 55 152 89q43 20 77 26q30 6 50 3q41 -6 64 -40q15 -22 24 -52q11 -37 11 -70z
M1062 755q1 4 -3 5.5t-6 2.5q-51 3 -61 3h-63v1h-39q-43 0 -106 -8q-40 -6 -107 -20q-112 -23 -200 -58q-172 -67 -300 -199q-66 -69 -89 -161q-13 -49 -7 -89q20 -126 136 -179q51 -23 151 -27q2 0 3.5 0.5t3.5 0.5h3q15 2 17 2q18 0 45 6q88 18 167 69q95 60 184 163
q55 62 111 154q61 100 122 236q18 40 34 85q3 7 4 13z" />
    <glyph glyph-name="K" unicode="K" horiz-adv-x="777" 
d="M1165 1370q7 -5 5 -13t-6 -18q-2 -6 -9 -7q-7 -2 -15 -13q-6 -9 -17.5 -25.5t-17.5 -24.5q-70 -103 -113 -158q-113 -147 -167 -212q-87 -107 -194 -206q-65 -60 -127 -107q-104 -78 -202 -113q-5 -2 -9 -4t-1 -4q3 -3 8 -6q63 -40 120 -87q34 -28 62 -54
q46 -42 178 -157q13 -12 37.5 -33t35.5 -30q9 -8 15 -14.5t2 -14.5q-4 -6 -13 -7q-8 0 -16 8q-10 8 -27.5 23.5t-25.5 21.5q-109 95 -124 108q-30 26 -80 73q-86 78 -166 129q-7 5 -22 14t-19 12q-9 6 -20 3q-28 -7 -43 -8q-13 -1 -16 -15q-3 -12 -9 -36.5t-9 -35.5
q-39 -159 -67 -285q0 -1 -3.5 -20.5t-7.5 -29.5t-4 -11q-5 -8 -14 -8q-10 1 -13 12q-2 6 0 12q9 27 20.5 80t13.5 63q6 23 59 246q1 4 1 5q4 14 2 17t-18 5q-22 3 -38 11q-11 5 -17 12q-9 11 -8 23.5t12 22.5q7 7 17 10q17 5 35 4q27 -4 30 -4q10 -2 13 7q0 1 3 10
q87 328 94 355q75 273 97 343q8 27 9 34q2 9 8 18q8 11 18 6.5t8 -16.5q-1 -4 -4 -14q-37 -125 -39 -129q-40 -145 -71 -259q-17 -62 -48 -179t-45 -169q-3 -15 -1 -18t13 -8q13 -6 26 -13q11 -5 21 -1q4 1 10.5 3t9.5 3q72 24 140 68q63 40 135 102q54 46 101 92
q79 77 151 166q108 132 193 248q7 9 88 125q5 7 14 19.5t12 18.5q9 13 24 27q4 4 9 7q8 5 16 0zM160 482q3 11 -8 14q-2 0 -26 4q-9 0 -17 -3q-11 -3 -11 -8t9 -9q13 -5 42 -8q8 -1 11 10zM199 477q1 2 -2 4t-5 -1q-1 -1 -1 -2q1 -3 5 -3z" />
    <glyph glyph-name="L" unicode="L" horiz-adv-x="578" 
d="M927 1280q2 -31 -12 -61q-17 -36 -30 -59q-23 -43 -53 -83q-53 -72 -91 -114q-27 -30 -61 -61q-62 -57 -122 -105q-62 -49 -153 -104q-42 -25 -79 -45q-44 -25 -97 -45q0 -1 -5.5 -3t-8.5 -3q-9 -3 -12 -12l-1 -2l-1 -2q-57 -140 -87 -249q-24 -89 -34 -183q-4 -40 2 -69
q6 -22 21 -35t38 -14q21 -1 45 6q36 10 90 41q48 27 101 73q107 94 168 153q8 8 96 91q6 6 9 8q9 6 17 -1.5t2 -17.5q-3 -6 -9 -11q-13 -13 -72 -68l-24 -23q-44 -42 -121 -111q-64 -57 -96 -81q-60 -44 -122 -70q-29 -12 -55 -16q-32 -5 -57 3q-41 14 -55 53q-8 21 -8 40
v25q-1 32 12 106q20 121 79 278q2 5 22 57q1 1 2 4t1 4q3 9 -5 11q-1 0 -4 0.5t-4 1.5q-9 3 -10.5 10.5t5.5 13.5q8 7 17 5q4 -1 5 -1q12 -2 17 8q10 21 13 28q32 71 80 159q41 72 78 127q58 86 120 154q40 45 74 76q79 74 162 123q51 31 98 41q25 6 43 5q14 0 27 -3
q41 -11 45 -53zM897 1257q3 16 -1 29q-5 14 -19 18q-12 4 -25 3q-11 0 -22 -2q-45 -7 -91 -34q-39 -21 -81 -53q-83 -62 -165 -153.5t-152 -209.5q-56 -91 -110 -206q-4 -7 -4 -9q-2 -3 0 -5q2 -1 5 0q36 14 61 28q19 10 90 51q132 75 272 204q76 70 156 180q47 65 76 129
q7 15 10 30z" />
    <glyph glyph-name="M" unicode="M" horiz-adv-x="1405" 
d="M1597 1297q10 -31 6 -71q-6 -56 -30 -137q-28 -96 -86 -235q-24 -58 -68 -164t-60 -143q-100 -240 -104 -251q-6 -14 -86 -192q-26 -59 -36 -80q-4 -9 -8 -15q-7 -9 -17 -7q-11 3 -13 13q-4 30 13 41q5 3 10 15q7 15 18.5 41t21.5 47.5t18 40.5q63 142 86 197
q65 159 142 345q8 19 20.5 48t23.5 56t20 49q62 152 87 253q17 66 14 112q-1 16 -2 22q-5 21 -28 21q-14 0 -25 -7q-30 -18 -44 -27q-71 -47 -173 -137q-79 -69 -172 -166q-57 -59 -137 -149q-60 -69 -190 -230q-9 -13 -58 -78q-1 -2 -2.5 -3.5t-2 -3t-1.5 -3.5t-2 -3
q-5 -9 -6 -10q-9 -11 -21 -5q-10 4 -11 16q0 15 8 23q7 8 12 24q66 196 97 306q33 117 47 193q16 84 14 135q0 18 -3 27q-7 17 -24 10q-13 -5 -29 -18q-31 -25 -65 -62q-81 -88 -183 -228q-16 -22 -72.5 -100t-86.5 -120q-137 -190 -227 -341q-28 -46 -92 -176l-3 -9t-3 -7
q-3 -9 -4 -11q-6 -9 -16 -7q-12 1 -14 14q0 4 2 13q127 471 151 554q47 161 72 234q24 71 46 113q6 12 11 20q10 13 22 7q13 -6 6 -23q-2 -5 -3 -7q-7 -8 -19 -37q-26 -62 -61 -174q-38 -123 -109 -382q-3 -12 -35 -129q0 -1 -1 -8h1t1 -1q36 61 38 64q63 103 136 207
q109 157 277 384q79 106 160 191q26 28 58 52q16 12 33 19q22 8 39.5 0t24.5 -30q4 -12 5 -32q2 -62 -14 -147q-20 -109 -72 -279q-8 -25 -23.5 -73t-17 -53t-3.5 -15l2 -2h1h1q5 5 6 7q89 109 91 111q59 72 106 126q109 123 210 220q106 102 201 174q39 30 86 60
q30 19 55 22q16 2 29.5 -3.5t21.5 -14.5t12 -21z" />
    <glyph glyph-name="N" unicode="N" horiz-adv-x="929" 
d="M1086 1264q2 -24 -1 -47q-6 -58 -30 -142q-24 -82 -83 -260q-21 -65 -61 -187.5t-58 -177.5q-40 -121 -103 -288q-9 -22 -26 -66t-25 -66l-6 -15q-8 -13 -21 -8q-14 6 -8 22q2 5 4 8q4 7 9 21q77 201 78 204q40 106 94 272q10 30 59.5 182t76.5 234q35 107 53 178
q14 54 19 108q2 20 -4 43t-30 20q-11 -1 -25 -7q-30 -14 -68 -47q-61 -51 -115 -110q-65 -69 -82 -89q-74 -86 -91 -106q-64 -78 -143 -175q-68 -83 -146 -192q-88 -122 -118 -165q-77 -112 -128 -201q-17 -29 -26 -52q-2 -6 -4 -9q-7 -10 -17 -6q-11 4 -10 15q1 5 4 15
q7 20 18.5 56t21 66t18.5 56q6 21 13.5 44.5t14.5 46t13.5 43.5t14 46t13.5 44q41 131 86 261q34 98 58 154q21 50 37 80q3 7 18 30q4 7 9 10q7 4 13.5 0.5t7.5 -10.5q1 -5 0 -11q-1 -4 -6 -20q-2 -7 -7 -9q-9 -5 -17 -20q-26 -54 -52 -123q-50 -136 -113 -335
q-2 -8 -70 -227q-2 -5 -5 -14.5t-4 -14.5q-2 -4 0 -6q2 0 6 5q64 100 180 261q66 90 99 133q54 69 136 168q31 37 94 113q45 53 102 116q59 64 121 123q54 51 97 75q25 15 49 18q11 2 21 -0.5t17.5 -7.5t13 -12t8.5 -16q5 -13 6 -29z" />
    <glyph glyph-name="N" unicode="&#xd1;" horiz-adv-x="929" 
d="M1086 1264q2 -24 -1 -47q-6 -58 -30 -142q-24 -82 -83 -260q-21 -65 -61 -187.5t-58 -177.5q-40 -121 -103 -288q-9 -22 -26 -66t-25 -66l-6 -15q-8 -13 -21 -8q-14 6 -8 22q2 5 4 8q4 7 9 21q77 201 78 204q40 106 94 272q10 30 59.5 182t76.5 234q35 107 53 178
q14 54 19 108q2 20 -4 43t-30 20q-11 -1 -25 -7q-30 -14 -68 -47q-61 -51 -115 -110q-65 -69 -82 -89q-74 -86 -91 -106q-64 -78 -143 -175q-68 -83 -146 -192q-88 -122 -118 -165q-77 -112 -128 -201q-17 -29 -26 -52q-2 -6 -4 -9q-7 -10 -17 -6q-11 4 -10 15q1 5 4 15
q7 20 18.5 56t21 66t18.5 56q6 21 13.5 44.5t14.5 46t13.5 43.5t14 46t13.5 44q41 131 86 261q34 98 58 154q21 50 37 80q3 7 18 30q4 7 9 10q7 4 13.5 0.5t7.5 -10.5q1 -5 0 -11q-1 -4 -6 -20q-2 -7 -7 -9q-9 -5 -17 -20q-26 -54 -52 -123q-50 -136 -113 -335
q-2 -8 -70 -227q-2 -5 -5 -14.5t-4 -14.5q-2 -4 0 -6q2 0 6 5q64 100 180 261q66 90 99 133q54 69 136 168q31 37 94 113q45 53 102 116q59 64 121 123q54 51 97 75q25 15 49 18q11 2 21 -0.5t17.5 -7.5t13 -12t8.5 -16q5 -13 6 -29z" />
    <glyph glyph-name="O" unicode="O" horiz-adv-x="824" 
d="M950 989q0 -1 2 -14v-89q-2 -12 -2 -13q-1 -75 -34 -178q-22 -66 -57 -140q-61 -129 -148 -243q-52 -67 -101 -113q-82 -77 -173 -122q-55 -28 -104 -36q-69 -13 -123 8q-97 39 -135 130q-19 44 -23 93q-7 79 17 175q30 120 92 227q15 26 3 51q-15 35 -16 86
q-1 69 20 140q15 51 34 94q26 61 69 116q57 75 135 118q78 45 161 53q52 4 105 -10q83 -22 143 -67q26 -20 49 -49q60 -76 82 -184q4 -20 4 -33zM920 869q6 70 0 119q-14 109 -76 194q-16 22 -33 37q-58 49 -147 74q-60 16 -122 4q-92 -17 -168 -75q-89 -69 -140 -180
q-45 -97 -54 -187q-5 -55 7 -101q4 -13 7 -17q3 2 11 14q49 77 111 137q8 6 13 10t11 5q8 3 13.5 -2.5t3.5 -14.5q-3 -11 -11.5 -14.5t-19.5 -15.5q-46 -51 -61 -72q-20 -26 -49 -74q-8 -13 -1 -25q2 -4 5 -11t5 -10q28 -51 44 -72q16 -20 38 -31q9 -5 12 -7q5 -2 7 -5
q5 -6 2.5 -12.5t-9.5 -8.5q-6 -1 -16 2q-28 10 -48 32q-22 24 -47 70q-9 16 -15 26q-3 4 -6 0q-2 -2 -5 -9q-53 -97 -80 -198q-23 -85 -20 -162q1 -49 18 -92q36 -91 131 -123q31 -10 64 -8q59 5 113 31q94 44 176 120q69 63 140 165q65 93 115 202q38 82 61 167
q14 50 20 118z" />
    <glyph glyph-name="O" unicode="&#xd8;" horiz-adv-x="824" 
d="M950 989q0 -1 2 -14v-89q-2 -12 -2 -13q-1 -75 -34 -178q-22 -66 -57 -140q-61 -129 -148 -243q-52 -67 -101 -113q-82 -77 -173 -122q-55 -28 -104 -36q-69 -13 -123 8q-97 39 -135 130q-19 44 -23 93q-7 79 17 175q30 120 92 227q15 26 3 51q-15 35 -16 86
q-1 69 20 140q15 51 34 94q26 61 69 116q57 75 135 118q78 45 161 53q52 4 105 -10q83 -22 143 -67q26 -20 49 -49q60 -76 82 -184q4 -20 4 -33zM920 869q6 70 0 119q-14 109 -76 194q-16 22 -33 37q-58 49 -147 74q-60 16 -122 4q-92 -17 -168 -75q-89 -69 -140 -180
q-45 -97 -54 -187q-5 -55 7 -101q4 -13 7 -17q3 2 11 14q49 77 111 137q8 6 13 10t11 5q8 3 13.5 -2.5t3.5 -14.5q-3 -11 -11.5 -14.5t-19.5 -15.5q-46 -51 -61 -72q-20 -26 -49 -74q-8 -13 -1 -25q2 -4 5 -11t5 -10q28 -51 44 -72q16 -20 38 -31q9 -5 12 -7q5 -2 7 -5
q5 -6 2.5 -12.5t-9.5 -8.5q-6 -1 -16 2q-28 10 -48 32q-22 24 -47 70q-9 16 -15 26q-3 4 -6 0q-2 -2 -5 -9q-53 -97 -80 -198q-23 -85 -20 -162q1 -49 18 -92q36 -91 131 -123q31 -10 64 -8q59 5 113 31q94 44 176 120q69 63 140 165q65 93 115 202q38 82 61 167
q14 50 20 118z" />
    <glyph glyph-name="O" unicode="&#xd6;" horiz-adv-x="824" 
d="M950 989q0 -1 2 -14v-89q-2 -12 -2 -13q-1 -75 -34 -178q-22 -66 -57 -140q-61 -129 -148 -243q-52 -67 -101 -113q-82 -77 -173 -122q-55 -28 -104 -36q-69 -13 -123 8q-97 39 -135 130q-19 44 -23 93q-7 79 17 175q30 120 92 227q15 26 3 51q-15 35 -16 86
q-1 69 20 140q15 51 34 94q26 61 69 116q57 75 135 118q78 45 161 53q52 4 105 -10q83 -22 143 -67q26 -20 49 -49q60 -76 82 -184q4 -20 4 -33zM920 869q6 70 0 119q-14 109 -76 194q-16 22 -33 37q-58 49 -147 74q-60 16 -122 4q-92 -17 -168 -75q-89 -69 -140 -180
q-45 -97 -54 -187q-5 -55 7 -101q4 -13 7 -17q3 2 11 14q49 77 111 137q8 6 13 10t11 5q8 3 13.5 -2.5t3.5 -14.5q-3 -11 -11.5 -14.5t-19.5 -15.5q-46 -51 -61 -72q-20 -26 -49 -74q-8 -13 -1 -25q2 -4 5 -11t5 -10q28 -51 44 -72q16 -20 38 -31q9 -5 12 -7q5 -2 7 -5
q5 -6 2.5 -12.5t-9.5 -8.5q-6 -1 -16 2q-28 10 -48 32q-22 24 -47 70q-9 16 -15 26q-3 4 -6 0q-2 -2 -5 -9q-53 -97 -80 -198q-23 -85 -20 -162q1 -49 18 -92q36 -91 131 -123q31 -10 64 -8q59 5 113 31q94 44 176 120q69 63 140 165q65 93 115 202q38 82 61 167
q14 50 20 118z" />
    <glyph glyph-name="O" unicode="&#xd5;" horiz-adv-x="824" 
d="M950 989q0 -1 2 -14v-89q-2 -12 -2 -13q-1 -75 -34 -178q-22 -66 -57 -140q-61 -129 -148 -243q-52 -67 -101 -113q-82 -77 -173 -122q-55 -28 -104 -36q-69 -13 -123 8q-97 39 -135 130q-19 44 -23 93q-7 79 17 175q30 120 92 227q15 26 3 51q-15 35 -16 86
q-1 69 20 140q15 51 34 94q26 61 69 116q57 75 135 118q78 45 161 53q52 4 105 -10q83 -22 143 -67q26 -20 49 -49q60 -76 82 -184q4 -20 4 -33zM920 869q6 70 0 119q-14 109 -76 194q-16 22 -33 37q-58 49 -147 74q-60 16 -122 4q-92 -17 -168 -75q-89 -69 -140 -180
q-45 -97 -54 -187q-5 -55 7 -101q4 -13 7 -17q3 2 11 14q49 77 111 137q8 6 13 10t11 5q8 3 13.5 -2.5t3.5 -14.5q-3 -11 -11.5 -14.5t-19.5 -15.5q-46 -51 -61 -72q-20 -26 -49 -74q-8 -13 -1 -25q2 -4 5 -11t5 -10q28 -51 44 -72q16 -20 38 -31q9 -5 12 -7q5 -2 7 -5
q5 -6 2.5 -12.5t-9.5 -8.5q-6 -1 -16 2q-28 10 -48 32q-22 24 -47 70q-9 16 -15 26q-3 4 -6 0q-2 -2 -5 -9q-53 -97 -80 -198q-23 -85 -20 -162q1 -49 18 -92q36 -91 131 -123q31 -10 64 -8q59 5 113 31q94 44 176 120q69 63 140 165q65 93 115 202q38 82 61 167
q14 50 20 118z" />
    <glyph glyph-name="O" unicode="&#xd4;" horiz-adv-x="824" 
d="M950 989q0 -1 2 -14v-89q-2 -12 -2 -13q-1 -75 -34 -178q-22 -66 -57 -140q-61 -129 -148 -243q-52 -67 -101 -113q-82 -77 -173 -122q-55 -28 -104 -36q-69 -13 -123 8q-97 39 -135 130q-19 44 -23 93q-7 79 17 175q30 120 92 227q15 26 3 51q-15 35 -16 86
q-1 69 20 140q15 51 34 94q26 61 69 116q57 75 135 118q78 45 161 53q52 4 105 -10q83 -22 143 -67q26 -20 49 -49q60 -76 82 -184q4 -20 4 -33zM920 869q6 70 0 119q-14 109 -76 194q-16 22 -33 37q-58 49 -147 74q-60 16 -122 4q-92 -17 -168 -75q-89 -69 -140 -180
q-45 -97 -54 -187q-5 -55 7 -101q4 -13 7 -17q3 2 11 14q49 77 111 137q8 6 13 10t11 5q8 3 13.5 -2.5t3.5 -14.5q-3 -11 -11.5 -14.5t-19.5 -15.5q-46 -51 -61 -72q-20 -26 -49 -74q-8 -13 -1 -25q2 -4 5 -11t5 -10q28 -51 44 -72q16 -20 38 -31q9 -5 12 -7q5 -2 7 -5
q5 -6 2.5 -12.5t-9.5 -8.5q-6 -1 -16 2q-28 10 -48 32q-22 24 -47 70q-9 16 -15 26q-3 4 -6 0q-2 -2 -5 -9q-53 -97 -80 -198q-23 -85 -20 -162q1 -49 18 -92q36 -91 131 -123q31 -10 64 -8q59 5 113 31q94 44 176 120q69 63 140 165q65 93 115 202q38 82 61 167
q14 50 20 118z" />
    <glyph glyph-name="O" unicode="&#xd3;" horiz-adv-x="824" 
d="M950 989q0 -1 2 -14v-89q-2 -12 -2 -13q-1 -75 -34 -178q-22 -66 -57 -140q-61 -129 -148 -243q-52 -67 -101 -113q-82 -77 -173 -122q-55 -28 -104 -36q-69 -13 -123 8q-97 39 -135 130q-19 44 -23 93q-7 79 17 175q30 120 92 227q15 26 3 51q-15 35 -16 86
q-1 69 20 140q15 51 34 94q26 61 69 116q57 75 135 118q78 45 161 53q52 4 105 -10q83 -22 143 -67q26 -20 49 -49q60 -76 82 -184q4 -20 4 -33zM920 869q6 70 0 119q-14 109 -76 194q-16 22 -33 37q-58 49 -147 74q-60 16 -122 4q-92 -17 -168 -75q-89 -69 -140 -180
q-45 -97 -54 -187q-5 -55 7 -101q4 -13 7 -17q3 2 11 14q49 77 111 137q8 6 13 10t11 5q8 3 13.5 -2.5t3.5 -14.5q-3 -11 -11.5 -14.5t-19.5 -15.5q-46 -51 -61 -72q-20 -26 -49 -74q-8 -13 -1 -25q2 -4 5 -11t5 -10q28 -51 44 -72q16 -20 38 -31q9 -5 12 -7q5 -2 7 -5
q5 -6 2.5 -12.5t-9.5 -8.5q-6 -1 -16 2q-28 10 -48 32q-22 24 -47 70q-9 16 -15 26q-3 4 -6 0q-2 -2 -5 -9q-53 -97 -80 -198q-23 -85 -20 -162q1 -49 18 -92q36 -91 131 -123q31 -10 64 -8q59 5 113 31q94 44 176 120q69 63 140 165q65 93 115 202q38 82 61 167
q14 50 20 118z" />
    <glyph glyph-name="O" unicode="&#xd2;" horiz-adv-x="824" 
d="M950 989q0 -1 2 -14v-89q-2 -12 -2 -13q-1 -75 -34 -178q-22 -66 -57 -140q-61 -129 -148 -243q-52 -67 -101 -113q-82 -77 -173 -122q-55 -28 -104 -36q-69 -13 -123 8q-97 39 -135 130q-19 44 -23 93q-7 79 17 175q30 120 92 227q15 26 3 51q-15 35 -16 86
q-1 69 20 140q15 51 34 94q26 61 69 116q57 75 135 118q78 45 161 53q52 4 105 -10q83 -22 143 -67q26 -20 49 -49q60 -76 82 -184q4 -20 4 -33zM920 869q6 70 0 119q-14 109 -76 194q-16 22 -33 37q-58 49 -147 74q-60 16 -122 4q-92 -17 -168 -75q-89 -69 -140 -180
q-45 -97 -54 -187q-5 -55 7 -101q4 -13 7 -17q3 2 11 14q49 77 111 137q8 6 13 10t11 5q8 3 13.5 -2.5t3.5 -14.5q-3 -11 -11.5 -14.5t-19.5 -15.5q-46 -51 -61 -72q-20 -26 -49 -74q-8 -13 -1 -25q2 -4 5 -11t5 -10q28 -51 44 -72q16 -20 38 -31q9 -5 12 -7q5 -2 7 -5
q5 -6 2.5 -12.5t-9.5 -8.5q-6 -1 -16 2q-28 10 -48 32q-22 24 -47 70q-9 16 -15 26q-3 4 -6 0q-2 -2 -5 -9q-53 -97 -80 -198q-23 -85 -20 -162q1 -49 18 -92q36 -91 131 -123q31 -10 64 -8q59 5 113 31q94 44 176 120q69 63 140 165q65 93 115 202q38 82 61 167
q14 50 20 118z" />
    <glyph glyph-name="P" unicode="P" horiz-adv-x="874" 
d="M1222 1080q5 -36 0 -78q-13 -122 -95 -240q-59 -85 -149 -165q-57 -49 -114 -85q-66 -41 -150 -68q-71 -22 -147 -38q-17 -3 -32.5 3.5t-19.5 22.5t6 29q4 4 8 6q6 3 12 -0.5t6 -10.5q0 -1 -0.5 -2.5t-0.5 -3t-0.5 -3t-0.5 -3.5q-1 -8 8 -9q4 0 10 1q118 24 203 59
q77 31 155 94q66 51 121 114q65 72 104 149q33 66 43 131q12 69 -1 117q-20 74 -63 125q-24 27 -60 46q-45 25 -97 32q-55 8 -119 1q-62 -7 -138 -34q-89 -32 -201 -101q-93 -56 -205 -153q-70 -61 -115 -106q-51 -52 -86 -98q-10 -13 -9 -16.5t14 -13.5q95 -70 124 -95
q51 -43 74 -76q43 -61 46 -134q2 -54 -4 -87v-5h1.5t1.5 -1q12 40 12 42q70 231 73 240q36 118 58 186q29 91 59 165q2 4 25 55q4 8 8 11q8 7 16 1q8 -5 5 -14q-2 -6 -5 -14q-51 -118 -96 -264q-54 -176 -84 -276q-57 -186 -88 -305q-16 -59 -39 -149q-1 -6 -4 -18t-4 -18
q-2 -8 -5 -13q-4 -8 -11.5 -9.5t-14.5 5.5q-6 6 -20 23q-5 5 -3 13q1 5 3 13q35 116 43 143q24 80 37 175q7 49 6 86q-1 63 -28 112q-18 34 -54 67t-131 103q-1 1 -7.5 6t-10.5 7q-14 11 -23 11q-3 -1 -10 5q-16 13 -2 26q9 7 14 15q21 35 62 79q67 72 143 137
q92 79 156 124q131 91 257 139q71 27 141 39q35 5 63 5q2 -1 30 -1q76 0 147 -34q63 -30 100 -88q42 -66 52 -134z" />
    <glyph glyph-name="Q" unicode="Q" horiz-adv-x="909" 
d="M984 971q1 -57 -21 -161q-15 -72 -54 -183q-32 -90 -69 -165.5t-79 -144.5q-59 -96 -135 -178q-63 -66 -133 -112l-9 -6q-4 -3 1 -7q3 -1 6 -3q55 -23 122 -73q9 -7 103 -83q15 -13 39 -33q6 -4 14 -4q12 0 19 -11.5t1 -22.5q-6 -13 -20 -8q-6 2 -16 11q-7 5 -36 29
t-44 37q-67 55 -96 75q-60 43 -112 63l-8 3q-12 6 -26 0q-27 -10 -54 -15q-59 -11 -108 10q-13 5 -26 -1q-36 -17 -62 -45q-6 -6 -8 -16q-4 -17 -19 -13q-16 5 -10 22q3 10 14 23q24 28 50 43q1 1 4.5 3t5.5 3q6 4 6 6t-4 7q-31 33 -49 84q-10 29 -15 68q-8 51 -3 128
q3 46 17 109q5 19 4 23t-16 17q-65 57 -90 141q-25 83 -15 178q13 132 89 260q54 93 138 167q70 62 159 95q64 24 131 33q86 13 176 -13q57 -17 94 -39q82 -51 119 -139q17 -42 22 -94q3 -27 3 -68zM310 7q34 -6 76 4q-7 3 -20 3q-12 1 -18.5 0.5t-18.5 -2.5q-16 -3 -19 -5z
M941 845q15 80 14 143q0 6 -1 18.5t-1 18.5q-1 34 -12 70q-32 109 -133 161q-44 23 -105 36q-67 13 -130 4q-45 -7 -89 -21q-84 -25 -146 -70q-59 -43 -105 -98q-93 -111 -132 -243q-21 -74 -22 -150q0 -6 3 -41q6 -72 37 -129q21 -38 54 -69q7 -6 10 -5.5t6 10.5
q1 3 3.5 12t4.5 14q46 131 119 235q39 56 81 97q18 18 37 30q10 6 17 7q9 1 14 -4t5 -13q-1 -9 -5 -21q-6 -15 -21 -7l-0.5 0.5l-0.5 0.5q-6 4 -12 -1l-7 -7q-35 -33 -71 -80q-36 -49 -67 -106q-46 -88 -69 -165q-2 -7 -5 -17q-2 -7 5 -11q11 -6 17 -9q73 -32 151 -49
q30 -7 33 -7q9 -3 14 -8q5 -6 3 -12.5t-9 -7.5q-4 -1 -12 0q-2 0 -6 1t-5 1q-96 17 -186 58q0 1 -2.5 2t-3.5 1q-8 3 -10 -4q-2 -5 -3 -10q-18 -84 -18 -151q0 -33 4 -63q6 -55 25 -98q13 -28 33 -48q12 -11 16.5 -12t19.5 3q48 13 86 12q32 -1 63 -9q14 -4 26 3
q29 16 58 38q56 42 107 99q54 60 97 126q38 57 81 139q44 84 80 183q47 132 65 223z" />
    <glyph glyph-name="R" unicode="R" horiz-adv-x="861" 
d="M1213 1172q4 -69 -27 -137q-31 -71 -86 -137q-36 -43 -59 -65q-64 -61 -133 -109q-91 -63 -202 -122q-199 -106 -282 -146q-4 -2 -5 -2q-8 -5 -9.5 -12.5t5.5 -14.5q144 -160 332 -228q43 -16 60 -20q60 -15 104 -12q53 3 76 8q12 2 18 1q14 -3 14.5 -14.5t-12.5 -15.5
q-6 -2 -11 -2q-9 -1 -50 -4q-33 -3 -35 -4q-62 -1 -120 16q-146 44 -260 128q-74 54 -122 110q-5 6 -14 14q-7 8 -11 -3q-1 -6 -4 -17q-7 -29 -21 -85.5t-25.5 -101t-21.5 -84.5q0 -2 -21 -81q-3 -12 -8 -18q-6 -8 -14.5 -8t-13.5 8q-6 10 -11 23t9 18q1 0 6 1q6 1 8 8
q7 23 8 28q12 47 34.5 137t32.5 133q7 28 16 59q3 14 1 23q-3 8 4 15q6 5 11 23q27 100 55 182q35 104 85 212q36 78 40 88q36 75 84 156l3 6q7 7 15 4q11 -4 9 -15q-1 -6 -7 -18t-17 -32.5t-20 -37.5t-17 -32q-18 -35 -33 -69q-46 -99 -70 -157q-36 -90 -67 -190
q-5 -15 -22 -76q-2 -5 -3 -12q0 -2 2 -3.5t4 -0.5q4 1 7 2q75 36 164 84q9 4 39 20t47 25q120 63 211 126q89 61 150 125q69 72 108 143q35 64 41 125q3 32 -4 60q-11 42 -47 68q-26 19 -61 30q-48 16 -98 17q-51 2 -84 0q-41 -3 -90 -11q-150 -26 -292 -85
q-169 -69 -309 -174q-57 -44 -98 -96q-19 -23 -22 -38q-2 -11 -12 -11q-11 0 -14 12q-2 7 1 16q4 12 14 26q12 19 32 41q48 53 119 102q141 97 298 159q129 51 260 75q95 17 161 15q67 2 128 -14q58 -16 94 -47q52 -43 55 -110z" />
    <glyph glyph-name="S" unicode="S" horiz-adv-x="713" 
d="M1113 1290q9 -23 4 -46q-7 -30 -23 -56q-26 -42 -68 -91q-55 -64 -127 -130q-120 -109 -146 -130q-2 -2 -5 -4.5t-6.5 -6l-5.5 -5.5q-6 -5 -8 -6q-9 -7 -17 0t-1 18q3 4 8 9q22 21 29 27q16 14 56.5 51t62.5 57q95 85 159 164q23 30 41 57q8 13 16 30q7 15 6 36
q0 20 -14 35q-18 19 -46 27q-21 6 -55 10q-32 5 -88 4q-21 0 -54 -4q-119 -16 -228 -50q-111 -34 -200 -76q-98 -45 -169 -96q-79 -55 -126 -131q-25 -41 -29 -89q-1 -15 5 -41q7 -32 28 -67q20 -31 47 -60q46 -49 107 -95q43 -33 101 -72q70 -48 103 -75q10 -8 23 -20
q10 -9 20 -6q4 1 10 0q6 -2 9.5 -7.5t1.5 -11.5q-2 -5 -3 -6q-1 -4 2 -8q1 -1 10 -11q43 -49 65 -101q16 -39 21 -87q6 -50 -12 -98q-15 -42 -50 -84q-51 -60 -141 -80q-51 -11 -112 -6q-69 5 -121 33q-34 18 -54 49q-18 26 -19 59q-1 48 27 93q24 41 70 78q55 45 131 90
q12 6 24.5 13.5t24.5 14.5t23.5 14t25 14.5t24.5 13.5q2 2 3 2q7 5 0 12q-1 0 -2 1l-2 2q-34 31 -101 76q-83 57 -119 84q-68 52 -112 99q-33 37 -54 72q-18 31 -27 64q-17 64 13 129q17 39 56 84q51 61 135 112q114 69 243 116q107 39 190 57q80 17 136 25q21 3 39 3
q3 1 37 1q61 1 123 -13q29 -7 52 -24q24 -17 33 -42zM493 410l-10 -5q-83 -48 -100 -58q-85 -49 -142 -95q-43 -33 -67 -71q-17 -27 -23 -56q-8 -45 19 -78q18 -23 49 -37q59 -25 133 -25q28 -1 70 8q41 9 73 27q40 24 70 70q25 39 31 69q13 69 -12 135q-21 55 -75 114
q-6 7 -16 2z" />
    <glyph glyph-name="T" unicode="T" horiz-adv-x="492" 
d="M1384 1230q6 -4 6.5 -11.5t-6 -12t-17.5 -5.5q-8 0 -29 -1.5t-32 -2.5q-32 -2 -60 -5q-31 -3 -73 -9q-64 -8 -101 -13q-53 -7 -162 -22q-13 -2 -62 -9t-76 -10l-118 -15q-7 -1 -11 -2q-7 -2 -9 -9l-2 -10q-3 -8 -5 -10q-7 -6 -15 -27q-33 -79 -71 -210q-38 -133 -94 -370
q-2 -10 -9 -57q-8 -53 -25 -144q-24 -123 -33 -161q-15 -69 -40 -175q-2 -8 -21 -70q-8 -26 -8 -31q-1 -5 -3 -10q-5 -12 -17 -10q-10 2 -11 14l-1 4l2 11q45 224 50 247q11 52 42 195q10 43 37 161q11 46 12 103q1 37 0 59q-4 88 -48 166q-21 37 -58 82q-54 64 -114 108
q-54 40 -125 69q-11 5 -17 9q-11 6 -10 16.5t13 15.5q6 2 11 3q8 0 23 1.5t17 1.5q39 4 54 5q8 1 17.5 2t21 2t18.5 2q57 6 86 9l40 4q60 5 129 14q24 3 75.5 9t77.5 10q85 10 135 17q23 3 51 7t59 8.5t51 7.5q86 12 134 18q80 11 126 17q9 1 20 2t19.5 2t20 2t19.5 2
q39 4 92 7q2 0 6.5 0.5t5.5 1.5q6 1 12 -3zM598 1100q1 3 0 4.5t-5 1.5q-2 -1 -25.5 -4t-36.5 -4q-3 -1 -74 -9q-75 -8 -77 -8q-17 -2 -52 -5q-6 -1 -23.5 -2.5t-26.5 -2.5q-43 -4 -92 -9q-4 -1 -67 -8q2 -3 11 -8q92 -45 166 -120q43 -44 79 -94q55 -78 70 -161q1 -2 7 -39
q2 1 4 11q41 163 77 279q28 93 54 152q1 3 3 8t4 9.5t4 8.5z" />
    <glyph glyph-name="U" unicode="U" horiz-adv-x="974" 
d="M1253 1304q5 -9 -1 -18l-7 -7q-12 -13 -16 -16q-23 -20 -45 -57q-52 -91 -106 -208q-34 -71 -84 -194q-57 -142 -123 -350q-59 -185 -103 -311q-6 -16 -13.5 -38.5t-15 -44t-13.5 -39.5q-4 -12 -12 -31q-5 -12 -12 -18q-8 -7 -16.5 -5t-12.5 11q-2 4 -2 7q-2 29 3 52
q1 2 2 5q2 5 7.5 7t11.5 -2q1 0 6 -7l5 12q50 145 114 339q7 21 31 96t38 115q40 122 103 273q59 142 114 249q7 13 8 19q-6 -4 -19 -18q-38 -42 -132 -152q-32 -38 -133 -158q-97 -116 -127 -153q-48 -58 -121 -148q-60 -76 -137 -164q-62 -71 -107 -118q-67 -71 -126 -114
q-27 -19 -56 -29q-17 -6 -34 -6q-47 1 -62 46q-9 24 -9 53q-2 49 1 86q18 191 80 390q42 133 100 270q36 83 84 160q5 10 11 17q3 4 7 7q7 6 14 1q8 -6 5 -14q-2 -6 -8 -17q-36 -63 -53 -96q-35 -68 -75 -173q-38 -99 -66 -192q-34 -116 -52 -228q-12 -70 -16 -111
q-5 -59 -4 -82q1 -13 4 -43q0 -2 3 -13q10 -38 51 -31q15 3 36 15q27 15 63 46q49 43 95 92q30 32 72 80q59 67 85 99q44 53 114 139q78 97 151 184q6 8 63.5 76.5t87.5 103.5q18 22 54.5 64t53.5 63q13 15 109 121q11 13 46 47q15 15 28 32q2 3 18 22q7 8 22 13q11 3 18 -6
z" />
    <glyph glyph-name="U" unicode="&#xdc;" horiz-adv-x="974" 
d="M1253 1304q5 -9 -1 -18l-7 -7q-12 -13 -16 -16q-23 -20 -45 -57q-52 -91 -106 -208q-34 -71 -84 -194q-57 -142 -123 -350q-59 -185 -103 -311q-6 -16 -13.5 -38.5t-15 -44t-13.5 -39.5q-4 -12 -12 -31q-5 -12 -12 -18q-8 -7 -16.5 -5t-12.5 11q-2 4 -2 7q-2 29 3 52
q1 2 2 5q2 5 7.5 7t11.5 -2q1 0 6 -7l5 12q50 145 114 339q7 21 31 96t38 115q40 122 103 273q59 142 114 249q7 13 8 19q-6 -4 -19 -18q-38 -42 -132 -152q-32 -38 -133 -158q-97 -116 -127 -153q-48 -58 -121 -148q-60 -76 -137 -164q-62 -71 -107 -118q-67 -71 -126 -114
q-27 -19 -56 -29q-17 -6 -34 -6q-47 1 -62 46q-9 24 -9 53q-2 49 1 86q18 191 80 390q42 133 100 270q36 83 84 160q5 10 11 17q3 4 7 7q7 6 14 1q8 -6 5 -14q-2 -6 -8 -17q-36 -63 -53 -96q-35 -68 -75 -173q-38 -99 -66 -192q-34 -116 -52 -228q-12 -70 -16 -111
q-5 -59 -4 -82q1 -13 4 -43q0 -2 3 -13q10 -38 51 -31q15 3 36 15q27 15 63 46q49 43 95 92q30 32 72 80q59 67 85 99q44 53 114 139q78 97 151 184q6 8 63.5 76.5t87.5 103.5q18 22 54.5 64t53.5 63q13 15 109 121q11 13 46 47q15 15 28 32q2 3 18 22q7 8 22 13q11 3 18 -6
z" />
    <glyph glyph-name="U" unicode="&#xdb;" horiz-adv-x="974" 
d="M1253 1304q5 -9 -1 -18l-7 -7q-12 -13 -16 -16q-23 -20 -45 -57q-52 -91 -106 -208q-34 -71 -84 -194q-57 -142 -123 -350q-59 -185 -103 -311q-6 -16 -13.5 -38.5t-15 -44t-13.5 -39.5q-4 -12 -12 -31q-5 -12 -12 -18q-8 -7 -16.5 -5t-12.5 11q-2 4 -2 7q-2 29 3 52
q1 2 2 5q2 5 7.5 7t11.5 -2q1 0 6 -7l5 12q50 145 114 339q7 21 31 96t38 115q40 122 103 273q59 142 114 249q7 13 8 19q-6 -4 -19 -18q-38 -42 -132 -152q-32 -38 -133 -158q-97 -116 -127 -153q-48 -58 -121 -148q-60 -76 -137 -164q-62 -71 -107 -118q-67 -71 -126 -114
q-27 -19 -56 -29q-17 -6 -34 -6q-47 1 -62 46q-9 24 -9 53q-2 49 1 86q18 191 80 390q42 133 100 270q36 83 84 160q5 10 11 17q3 4 7 7q7 6 14 1q8 -6 5 -14q-2 -6 -8 -17q-36 -63 -53 -96q-35 -68 -75 -173q-38 -99 -66 -192q-34 -116 -52 -228q-12 -70 -16 -111
q-5 -59 -4 -82q1 -13 4 -43q0 -2 3 -13q10 -38 51 -31q15 3 36 15q27 15 63 46q49 43 95 92q30 32 72 80q59 67 85 99q44 53 114 139q78 97 151 184q6 8 63.5 76.5t87.5 103.5q18 22 54.5 64t53.5 63q13 15 109 121q11 13 46 47q15 15 28 32q2 3 18 22q7 8 22 13q11 3 18 -6
z" />
    <glyph glyph-name="U" unicode="&#xda;" horiz-adv-x="974" 
d="M1253 1304q5 -9 -1 -18l-7 -7q-12 -13 -16 -16q-23 -20 -45 -57q-52 -91 -106 -208q-34 -71 -84 -194q-57 -142 -123 -350q-59 -185 -103 -311q-6 -16 -13.5 -38.5t-15 -44t-13.5 -39.5q-4 -12 -12 -31q-5 -12 -12 -18q-8 -7 -16.5 -5t-12.5 11q-2 4 -2 7q-2 29 3 52
q1 2 2 5q2 5 7.5 7t11.5 -2q1 0 6 -7l5 12q50 145 114 339q7 21 31 96t38 115q40 122 103 273q59 142 114 249q7 13 8 19q-6 -4 -19 -18q-38 -42 -132 -152q-32 -38 -133 -158q-97 -116 -127 -153q-48 -58 -121 -148q-60 -76 -137 -164q-62 -71 -107 -118q-67 -71 -126 -114
q-27 -19 -56 -29q-17 -6 -34 -6q-47 1 -62 46q-9 24 -9 53q-2 49 1 86q18 191 80 390q42 133 100 270q36 83 84 160q5 10 11 17q3 4 7 7q7 6 14 1q8 -6 5 -14q-2 -6 -8 -17q-36 -63 -53 -96q-35 -68 -75 -173q-38 -99 -66 -192q-34 -116 -52 -228q-12 -70 -16 -111
q-5 -59 -4 -82q1 -13 4 -43q0 -2 3 -13q10 -38 51 -31q15 3 36 15q27 15 63 46q49 43 95 92q30 32 72 80q59 67 85 99q44 53 114 139q78 97 151 184q6 8 63.5 76.5t87.5 103.5q18 22 54.5 64t53.5 63q13 15 109 121q11 13 46 47q15 15 28 32q2 3 18 22q7 8 22 13q11 3 18 -6
z" />
    <glyph glyph-name="U" unicode="&#xd9;" horiz-adv-x="974" 
d="M1253 1304q5 -9 -1 -18l-7 -7q-12 -13 -16 -16q-23 -20 -45 -57q-52 -91 -106 -208q-34 -71 -84 -194q-57 -142 -123 -350q-59 -185 -103 -311q-6 -16 -13.5 -38.5t-15 -44t-13.5 -39.5q-4 -12 -12 -31q-5 -12 -12 -18q-8 -7 -16.5 -5t-12.5 11q-2 4 -2 7q-2 29 3 52
q1 2 2 5q2 5 7.5 7t11.5 -2q1 0 6 -7l5 12q50 145 114 339q7 21 31 96t38 115q40 122 103 273q59 142 114 249q7 13 8 19q-6 -4 -19 -18q-38 -42 -132 -152q-32 -38 -133 -158q-97 -116 -127 -153q-48 -58 -121 -148q-60 -76 -137 -164q-62 -71 -107 -118q-67 -71 -126 -114
q-27 -19 -56 -29q-17 -6 -34 -6q-47 1 -62 46q-9 24 -9 53q-2 49 1 86q18 191 80 390q42 133 100 270q36 83 84 160q5 10 11 17q3 4 7 7q7 6 14 1q8 -6 5 -14q-2 -6 -8 -17q-36 -63 -53 -96q-35 -68 -75 -173q-38 -99 -66 -192q-34 -116 -52 -228q-12 -70 -16 -111
q-5 -59 -4 -82q1 -13 4 -43q0 -2 3 -13q10 -38 51 -31q15 3 36 15q27 15 63 46q49 43 95 92q30 32 72 80q59 67 85 99q44 53 114 139q78 97 151 184q6 8 63.5 76.5t87.5 103.5q18 22 54.5 64t53.5 63q13 15 109 121q11 13 46 47q15 15 28 32q2 3 18 22q7 8 22 13q11 3 18 -6
z" />
    <glyph glyph-name="V" unicode="V" horiz-adv-x="604" 
d="M1140 1271q14 -7 7 -20q-2 -5 -8 -13q-8 -9 -18 -22t-19.5 -25t-17.5 -22q-69 -88 -133 -178q-97 -134 -215 -290q-123 -163 -208 -271q-93 -119 -154 -192q-77 -92 -140 -156q-35 -35 -60 -59q-18 -17 -37 -29q-16 -10 -31 -12q-27 -5 -41 17q-9 13 -12 35q-3 25 -3 78
q0 43 6 123q6 74 17 143q8 50 29 141q32 142 82 303q39 128 84 234q15 35 32 58q5 7 10 12q6 5 14 1t7 -14q-1 -7 -6 -12q-8 -8 -20 -35q-18 -39 -41 -100q-72 -193 -130 -437q-23 -97 -33 -162q-8 -50 -13 -101q-5 -52 -7 -115q-2 -44 -2 -61q0 -15 3 -52q1 -12 7 -21
q4 -8 13 -6q8 1 20 8q18 11 46 37q50 49 110 116q77 86 217 264q133 168 340 446q29 39 81.5 110.5t73.5 100.5q59 80 111 144q13 16 13 26q-1 1 2 4q3 5 10.5 6t13.5 -2z" />
    <glyph glyph-name="W" unicode="W" horiz-adv-x="1258" 
d="M1263 949q1 -14 0 -29q0 -6 -1 -20.5t-1 -21.5q-2 -139 -32 -294q-22 -119 -61 -230q-37 -106 -89 -189q-40 -64 -88 -107q-50 -47 -105 -66q-95 -33 -179 29q-49 37 -84 97q-40 70 -57 156q-12 57 -13 130q-2 96 19 214q1 3 18 87q1 4 -1 6q-3 0 -7 -5
q-116 -140 -120 -144q-39 -47 -78 -89q-58 -64 -113 -114q-34 -31 -70 -54q-21 -14 -47 -23q-12 -5 -27 -6q-39 -3 -60 34q-14 26 -16 63q-3 61 9 126q25 132 45 202q20 67 53 144q42 97 87 170q39 63 74 105q16 20 32 30q10 6 17 7q17 1 22 -14q2 -8 -1.5 -15.5t-10.5 -8.5
q-4 -1 -8.5 -2.5t-7 -3t-6.5 -5t-5 -5t-5 -7t-5 -5.5q-56 -72 -103 -162q-59 -116 -94 -226q-18 -57 -36 -148q-16 -77 -20 -120q-5 -51 3 -84q3 -15 8 -24q10 -16 28 -15q10 1 25 7q39 18 85 58q66 58 152 155q40 45 187 224q2 2 13 15.5t16 20.5q16 19 21 31t28 28
q12 9 22 -2q10 -12 1 -22q-12 -13 -21 -33t-12 -30t-11 -38q-21 -76 -36 -191q-10 -73 -8 -145q5 -125 48 -219q29 -65 73 -105q31 -29 68 -42q41 -14 89 0t92 53q49 44 87 104q49 77 83 172q51 140 75 301q12 77 18 168q5 67 3 162q-1 25 -6 74q-1 17 -5 49t-5 41
q-7 53 -23 148q-1 5 -4.5 14.5t-4.5 11.5q-5 16 9 23q15 8 25 -6q3 -5 5 -11q3 -8 4 -17q17 -100 20 -118q9 -65 15 -126q6 -58 6 -78q0 -6 0.5 -12.5t1 -14.5t0.5 -13z" />
    <glyph glyph-name="X" unicode="X" horiz-adv-x="973" 
d="M996.5 1199.5q9.5 -8.5 2.5 -20.5q-1 -2 -8 -10q-24 -29 -69 -83t-54 -64q-11 -14 -32 -39t-38 -45.5t-32 -39.5q-24 -28 -67.5 -80t-54.5 -65q-29 -35 -30 -36q-10 -11 -4 -25q4 -7 31 -73q126 -298 134 -316q107 -255 120 -286q5 -11 7 -17q3 -13 -9 -18q-11 -5 -18 6
q-4 7 -9 18q-13 29 -56 132q-120 283 -136 322q-39 93 -82 195q-8 18 -11 18.5t-15 -13.5q-31 -37 -90.5 -108.5t-87.5 -105.5q-27 -32 -80.5 -95.5t-79.5 -95.5q-23 -27 -69 -82.5t-70 -83.5q-8 -10 -15 -16q-9 -8 -19 0q-9 8 -3 18q2 6 7 11q35 43 113 136
q20 23 46.5 54.5t51.5 62t46 54.5q17 22 44 53.5t51 60.5t44 53q19 23 53 63.5t47 55.5q1 1 2.5 3.5t2.5 3.5q8 9 3 21q-3 6 -26 61q-101 239 -113 269q-16 37 -50 116.5t-51 121.5l-6 15q-2 12 8 17q12 7 20 -4q3 -4 6 -13q20 -48 57 -135t49 -115q79 -188 125 -296
q6 -15 9 -17q3 0 7 5q66 78 106 126q21 26 62 75t61 72q62 75 139 167q8 9 10 11q11 9 20.5 0.5z" />
    <glyph glyph-name="Y" unicode="Y" horiz-adv-x="888" 
d="M1030 1307q4 -7 3 -20q-2 -30 -3 -39q-11 -77 -17 -117q-8 -52 -19 -109q-19 -102 -50 -205q-30 -99 -69 -192q-18 -40 -43 -90q-6 -12 -6 -16q9 -2 10 -2q8 -3 9 -11q1 -9 -8 -14q-6 -4 -11 -4q-20 -2 -33 -27q-59 -111 -127 -198q-59 -74 -116 -128q-46 -42 -81 -62
q-85 -49 -178 -61q-40 -6 -93 -2q-67 4 -111 44t-36 96q8 59 61 106q59 53 147 90q84 36 204 72q23 7 49 15t57 17.5t49 14.5q58 18 144 37q21 5 24 9q2 3 10 17q66 126 115 280q27 89 50 197q8 38 24 136q11 69 19 137v5q-3 1 -6 -3q-14 -17 -147 -175q-13 -15 -93 -104
q-47 -54 -111 -124q-26 -28 -42 -46q-13 -14 -85 -90q-41 -42 -45 -46q-61 -61 -115 -108q-39 -33 -56 -47q-40 -31 -81 -44q-23 -7 -50 -6q-21 2 -35 20q-11 14 -17 36q-6 24 -8 50q-3 70 23 164q44 164 120 306q32 60 55 99q7 11 11 14q7 6 14 3.5t9 -10.5q3 -11 -4 -17
q-6 -5 -17 -24q-5 -10 -14 -26.5t-16.5 -30.5t-14.5 -26q-83 -158 -124 -333q-14 -58 -13 -111q1 -26 8 -52q3 -12 9 -21q7 -12 19 -12q18 -1 30 3q27 7 56 25q21 14 53 42q97 83 161 150q85 90 152 162q31 34 121 135q75 83 141 163q74 87 88 105q2 3 10 14q4 5 9 8
q10 5 17 -3q9 -9 14 -16zM756 455q1 1 4 5t2.5 5t-1.5 5q-1 1 -2.5 1.5t-3.5 0t-4.5 -1.5t-3.5 -1h-1h-1q-63 -15 -118 -31q-83 -26 -129 -39q-126 -38 -216 -75q-84 -33 -141 -81q-24 -20 -38 -40q-22 -31 -23 -68t29 -62q23 -19 54 -28t72 -7q37 -1 76 6q40 7 87 26
q55 22 93 53q20 16 38 33q50 47 96 103q39 48 72 98q28 42 59 98z" />
    <glyph glyph-name="Y" unicode="&#x178;" horiz-adv-x="888" 
d="M1030 1307q4 -7 3 -20q-2 -30 -3 -39q-11 -77 -17 -117q-8 -52 -19 -109q-19 -102 -50 -205q-30 -99 -69 -192q-18 -40 -43 -90q-6 -12 -6 -16q9 -2 10 -2q8 -3 9 -11q1 -9 -8 -14q-6 -4 -11 -4q-20 -2 -33 -27q-59 -111 -127 -198q-59 -74 -116 -128q-46 -42 -81 -62
q-85 -49 -178 -61q-40 -6 -93 -2q-67 4 -111 44t-36 96q8 59 61 106q59 53 147 90q84 36 204 72q23 7 49 15t57 17.5t49 14.5q58 18 144 37q21 5 24 9q2 3 10 17q66 126 115 280q27 89 50 197q8 38 24 136q11 69 19 137v5q-3 1 -6 -3q-14 -17 -147 -175q-13 -15 -93 -104
q-47 -54 -111 -124q-26 -28 -42 -46q-13 -14 -85 -90q-41 -42 -45 -46q-61 -61 -115 -108q-39 -33 -56 -47q-40 -31 -81 -44q-23 -7 -50 -6q-21 2 -35 20q-11 14 -17 36q-6 24 -8 50q-3 70 23 164q44 164 120 306q32 60 55 99q7 11 11 14q7 6 14 3.5t9 -10.5q3 -11 -4 -17
q-6 -5 -17 -24q-5 -10 -14 -26.5t-16.5 -30.5t-14.5 -26q-83 -158 -124 -333q-14 -58 -13 -111q1 -26 8 -52q3 -12 9 -21q7 -12 19 -12q18 -1 30 3q27 7 56 25q21 14 53 42q97 83 161 150q85 90 152 162q31 34 121 135q75 83 141 163q74 87 88 105q2 3 10 14q4 5 9 8
q10 5 17 -3q9 -9 14 -16zM756 455q1 1 4 5t2.5 5t-1.5 5q-1 1 -2.5 1.5t-3.5 0t-4.5 -1.5t-3.5 -1h-1h-1q-63 -15 -118 -31q-83 -26 -129 -39q-126 -38 -216 -75q-84 -33 -141 -81q-24 -20 -38 -40q-22 -31 -23 -68t29 -62q23 -19 54 -28t72 -7q37 -1 76 6q40 7 87 26
q55 22 93 53q20 16 38 33q50 47 96 103q39 48 72 98q28 42 59 98z" />
    <glyph glyph-name="Y" unicode="&#xdd;" horiz-adv-x="888" 
d="M1030 1307q4 -7 3 -20q-2 -30 -3 -39q-11 -77 -17 -117q-8 -52 -19 -109q-19 -102 -50 -205q-30 -99 -69 -192q-18 -40 -43 -90q-6 -12 -6 -16q9 -2 10 -2q8 -3 9 -11q1 -9 -8 -14q-6 -4 -11 -4q-20 -2 -33 -27q-59 -111 -127 -198q-59 -74 -116 -128q-46 -42 -81 -62
q-85 -49 -178 -61q-40 -6 -93 -2q-67 4 -111 44t-36 96q8 59 61 106q59 53 147 90q84 36 204 72q23 7 49 15t57 17.5t49 14.5q58 18 144 37q21 5 24 9q2 3 10 17q66 126 115 280q27 89 50 197q8 38 24 136q11 69 19 137v5q-3 1 -6 -3q-14 -17 -147 -175q-13 -15 -93 -104
q-47 -54 -111 -124q-26 -28 -42 -46q-13 -14 -85 -90q-41 -42 -45 -46q-61 -61 -115 -108q-39 -33 -56 -47q-40 -31 -81 -44q-23 -7 -50 -6q-21 2 -35 20q-11 14 -17 36q-6 24 -8 50q-3 70 23 164q44 164 120 306q32 60 55 99q7 11 11 14q7 6 14 3.5t9 -10.5q3 -11 -4 -17
q-6 -5 -17 -24q-5 -10 -14 -26.5t-16.5 -30.5t-14.5 -26q-83 -158 -124 -333q-14 -58 -13 -111q1 -26 8 -52q3 -12 9 -21q7 -12 19 -12q18 -1 30 3q27 7 56 25q21 14 53 42q97 83 161 150q85 90 152 162q31 34 121 135q75 83 141 163q74 87 88 105q2 3 10 14q4 5 9 8
q10 5 17 -3q9 -9 14 -16zM756 455q1 1 4 5t2.5 5t-1.5 5q-1 1 -2.5 1.5t-3.5 0t-4.5 -1.5t-3.5 -1h-1h-1q-63 -15 -118 -31q-83 -26 -129 -39q-126 -38 -216 -75q-84 -33 -141 -81q-24 -20 -38 -40q-22 -31 -23 -68t29 -62q23 -19 54 -28t72 -7q37 -1 76 6q40 7 87 26
q55 22 93 53q20 16 38 33q50 47 96 103q39 48 72 98q28 42 59 98z" />
    <glyph glyph-name="Z" unicode="Z" horiz-adv-x="837" 
d="M1160 1306q32 -40 18 -95q-8 -34 -36 -82q-34 -60 -94 -130q-60 -72 -149 -165q-91 -95 -279 -281q-4 -4 -155 -146q-11 -10 -37.5 -35.5t-40.5 -38.5q-58 -54 -192 -186q-4 -5 -13 -13t-11 -11q-4 -3 -3 -5q1 -1 6 0q113 43 233 65q65 11 108 16q5 0 87 9h2q14 1 40 2.5
t40 2t40 -0.5q11 -1 39.5 -2.5t44.5 -3.5q35 -3 109 -12q4 0 30 -4q10 -1 16 0q12 3 30 -8q9 -6 7 -15q-3 -13 -16 -12q-7 0 -30 3q-118 15 -127 16q-50 5 -71 5q-8 0 -25.5 1.5t-26.5 1.5q-66 -2 -114 -6q-79 -6 -172 -23q-140 -24 -263 -75q-35 -15 -71 -39q-10 -6 -14 -8
q-10 -4 -16 4q-7 8 -2 17q3 5 9 11q91 83 138 130.5t154 149.5q99 95 144 137q146 135 373 368q102 104 174 195q50 61 79 115q20 35 26 63q5 22 0 41q-8 27 -35 43q-12 8 -23 10q-34 7 -59 5q-48 -4 -90 -12q-111 -20 -206 -54q-115 -42 -215 -93q-69 -35 -124 -69
q-19 -12 -24 -19q-3 -4 -8 -6q-1 -1 -9.5 -4t-12.5 -4q-11 -4 -17 5.5t3 18.5q1 1 10 7q55 38 126 76q162 87 314 134q86 27 181 43q35 5 75 8q38 3 74 -9q30 -11 51 -36z" />
    <glyph glyph-name="bracketleft" unicode="[" horiz-adv-x="437" 
d="M635 1062q11 -3 11 -14q0 -12 -12 -14q-6 -2 -13 -1q-27 3 -76.5 9t-68.5 8q-5 0 -29 3q-7 0 -9 -6q-2 -5 -5 -14q-10 -37 -30 -110t-31 -109q-13 -47 -33.5 -121t-38.5 -139t-34 -121q-18 -67 -54 -195.5t-53 -189.5q-11 -39 -31.5 -113.5t-24.5 -89.5q-4 -13 -5 -18
q-2 -9 8 -10h17h76h77h16q16 -2 16 -15t-16 -16h-15h-100v-1h-97q-13 0 -17 1q-8 1 -11.5 8t0.5 13q5 6 9 13.5t6.5 16t4 15.5t4 16.5t4.5 15.5q27 98 124 445q18 63 53.5 192t53.5 195q4 12 80 283q1 6 3.5 14t4 14t3.5 13l4 14l4 14q2 9 4 12q7 16 22 10q12 -6 35 -8
q12 -1 26 -2.5t31 -3.5t26 -3l24 -3l24 -3t28 -3q3 -1 5 -2z" />
    <glyph glyph-name="backslash" unicode="\" horiz-adv-x="392" 
d="M340 -123q0 -1 2 -10q0 -15 -12 -18.5t-18 10.5q-2 5 -5 16q-18 80 -56 243q-15 67 -43 190.5t-39 167.5q-10 47 -38 169.5t-44 188.5q-4 18 -16 70.5t-18 80.5q-3 10 -3 13q-2 17 12 20q13 2 19 -13q1 -5 5 -19q11 -49 24.5 -108.5t28 -123.5t25.5 -108q9 -42 20.5 -91
t20 -87.5t20.5 -91.5t21 -88q72 -314 82 -359z" />
    <glyph glyph-name="bracketright" unicode="]" horiz-adv-x="527" 
d="M464 1044q10 -3 12 -10t-4 -15q-8 -8 -13 -24q-57 -202 -115 -402q-70 -244 -138 -478q-16 -57 -46.5 -162.5t-36.5 -126.5q-1 -1 -1.5 -4t-1.5 -5q-2 -8 4 -15q11 -11 4 -21q-12 -18 -27 -10q-10 5 -31 7q-36 2 -100 8q-13 1 -17 0q-5 -1 -11 2q-7 3 -8 11t7 13
q5 4 14 4h24v1q6 -1 26 -2.5t33.5 -2.5t25.5 -2h2.5t1.5 -1q11 0 14 2t6 12q4 13 27 91q81 282 95 330q15 54 56 196t63 220q18 62 51.5 177.5t42.5 146.5l6 24q2 7 -6 8q-11 3 -15 3q-12 1 -34 2.5t-31 2.5q-39 2 -58 4q-6 1 -14 4t-8 11q-1 9 8 13q7 4 13 2
q17 -2 49.5 -2.5t47.5 -2.5q10 -2 59 -5q17 -1 24 -4z" />
    <glyph glyph-name="asciicircum" unicode="^" horiz-adv-x="404" 
d="M346 869q-1 -17 -2 -105v-34t-1 -37q0 -11 4 -18q2 -5 -0.5 -11t-8.5 -10t-11 -4q-12 1 -15 12q-2 6 -2 15v57q4 136 4 155q1 10 2 28.5t1 21.5v10q0 1 -1 1q-3 1 -3 0q-17 -18 -24 -26q-43 -49 -69 -76q-88 -87 -121 -117q-16 -14 -23 -18q-9 -5 -16 -2q-8 3 -9.5 10
t4.5 12q24 20 64.5 61t49.5 49q42 40 128 138q10 12 17 20q6 6 10 8q8 6 16 3t11 -12q4 -8 3 -18q-7 -97 -8 -113z" />
    <glyph glyph-name="underscore" unicode="_" horiz-adv-x="410" 
d="M349 105q11 -4 11 -16q-1 -11 -14 -13q-5 -1 -16 -1h-123h-127q-11 0 -18 2q-12 3 -12 15t14 14q4 1 13 1h253q14 0 19 -2z" />
    <glyph glyph-name="grave" unicode="`" horiz-adv-x="217" 
d="M161 924q7 -3 6 -10q0 -3 -1 -5.5t-3 -6.5q-39 -63 -43 -70q-7 -11 -20 -33t-19 -32t-8 -11q-3 -4 -6 -6q-6 -4 -12 0q-5 3 -5 11q0 3 4 10l53 86q4 6 11.5 20t12.5 21q11 16 12 18q3 5 6 7q6 5 12 1z" />
    <glyph glyph-name="a" unicode="a" horiz-adv-x="490" 
d="M544 347q10 -1 13.5 -9.5t-2.5 -16.5q-4 -4 -9 -8q-67 -45 -79 -52q-38 -23 -78 -34q-18 -5 -36 -4q-88 4 -120 79q-9 22 -15 44q-1 5 -4 12q-2 6 -8 2q-2 -3 -8 -8q-55 -55 -77 -78q-24 -24 -51 -44q-11 -9 -24 -14q-9 -4 -18 -4q-12 -1 -19 5.5t-8 18.5q-2 16 1 30
q26 96 90 151q7 7 14 12q33 24 75 13q31 -8 54 -45q9 -16 13 -39q4 -29 24 -60q23 -38 73 -43q24 -3 53 8q34 12 65 33q8 5 23 15t22 15q9 6 14 14q7 10 22 7zM191 392l2 5l-4 6q-11 9 -27 10q-23 2 -45 -16q-50 -42 -74 -109q-3 -7 -10 -32q-2 -6 2 -8q2 -2 7 1
q22 14 42 34q22 22 98 99q5 5 9 10z" />
    <glyph glyph-name="a" unicode="&#xe5;" horiz-adv-x="490" 
d="M544 347q10 -1 13.5 -9.5t-2.5 -16.5q-4 -4 -9 -8q-67 -45 -79 -52q-38 -23 -78 -34q-18 -5 -36 -4q-88 4 -120 79q-9 22 -15 44q-1 5 -4 12q-2 6 -8 2q-2 -3 -8 -8q-55 -55 -77 -78q-24 -24 -51 -44q-11 -9 -24 -14q-9 -4 -18 -4q-12 -1 -19 5.5t-8 18.5q-2 16 1 30
q26 96 90 151q7 7 14 12q33 24 75 13q31 -8 54 -45q9 -16 13 -39q4 -29 24 -60q23 -38 73 -43q24 -3 53 8q34 12 65 33q8 5 23 15t22 15q9 6 14 14q7 10 22 7zM191 392l2 5l-4 6q-11 9 -27 10q-23 2 -45 -16q-50 -42 -74 -109q-3 -7 -10 -32q-2 -6 2 -8q2 -2 7 1
q22 14 42 34q22 22 98 99q5 5 9 10z" />
    <glyph glyph-name="a" unicode="&#xe4;" horiz-adv-x="490" 
d="M544 347q10 -1 13.5 -9.5t-2.5 -16.5q-4 -4 -9 -8q-67 -45 -79 -52q-38 -23 -78 -34q-18 -5 -36 -4q-88 4 -120 79q-9 22 -15 44q-1 5 -4 12q-2 6 -8 2q-2 -3 -8 -8q-55 -55 -77 -78q-24 -24 -51 -44q-11 -9 -24 -14q-9 -4 -18 -4q-12 -1 -19 5.5t-8 18.5q-2 16 1 30
q26 96 90 151q7 7 14 12q33 24 75 13q31 -8 54 -45q9 -16 13 -39q4 -29 24 -60q23 -38 73 -43q24 -3 53 8q34 12 65 33q8 5 23 15t22 15q9 6 14 14q7 10 22 7zM191 392l2 5l-4 6q-11 9 -27 10q-23 2 -45 -16q-50 -42 -74 -109q-3 -7 -10 -32q-2 -6 2 -8q2 -2 7 1
q22 14 42 34q22 22 98 99q5 5 9 10z" />
    <glyph glyph-name="a" unicode="&#xe3;" horiz-adv-x="490" 
d="M544 347q10 -1 13.5 -9.5t-2.5 -16.5q-4 -4 -9 -8q-67 -45 -79 -52q-38 -23 -78 -34q-18 -5 -36 -4q-88 4 -120 79q-9 22 -15 44q-1 5 -4 12q-2 6 -8 2q-2 -3 -8 -8q-55 -55 -77 -78q-24 -24 -51 -44q-11 -9 -24 -14q-9 -4 -18 -4q-12 -1 -19 5.5t-8 18.5q-2 16 1 30
q26 96 90 151q7 7 14 12q33 24 75 13q31 -8 54 -45q9 -16 13 -39q4 -29 24 -60q23 -38 73 -43q24 -3 53 8q34 12 65 33q8 5 23 15t22 15q9 6 14 14q7 10 22 7zM191 392l2 5l-4 6q-11 9 -27 10q-23 2 -45 -16q-50 -42 -74 -109q-3 -7 -10 -32q-2 -6 2 -8q2 -2 7 1
q22 14 42 34q22 22 98 99q5 5 9 10z" />
    <glyph glyph-name="a" unicode="&#xe2;" horiz-adv-x="490" 
d="M544 347q10 -1 13.5 -9.5t-2.5 -16.5q-4 -4 -9 -8q-67 -45 -79 -52q-38 -23 -78 -34q-18 -5 -36 -4q-88 4 -120 79q-9 22 -15 44q-1 5 -4 12q-2 6 -8 2q-2 -3 -8 -8q-55 -55 -77 -78q-24 -24 -51 -44q-11 -9 -24 -14q-9 -4 -18 -4q-12 -1 -19 5.5t-8 18.5q-2 16 1 30
q26 96 90 151q7 7 14 12q33 24 75 13q31 -8 54 -45q9 -16 13 -39q4 -29 24 -60q23 -38 73 -43q24 -3 53 8q34 12 65 33q8 5 23 15t22 15q9 6 14 14q7 10 22 7zM191 392l2 5l-4 6q-11 9 -27 10q-23 2 -45 -16q-50 -42 -74 -109q-3 -7 -10 -32q-2 -6 2 -8q2 -2 7 1
q22 14 42 34q22 22 98 99q5 5 9 10z" />
    <glyph glyph-name="a" unicode="&#xe1;" horiz-adv-x="490" 
d="M544 347q10 -1 13.5 -9.5t-2.5 -16.5q-4 -4 -9 -8q-67 -45 -79 -52q-38 -23 -78 -34q-18 -5 -36 -4q-88 4 -120 79q-9 22 -15 44q-1 5 -4 12q-2 6 -8 2q-2 -3 -8 -8q-55 -55 -77 -78q-24 -24 -51 -44q-11 -9 -24 -14q-9 -4 -18 -4q-12 -1 -19 5.5t-8 18.5q-2 16 1 30
q26 96 90 151q7 7 14 12q33 24 75 13q31 -8 54 -45q9 -16 13 -39q4 -29 24 -60q23 -38 73 -43q24 -3 53 8q34 12 65 33q8 5 23 15t22 15q9 6 14 14q7 10 22 7zM191 392l2 5l-4 6q-11 9 -27 10q-23 2 -45 -16q-50 -42 -74 -109q-3 -7 -10 -32q-2 -6 2 -8q2 -2 7 1
q22 14 42 34q22 22 98 99q5 5 9 10z" />
    <glyph glyph-name="a" unicode="&#xe0;" horiz-adv-x="490" 
d="M544 347q10 -1 13.5 -9.5t-2.5 -16.5q-4 -4 -9 -8q-67 -45 -79 -52q-38 -23 -78 -34q-18 -5 -36 -4q-88 4 -120 79q-9 22 -15 44q-1 5 -4 12q-2 6 -8 2q-2 -3 -8 -8q-55 -55 -77 -78q-24 -24 -51 -44q-11 -9 -24 -14q-9 -4 -18 -4q-12 -1 -19 5.5t-8 18.5q-2 16 1 30
q26 96 90 151q7 7 14 12q33 24 75 13q31 -8 54 -45q9 -16 13 -39q4 -29 24 -60q23 -38 73 -43q24 -3 53 8q34 12 65 33q8 5 23 15t22 15q9 6 14 14q7 10 22 7zM191 392l2 5l-4 6q-11 9 -27 10q-23 2 -45 -16q-50 -42 -74 -109q-3 -7 -10 -32q-2 -6 2 -8q2 -2 7 1
q22 14 42 34q22 22 98 99q5 5 9 10z" />
    <glyph glyph-name="b" unicode="b" horiz-adv-x="424" 
d="M526 367q7 -4 8.5 -11.5t-4.5 -13.5q-4 -4 -10 -7q-9 -4 -18 -7q-63 -20 -194 -76q-2 -1 -10 -4.5t-13 -5.5q-13 -5 -19 -18q-21 -45 -65 -107q-37 -54 -80 -88q-14 -12 -25 -16q-11 -5 -20 -6q-14 -1 -22.5 6.5t-9.5 21.5q-2 20 8 43q18 42 53 81q31 35 87 70
q21 13 44 25q12 7 17 18q28 67 35 101q2 10 5 40q1 9 -2.5 20.5t-13.5 6.5q-11 -6 -24 -18q-40 -37 -63 -64q-78 -91 -129 -169q-23 -35 -30 -58q-1 -3 -3 -6q-5 -7 -13.5 -6.5t-12.5 8.5q-3 6 -1 17q12 80 23 132l3 12q3 10 -3 18q-7 9 -5.5 18.5t11.5 14.5q11 5 14 18
q18 69 41 141q46 146 85 235q43 100 91 169q16 22 35 39q15 12 32 12q31 -1 35 -30q2 -17 -1 -35q-18 -114 -67 -219q-46 -96 -127 -213q-50 -73 -91 -120q-7 -9 -10 -18q-2 -10 -8 -36t-9 -41l1 -6q4 3 19 23q80 108 138 166q25 24 41 36q12 9 21 12q33 12 48 -19
q6 -13 7 -31q1 -21 -5 -54q-6 -31 -18 -60q0 -2 -8 -22q4 -3 12 0q19 8 54.5 22.5t48.5 19.5q33 14 67 25q23 7 32 14q8 6 18 0zM98 430q0 -1 -6 -21q1 0 1.5 -0.5l0.5 -0.5q16 21 17 22q45 65 67 99q47 70 86 150q32 69 52 141q8 29 14 75q1 2 1.5 5.5t1 5.5t0 5t-2 5
t-4.5 3q-8 3 -19 -11l-2 -2q-13 -16 -22 -30q-50 -74 -88 -166q-48 -116 -97 -280zM216 199q2 3 1 5q-3 1 -8 -3q-36 -24 -43 -30q-40 -30 -70 -76q-10 -17 -18 -41q-1 -4 -1 -9q0 -4 3 -3q7 2 11 4q18 14 26 21q47 44 99 132z" />
    <glyph glyph-name="c" unicode="c" horiz-adv-x="500" 
d="M576 341q6 -9 0 -17q-4 -6 -8 -10q-9 -7 -19 -13q-201 -125 -247 -153q-82 -51 -153 -72q-36 -11 -62 -10q-18 1 -33 7q-47 17 -54 72v5v12q0 28 13 73q16 54 44 100q48 80 101 127q33 30 68 45q17 8 43 12q16 2 34 -5q16 -7 25 -22.5t7 -33.5q-1 -18 -6 -31
q-13 -43 -30 -72q-2 -2 -4 -6.5t-3 -7.5q-4 -6 -7 -8q-8 -7 -16 -2q-10 6 -7 16q2 7 7 17q14 26 27 63q7 21 6 35q-1 27 -27 25q-21 -1 -40 -10q-27 -13 -48 -32q-80 -71 -126 -172q-23 -52 -29 -104q-2 -18 5 -38q5 -17 22 -26q24 -11 55 -5q42 8 98 35q38 17 98 55
q39 24 113 70t107 67q10 6 18 16q6 8 14 7.5t14 -9.5z" />
    <glyph glyph-name="c" unicode="&#xe7;" horiz-adv-x="500" 
d="M576 341q6 -9 0 -17q-4 -6 -8 -10q-9 -7 -19 -13q-201 -125 -247 -153q-82 -51 -153 -72q-36 -11 -62 -10q-18 1 -33 7q-47 17 -54 72v5v12q0 28 13 73q16 54 44 100q48 80 101 127q33 30 68 45q17 8 43 12q16 2 34 -5q16 -7 25 -22.5t7 -33.5q-1 -18 -6 -31
q-13 -43 -30 -72q-2 -2 -4 -6.5t-3 -7.5q-4 -6 -7 -8q-8 -7 -16 -2q-10 6 -7 16q2 7 7 17q14 26 27 63q7 21 6 35q-1 27 -27 25q-21 -1 -40 -10q-27 -13 -48 -32q-80 -71 -126 -172q-23 -52 -29 -104q-2 -18 5 -38q5 -17 22 -26q24 -11 55 -5q42 8 98 35q38 17 98 55
q39 24 113 70t107 67q10 6 18 16q6 8 14 7.5t14 -9.5z" />
    <glyph glyph-name="d" unicode="d" horiz-adv-x="444" 
d="M533 999q10 -5 10 -15q0 -18 -11 -24q-7 -4 -13 -16q-33 -57 -37 -65q-64 -120 -126 -247q-55 -114 -105 -253q-6 -18 -4 -28q2 -9 -6 -16.5t-5 -18.5t-6 -18q-7 -5 -11 -17q-50 -157 -66 -270q-1 -10 -4 -35q-1 -20 5 -44q4 -15 18 -7q8 4 21 18q41 38 81 98
q64 95 137 213q3 6 46 77q9 14 9 26q0 9 9 15.5t19 5.5q7 0 11 -5.5t3 -12.5q0 -7 -7 -17q-42 -71 -44 -76q-71 -116 -141 -222q-33 -49 -67 -90q-18 -21 -41 -43q-14 -13 -31 -20q-36 -15 -51 21q-7 18 -9 43q-1 25 5 63q16 110 50 218q4 11 14 45q2 7 -0.5 8t-8.5 -3
q-34 -27 -54 -46q-8 -7 -48 -44q-12 -11 -23 -17q-9 -5 -17 -7q-21 -5 -30 15q-6 12 -5 30q1 22 5 38q14 59 38 103q14 25 32 42q32 31 75 18q33 -11 53 -34q7 -10 11 -10q2 1 8 16t22 57.5t25 65.5q23 60 63 142q70 143 134 260q16 31 39 64q8 12 13 16q8 6 15 3zM184 332
q6 5 7 9t-4 11q-16 25 -41 34q-13 7 -26 4.5t-28 -16.5q-9 -10 -18 -26q-25 -44 -37 -96q-5 -20 -4 -26v-9q1 -5 2 -6q3 -3 8 1q26 22 31 27q51 50 102 87q5 4 8 6z" />
    <glyph glyph-name="e" unicode="e" horiz-adv-x="329" 
d="M444 349q15 -13 3 -26q-5 -5 -12 -9q-76 -48 -139 -80q-51 -25 -101 -38q-41 -11 -72 -11q-32 0 -65 12q-24 8 -40 27q-18 21 -18 46q0 28 5 46q1 2 2 6.5t1 5.5q2 8 2 9q5 7 16 24t18 25q37 42 91 51q17 2 33 -4q17 -6 23 -20.5t-2 -30.5q-5 -10 -15 -21
q-18 -19 -43 -33q-20 -12 -39 -18q-29 -10 -47 -7q-10 1 -12 -7q-4 -24 2 -39.5t27 -26.5q18 -10 46 -12q35 -3 69 6q59 15 109 41q71 36 117 66q11 8 16 15q10 16 25 3zM51 341q-1 -4 0.5 -6t4.5 -1h6q48 13 76 37q14 12 19 21l2 5q-1 5 -5 7q-7 3 -20 0q-34 -6 -61 -33
q-12 -12 -22 -30z" />
    <glyph glyph-name="e" unicode="&#xeb;" horiz-adv-x="329" 
d="M444 349q15 -13 3 -26q-5 -5 -12 -9q-76 -48 -139 -80q-51 -25 -101 -38q-41 -11 -72 -11q-32 0 -65 12q-24 8 -40 27q-18 21 -18 46q0 28 5 46q1 2 2 6.5t1 5.5q2 8 2 9q5 7 16 24t18 25q37 42 91 51q17 2 33 -4q17 -6 23 -20.5t-2 -30.5q-5 -10 -15 -21
q-18 -19 -43 -33q-20 -12 -39 -18q-29 -10 -47 -7q-10 1 -12 -7q-4 -24 2 -39.5t27 -26.5q18 -10 46 -12q35 -3 69 6q59 15 109 41q71 36 117 66q11 8 16 15q10 16 25 3zM51 341q-1 -4 0.5 -6t4.5 -1h6q48 13 76 37q14 12 19 21l2 5q-1 5 -5 7q-7 3 -20 0q-34 -6 -61 -33
q-12 -12 -22 -30z" />
    <glyph glyph-name="e" unicode="&#xea;" horiz-adv-x="329" 
d="M444 349q15 -13 3 -26q-5 -5 -12 -9q-76 -48 -139 -80q-51 -25 -101 -38q-41 -11 -72 -11q-32 0 -65 12q-24 8 -40 27q-18 21 -18 46q0 28 5 46q1 2 2 6.5t1 5.5q2 8 2 9q5 7 16 24t18 25q37 42 91 51q17 2 33 -4q17 -6 23 -20.5t-2 -30.5q-5 -10 -15 -21
q-18 -19 -43 -33q-20 -12 -39 -18q-29 -10 -47 -7q-10 1 -12 -7q-4 -24 2 -39.5t27 -26.5q18 -10 46 -12q35 -3 69 6q59 15 109 41q71 36 117 66q11 8 16 15q10 16 25 3zM51 341q-1 -4 0.5 -6t4.5 -1h6q48 13 76 37q14 12 19 21l2 5q-1 5 -5 7q-7 3 -20 0q-34 -6 -61 -33
q-12 -12 -22 -30z" />
    <glyph glyph-name="e" unicode="&#xe9;" horiz-adv-x="329" 
d="M444 349q15 -13 3 -26q-5 -5 -12 -9q-76 -48 -139 -80q-51 -25 -101 -38q-41 -11 -72 -11q-32 0 -65 12q-24 8 -40 27q-18 21 -18 46q0 28 5 46q1 2 2 6.5t1 5.5q2 8 2 9q5 7 16 24t18 25q37 42 91 51q17 2 33 -4q17 -6 23 -20.5t-2 -30.5q-5 -10 -15 -21
q-18 -19 -43 -33q-20 -12 -39 -18q-29 -10 -47 -7q-10 1 -12 -7q-4 -24 2 -39.5t27 -26.5q18 -10 46 -12q35 -3 69 6q59 15 109 41q71 36 117 66q11 8 16 15q10 16 25 3zM51 341q-1 -4 0.5 -6t4.5 -1h6q48 13 76 37q14 12 19 21l2 5q-1 5 -5 7q-7 3 -20 0q-34 -6 -61 -33
q-12 -12 -22 -30z" />
    <glyph glyph-name="e" unicode="&#xe8;" horiz-adv-x="329" 
d="M444 349q15 -13 3 -26q-5 -5 -12 -9q-76 -48 -139 -80q-51 -25 -101 -38q-41 -11 -72 -11q-32 0 -65 12q-24 8 -40 27q-18 21 -18 46q0 28 5 46q1 2 2 6.5t1 5.5q2 8 2 9q5 7 16 24t18 25q37 42 91 51q17 2 33 -4q17 -6 23 -20.5t-2 -30.5q-5 -10 -15 -21
q-18 -19 -43 -33q-20 -12 -39 -18q-29 -10 -47 -7q-10 1 -12 -7q-4 -24 2 -39.5t27 -26.5q18 -10 46 -12q35 -3 69 6q59 15 109 41q71 36 117 66q11 8 16 15q10 16 25 3zM51 341q-1 -4 0.5 -6t4.5 -1h6q48 13 76 37q14 12 19 21l2 5q-1 5 -5 7q-7 3 -20 0q-34 -6 -61 -33
q-12 -12 -22 -30z" />
    <glyph glyph-name="f" unicode="f" horiz-adv-x="291" 
d="M401.5 334.5q7.5 -9.5 0.5 -19.5q-4 -5 -10 -9q-87 -58 -145 -82q-35 -15 -74 -25q-35 -10 -63 -10h-7q-7 -1 -9 -3.5t-2 -8.5q1 -11 2 -20q8 -59 8 -138q-1 -53 -8 -134q-5 -66 -15 -112q-12 -55 -33 -95q-9 -18 -21 -28q-8 -8 -15 -11q-21 -11 -37 8q-7 10 -11 25
q-7 28 -7 70q5 62 5 67q2 15 5 42.5t4 35.5q5 51 20 125q29 135 77 290q41 137 109 302q31 74 72 153q13 25 29 48q6 9 11 12q9 6 16 2q9 -5 7 -16q0 -7 -4 -10q-6 -7 -12.5 -16.5t-9.5 -15.5t-9 -19t-8 -17q-42 -82 -86 -194q-46 -115 -81 -226q-5 -17 -21 -70
q-2 -7 -2.5 -11t4.5 -5h2q65 5 100 16q87 26 189 96q9 6 11 7q11 6 18.5 -3.5zM63 -96q7 85 7 130q0 6 -0.5 13t-0.5 13.5t-0.5 12.5t-1 13t-0.5 13q-1 23 -6 63q-3 -3 -5 -12q-17 -60 -32 -128q-18 -88 -24 -147q-7 -69 -8 -76q-5 -36 -3 -97q1 -11 5 -25q3 -9 10 -2
q11 9 19 27q19 44 28 97q8 48 12 105z" />
    <glyph glyph-name="g" unicode="g" horiz-adv-x="483" 
d="M579 362q7 -4 8.5 -11.5t-3.5 -13.5q-3 -5 -16 -12q-4 -3 -28 -17t-36 -22q-150 -97 -210 -137q-5 -3 -18 -12t-20 -14q-11 -8 -16 -22q-4 -13 -12.5 -37t-12.5 -35q-24 -74 -72 -178q-35 -77 -90 -155q-32 -45 -68 -79q-18 -18 -40 -31q-18 -11 -38 -15
q-15 -2 -28.5 1.5t-24 13.5t-14.5 25q-9 25 -7 55q4 53 41 119q39 69 102 138q81 89 220 195q9 7 12 9q9 6 12 18q9 26 24.5 75t20.5 64q1 3 2 10q1 2 -1 3.5t-4 0.5q-11 -5 -18 -9q-21 -12 -104 -67q-30 -20 -66 -38q-10 -6 -17 -8q-9 -2 -16.5 -0.5t-13.5 7.5t-8 16
q-2 11 1 26q5 24 17 53q26 61 78 103q15 12 32 19q48 21 92 -6q8 -5 21 -16q3 -3 8 -8.5t7 -6.5q6 -6 8.5 -5t5.5 10q0 2 1 6l1 3q15 60 18 71q2 9 4 12q5 7 13 6t11 -9q4 -10 1 -24q-23 -97 -42 -158q-4 -13 -13.5 -43t-14.5 -46q-5 -13 -4 -16q3 -1 8 3q8 5 80 52t109 72
q15 9 70 43q13 8 18 15q12 17 30 7zM254 331q5 3 1 8q-21 22 -42 33q-10 5 -27 5q-24 1 -50 -20q-65 -53 -85 -139v-3q-1 -3 1 -4.5t5 0.5q4 1 8 4q40 22 67 40q72 48 106 67q12 7 16 9zM194 65q2 7 0 9q-3 0 -11 -6q-36 -29 -51 -41q-104 -87 -168 -166q-50 -62 -81 -130
q-20 -43 -17 -90q2 -16 7 -26q6 -12 20 -13q6 0 15 3q15 4 31 16q30 20 57 54q66 79 114 181q8 16 28 63q28 62 56 146z" />
    <glyph glyph-name="h" unicode="h" horiz-adv-x="575" 
d="M627 347q13 -6 9 -18q-1 -6 -4.5 -10.5t-10.5 -11.5q-24 -25 -71 -72.5t-53 -53.5q-34 -35 -81 -72q-16 -12 -30 -19q-9 -4 -17 -6q-26 -6 -36 19q-4 11 -5 27q-2 25 1 47q5 44 12 103q2 20 -4 47q0 3 -2 7q-5 10 -15 6q-20 -7 -40 -21q-24 -17 -46 -37
q-70 -67 -129 -142q-7 -9 -20 -25.5t-19 -24.5q-1 -1 -26 -34q-7 -10 -8 -11q-11 -11 -21 2q-1 1 -3 4.5t-3 4.5q-7 9 -4 21q3 10 7.5 27.5t6.5 23.5q40 148 44 165q3 10 17 57q30 102 88 238q44 102 109 204q23 37 56 76q14 17 33 30q17 11 34 11q18 -1 28 -16q8 -12 9 -26
q1 -23 -3 -39q-7 -33 -30 -84q-48 -102 -129 -216q-40 -57 -132 -169q-12 -15 -24 -26q-15 -13 -21 -36q-5 -17 -38 -141q-5 -19 -7 -27q-1 -2 1 -3q2 -2 4 1q18 22 25 31q65 83 132 146q34 32 65 50q21 14 37 17q38 10 52 -26q9 -24 8 -55q0 -5 -5 -58q-1 -10 -9 -76
q-1 -8 3 -33q2 -8 9 -5q12 7 17 11q30 22 44 35q52 45 91 88q10 12 31 33t24 25q28 29 31 33q7 10 18 4zM131 415q-4 -12 -2 -14q3 0 8 6q79 98 112 145q82 116 125 213q19 44 25 71q3 13 2 24q-1 23 -22 11q-13 -8 -28 -27q-29 -34 -55 -75q-64 -102 -113 -219
q-33 -80 -52 -135z" />
    <glyph glyph-name="i" unicode="i" horiz-adv-x="220" 
d="M313 343q8 -1 11 -8.5t-1 -14.5q-2 -4 -7 -8q-98 -97 -154 -142q-42 -33 -76 -50q-21 -10 -39 -9q-21 0 -33 18q-7 9 -10 20t-4 23v27q3 95 50 177q6 11 12 16q10 8 19 4t9 -15q1 -21 -12 -27q-7 -3 -12 -14q-22 -52 -31 -102q-4 -22 -3 -55q0 -13 4 -26q6 -18 24 -13
q9 3 20 9q14 7 26 15q33 24 79 63q18 15 49.5 46t46.5 44q4 3 9.5 9.5t7.5 8.5q7 6 15 4zM111 429q-8 -1 -16.5 2t-15 9t-9.5 14.5t0.5 18.5t5.5 14q6 14 14.5 18.5t27.5 2.5h9q7 0 13 -4t10 -10t5 -13q1 -15 -9 -30q-12 -17 -35 -22z" />
    <glyph glyph-name="i" unicode="&#xef;" horiz-adv-x="220" 
d="M313 343q8 -1 11 -8.5t-1 -14.5q-2 -4 -7 -8q-98 -97 -154 -142q-42 -33 -76 -50q-21 -10 -39 -9q-21 0 -33 18q-7 9 -10 20t-4 23v27q3 95 50 177q6 11 12 16q10 8 19 4t9 -15q1 -21 -12 -27q-7 -3 -12 -14q-22 -52 -31 -102q-4 -22 -3 -55q0 -13 4 -26q6 -18 24 -13
q9 3 20 9q14 7 26 15q33 24 79 63q18 15 49.5 46t46.5 44q4 3 9.5 9.5t7.5 8.5q7 6 15 4zM111 429q-8 -1 -16.5 2t-15 9t-9.5 14.5t0.5 18.5t5.5 14q6 14 14.5 18.5t27.5 2.5h9q7 0 13 -4t10 -10t5 -13q1 -15 -9 -30q-12 -17 -35 -22z" />
    <glyph glyph-name="i" unicode="&#xee;" horiz-adv-x="220" 
d="M313 343q8 -1 11 -8.5t-1 -14.5q-2 -4 -7 -8q-98 -97 -154 -142q-42 -33 -76 -50q-21 -10 -39 -9q-21 0 -33 18q-7 9 -10 20t-4 23v27q3 95 50 177q6 11 12 16q10 8 19 4t9 -15q1 -21 -12 -27q-7 -3 -12 -14q-22 -52 -31 -102q-4 -22 -3 -55q0 -13 4 -26q6 -18 24 -13
q9 3 20 9q14 7 26 15q33 24 79 63q18 15 49.5 46t46.5 44q4 3 9.5 9.5t7.5 8.5q7 6 15 4zM111 429q-8 -1 -16.5 2t-15 9t-9.5 14.5t0.5 18.5t5.5 14q6 14 14.5 18.5t27.5 2.5h9q7 0 13 -4t10 -10t5 -13q1 -15 -9 -30q-12 -17 -35 -22z" />
    <glyph glyph-name="i" unicode="&#xed;" horiz-adv-x="220" 
d="M313 343q8 -1 11 -8.5t-1 -14.5q-2 -4 -7 -8q-98 -97 -154 -142q-42 -33 -76 -50q-21 -10 -39 -9q-21 0 -33 18q-7 9 -10 20t-4 23v27q3 95 50 177q6 11 12 16q10 8 19 4t9 -15q1 -21 -12 -27q-7 -3 -12 -14q-22 -52 -31 -102q-4 -22 -3 -55q0 -13 4 -26q6 -18 24 -13
q9 3 20 9q14 7 26 15q33 24 79 63q18 15 49.5 46t46.5 44q4 3 9.5 9.5t7.5 8.5q7 6 15 4zM111 429q-8 -1 -16.5 2t-15 9t-9.5 14.5t0.5 18.5t5.5 14q6 14 14.5 18.5t27.5 2.5h9q7 0 13 -4t10 -10t5 -13q1 -15 -9 -30q-12 -17 -35 -22z" />
    <glyph glyph-name="i" unicode="&#xec;" horiz-adv-x="220" 
d="M313 343q8 -1 11 -8.5t-1 -14.5q-2 -4 -7 -8q-98 -97 -154 -142q-42 -33 -76 -50q-21 -10 -39 -9q-21 0 -33 18q-7 9 -10 20t-4 23v27q3 95 50 177q6 11 12 16q10 8 19 4t9 -15q1 -21 -12 -27q-7 -3 -12 -14q-22 -52 -31 -102q-4 -22 -3 -55q0 -13 4 -26q6 -18 24 -13
q9 3 20 9q14 7 26 15q33 24 79 63q18 15 49.5 46t46.5 44q4 3 9.5 9.5t7.5 8.5q7 6 15 4zM111 429q-8 -1 -16.5 2t-15 9t-9.5 14.5t0.5 18.5t5.5 14q6 14 14.5 18.5t27.5 2.5h9q7 0 13 -4t10 -10t5 -13q1 -15 -9 -30q-12 -17 -35 -22z" />
    <glyph glyph-name="j" unicode="j" horiz-adv-x="253" 
d="M356 356q12 -12 0 -24q-5 -4 -15 -10q-17 -10 -47.5 -28t-55 -32.5t-46.5 -28.5q-27 -16 -76 -47.5t-61 -39.5q-14 -9 -19 -24q-29 -79 -51 -134q-39 -100 -92 -202q-35 -68 -83 -122q-21 -24 -46 -40q-19 -14 -38 -18q-27 -6 -49 4.5t-34 33.5q-9 19 -11 41
q-3 51 22 107q26 59 74 118q64 80 155 151q49 40 113 83q19 12 26 34l62 186q8 22 9 34q0 9 6 17q6 7 13 6q9 -1 12 -10q2 -6 1 -15q-3 -21 -11 -44q-5 -14 -14.5 -42.5t-14.5 -41.5q-2 -6 -25 -76q6 0 16 6q98 63 155 96t65 38q30 18 36 25q11 11 24 -1zM-10 91q1 3 -1 5
t-7 0q0 -1 -7 -6q-73 -52 -122 -95q-71 -64 -117 -127q-46 -62 -63 -118q-9 -29 -9 -51q-1 -21 6 -37q16 -35 52 -24q13 4 27 13q22 16 44 42q45 54 83 129q60 121 111 260q2 7 3 9zM133 460q-11 -1 -20 8.5t-8 21.5q2 28 24 45q3 3 10 5q13 5 22 -5q9 -11 14 -22
q9 -18 -5 -34q-14 -18 -37 -19z" />
    <glyph glyph-name="k" unicode="k" horiz-adv-x="475" 
d="M525 352q10 -4 9 -17q0 -7 -4 -12q-7 -10 -12 -15q-38 -42 -57 -62q-46 -48 -105 -88q-37 -24 -83 -42q-34 -12 -62 -12q-51 0 -93 34q-21 17 -35 49q-4 10 -10 27.5t-8 21.5q-5 14 -7 15q-3 -2 -5 -11q-15 -58 -53 -226q-7 -30 -14 -61q-2 -9 -5 -14q-6 -15 -19 -12.5
t-14 18.5q-1 19 6 30q6 9 10 26q51 219 54 233q1 15 15 59q1 4 16 59q82 305 91 339q12 42 49 172q9 30 23 57q6 11 12 16q11 10 21 2q4 -4 5 -10.5t-3 -11.5l-6 -8t-4.5 -7.5t-3.5 -8.5t-3 -8.5t-3 -9t-3 -8.5q-18 -56 -52 -179q-19 -70 -77 -289l-5 -19q4 -2 8 2
q6 7 14 15q55 62 128 105q15 9 33 13q8 2 14 2q8 0 14.5 -2.5t10.5 -7t6.5 -10.5t3.5 -14q0 -15 -9 -34q-11 -24 -33 -50q-51 -59 -117 -100q-20 -13 -57 -26q-12 -4 -13.5 -7t1.5 -14q11 -37 24 -61q16 -30 46.5 -44.5t64.5 -8.5q33 6 80 30q30 16 72 50q37 29 102 99
q18 20 23 29q1 0 1 1q9 10 18 6zM82 302q1 -3 6 -2q2 1 9 3q28 8 54 25q37 24 78 62q21 20 43 50q8 12 15 28l2 6q0 5 -2 7.5t-5 1.5q-4 -1 -9 -2q-14 -5 -32 -17q-91 -58 -154 -150q-4 -6 -4 -7q-2 -3 -1 -5z" />
    <glyph glyph-name="l" unicode="l" horiz-adv-x="326" 
d="M407 330q11 -7 6 -18q-3 -10 -8 -16q-18 -24 -30 -39q-47 -54 -97 -100q-66 -61 -132 -100q-20 -12 -46 -22q-22 -8 -46 -6q-26 2 -38 24q-8 14 -10 25q-5 24 -6 30v33q0 58 15 137q0 3 1 4q2 5 1.5 19.5t4.5 19.5q3 5 5 11t3.5 14.5t2.5 12.5t3.5 12t4 14.5t3.5 12.5
q38 124 89 236q37 82 87 152q28 39 57 68q15 14 34 27q12 9 26 12.5t28 0.5q29 -9 31 -38q3 -33 -9 -66q-13 -36 -26 -61q-39 -78 -105 -172q-65 -95 -160 -199q-4 -4 -10 -10.5t-11.5 -12.5t-9.5 -11q-10 -11 -13 -25q-16 -77 -19 -133q-3 -41 1 -65q3 -18 9 -30
q5 -10 16 -10q15 -1 26 3q30 10 55 27q71 45 121 94q69 66 107 114q2 3 4.5 6t5 7t4.5 7q6 7 7 9q8 9 18 2zM78 398q0 -1 -2 -9q5 1 12 8q25 27 36 41q73 87 117 152q62 94 95 162q19 38 26 68q4 14 3 28q-2 20 -22 14q-9 -3 -20 -11q-22 -16 -45 -43q-52 -61 -94 -144
q-56 -109 -106 -266z" />
    <glyph glyph-name="m" unicode="m" horiz-adv-x="710" 
d="M777 340q11 -8 5 -19q-2 -6 -7 -11l-70 -77q-2 -2 -64 -71q-30 -33 -71 -60q-13 -8 -25 -12q-21 -5 -37 4t-22 29q-3 13 -4 27q-2 22 0 35q1 9 16 120q6 49 8 63q1 10 0 24q-1 12 -12 6t-20 -13q-27 -19 -46 -38q-80 -78 -108 -111q-6 -7 -17 -19q-6 -6 -10 -8
q-8 -6 -16 -2t-9 14q0 6 3 17q4 14 15 50.5t17 56.5q3 10 16.5 53t19.5 66q3 12 8 35q1 6 -2 9q-4 -1 -15 -12q-50 -48 -93 -100q-110 -135 -162 -207q-8 -11 -22 -32t-17 -25q-6 -9 -10 -13q-7 -6 -16 -3q-10 4 -10 14q0 5 2 11q54 185 79 247q5 13 15 34q3 6 8 10
q7 7 16 2q8 -5 6 -15q0 -2 -2 -7q-21 -52 -54 -154q-2 -5 -7 -24q-1 -3 1 -5q12 15 13 16q41 55 151 189q35 43 82 87q5 5 21 18q7 6 16 8q11 4 20 -1t13 -16q3 -12 0 -31q-7 -37 -18 -74q-1 -2 -38 -120l-4 -15q4 -2 8 2l1 2l35 35l39 39q32 31 67 53q16 10 27 13
q23 7 34 -14q7 -11 8 -29q0 -23 -6 -72q-2 -14 -5.5 -35t-6 -40t-4.5 -36q-4 -26 -2 -63q1 -7 2 -11q5 -19 23 -12q6 2 16 9q34 22 71 63q9 10 25 28t23 26q15 16 76 83q6 7 7 8q10 8 19 1z" />
    <glyph glyph-name="n" unicode="n" horiz-adv-x="432" 
d="M498 333q10 -7 4 -20l-6 -9q-96 -120 -114 -141q-10 -13 -47 -48q-16 -16 -35 -24q-11 -5 -19 -7q-35 -7 -46 27q-3 9 -3 17q-1 30 3 54q13 79 40 163q19 60 29 104q2 9 2 13q2 8 -1 10t-10 -3q-20 -14 -64 -52q-40 -35 -126 -121q-53 -54 -75 -91q-3 -5 -7 -8
q-7 -4 -14.5 -0.5t-8.5 11.5q0 6 1 13q30 126 51 177q5 13 9 18q8 8 17 4q11 -6 9 -17l-2 -6q-6 -13 -11 -28t-11.5 -37.5t-8.5 -29.5t0 -10q3 1 11 9l20 20l21 21l20.5 20.5t21.5 20.5q56 55 107 96q9 8 29 21q6 4 13 7q23 8 35 -13q6 -10 6 -21q1 -16 -2 -30
q-10 -41 -25 -90q-25 -81 -33 -120q-8 -42 -13 -72q-2 -12 -1 -31q1 -18 18 -12q14 5 27 16q38 36 58 61q15 18 32.5 39.5t37 46.5t32.5 40q6 9 10 11q9 8 19 1z" />
    <glyph glyph-name="n" unicode="&#xf1;" horiz-adv-x="432" 
d="M498 333q10 -7 4 -20l-6 -9q-96 -120 -114 -141q-10 -13 -47 -48q-16 -16 -35 -24q-11 -5 -19 -7q-35 -7 -46 27q-3 9 -3 17q-1 30 3 54q13 79 40 163q19 60 29 104q2 9 2 13q2 8 -1 10t-10 -3q-20 -14 -64 -52q-40 -35 -126 -121q-53 -54 -75 -91q-3 -5 -7 -8
q-7 -4 -14.5 -0.5t-8.5 11.5q0 6 1 13q30 126 51 177q5 13 9 18q8 8 17 4q11 -6 9 -17l-2 -6q-6 -13 -11 -28t-11.5 -37.5t-8.5 -29.5t0 -10q3 1 11 9l20 20l21 21l20.5 20.5t21.5 20.5q56 55 107 96q9 8 29 21q6 4 13 7q23 8 35 -13q6 -10 6 -21q1 -16 -2 -30
q-10 -41 -25 -90q-25 -81 -33 -120q-8 -42 -13 -72q-2 -12 -1 -31q1 -18 18 -12q14 5 27 16q38 36 58 61q15 18 32.5 39.5t37 46.5t32.5 40q6 9 10 11q9 8 19 1z" />
    <glyph glyph-name="o" unicode="o" horiz-adv-x="303" 
d="M393.5 366.5q12.5 -12.5 -0.5 -25.5q-5 -5 -16 -12q-73 -47 -157 -57q-2 0 -26 -1q-32 1 -40 3q-7 1 -10 -0.5t-6 -8.5q-2 -3 -4 -7t-3.5 -8t-3.5 -6q-14 -27 -37 -48q-16 -16 -33 -22q-20 -7 -34.5 0.5t-19.5 27.5q-4 16 -3 30q6 68 44 135q16 29 38 51q11 11 20 14
q20 7 26 -11q3 -8 13 -20q16 -19 17 -44q1 -22 -2 -38q-2 -11 9 -12q26 -3 51 -1q73 9 135 47q4 3 17 14.5t25.5 -1zM106 279q3 8 -5 14q-19 14 -29 36q-2 3 -4.5 3t-4.5 -3q-25 -52 -27 -99q1 -17 2 -19q1 -6 8 -4q4 1 5 2q36 23 55 70zM124 341v4v2q0 1 -0.5 6t-0.5 7
t-1 5.5t-3 6t-5 4.5q-3 1 -5.5 -3.5t-3.5 -12t0 -14.5q0 -4 1 -6q2 -7 6 -11t7 -3q3 2 5 15z" />
    <glyph glyph-name="o" unicode="&#xf8;" horiz-adv-x="303" 
d="M393.5 366.5q12.5 -12.5 -0.5 -25.5q-5 -5 -16 -12q-73 -47 -157 -57q-2 0 -26 -1q-32 1 -40 3q-7 1 -10 -0.5t-6 -8.5q-2 -3 -4 -7t-3.5 -8t-3.5 -6q-14 -27 -37 -48q-16 -16 -33 -22q-20 -7 -34.5 0.5t-19.5 27.5q-4 16 -3 30q6 68 44 135q16 29 38 51q11 11 20 14
q20 7 26 -11q3 -8 13 -20q16 -19 17 -44q1 -22 -2 -38q-2 -11 9 -12q26 -3 51 -1q73 9 135 47q4 3 17 14.5t25.5 -1zM106 279q3 8 -5 14q-19 14 -29 36q-2 3 -4.5 3t-4.5 -3q-25 -52 -27 -99q1 -17 2 -19q1 -6 8 -4q4 1 5 2q36 23 55 70zM124 341v4v2q0 1 -0.5 6t-0.5 7
t-1 5.5t-3 6t-5 4.5q-3 1 -5.5 -3.5t-3.5 -12t0 -14.5q0 -4 1 -6q2 -7 6 -11t7 -3q3 2 5 15z" />
    <glyph glyph-name="o" unicode="&#xf6;" horiz-adv-x="303" 
d="M393.5 366.5q12.5 -12.5 -0.5 -25.5q-5 -5 -16 -12q-73 -47 -157 -57q-2 0 -26 -1q-32 1 -40 3q-7 1 -10 -0.5t-6 -8.5q-2 -3 -4 -7t-3.5 -8t-3.5 -6q-14 -27 -37 -48q-16 -16 -33 -22q-20 -7 -34.5 0.5t-19.5 27.5q-4 16 -3 30q6 68 44 135q16 29 38 51q11 11 20 14
q20 7 26 -11q3 -8 13 -20q16 -19 17 -44q1 -22 -2 -38q-2 -11 9 -12q26 -3 51 -1q73 9 135 47q4 3 17 14.5t25.5 -1zM106 279q3 8 -5 14q-19 14 -29 36q-2 3 -4.5 3t-4.5 -3q-25 -52 -27 -99q1 -17 2 -19q1 -6 8 -4q4 1 5 2q36 23 55 70zM124 341v4v2q0 1 -0.5 6t-0.5 7
t-1 5.5t-3 6t-5 4.5q-3 1 -5.5 -3.5t-3.5 -12t0 -14.5q0 -4 1 -6q2 -7 6 -11t7 -3q3 2 5 15z" />
    <glyph glyph-name="o" unicode="&#xf5;" horiz-adv-x="303" 
d="M393.5 366.5q12.5 -12.5 -0.5 -25.5q-5 -5 -16 -12q-73 -47 -157 -57q-2 0 -26 -1q-32 1 -40 3q-7 1 -10 -0.5t-6 -8.5q-2 -3 -4 -7t-3.5 -8t-3.5 -6q-14 -27 -37 -48q-16 -16 -33 -22q-20 -7 -34.5 0.5t-19.5 27.5q-4 16 -3 30q6 68 44 135q16 29 38 51q11 11 20 14
q20 7 26 -11q3 -8 13 -20q16 -19 17 -44q1 -22 -2 -38q-2 -11 9 -12q26 -3 51 -1q73 9 135 47q4 3 17 14.5t25.5 -1zM106 279q3 8 -5 14q-19 14 -29 36q-2 3 -4.5 3t-4.5 -3q-25 -52 -27 -99q1 -17 2 -19q1 -6 8 -4q4 1 5 2q36 23 55 70zM124 341v4v2q0 1 -0.5 6t-0.5 7
t-1 5.5t-3 6t-5 4.5q-3 1 -5.5 -3.5t-3.5 -12t0 -14.5q0 -4 1 -6q2 -7 6 -11t7 -3q3 2 5 15z" />
    <glyph glyph-name="o" unicode="&#xf4;" horiz-adv-x="303" 
d="M393.5 366.5q12.5 -12.5 -0.5 -25.5q-5 -5 -16 -12q-73 -47 -157 -57q-2 0 -26 -1q-32 1 -40 3q-7 1 -10 -0.5t-6 -8.5q-2 -3 -4 -7t-3.5 -8t-3.5 -6q-14 -27 -37 -48q-16 -16 -33 -22q-20 -7 -34.5 0.5t-19.5 27.5q-4 16 -3 30q6 68 44 135q16 29 38 51q11 11 20 14
q20 7 26 -11q3 -8 13 -20q16 -19 17 -44q1 -22 -2 -38q-2 -11 9 -12q26 -3 51 -1q73 9 135 47q4 3 17 14.5t25.5 -1zM106 279q3 8 -5 14q-19 14 -29 36q-2 3 -4.5 3t-4.5 -3q-25 -52 -27 -99q1 -17 2 -19q1 -6 8 -4q4 1 5 2q36 23 55 70zM124 341v4v2q0 1 -0.5 6t-0.5 7
t-1 5.5t-3 6t-5 4.5q-3 1 -5.5 -3.5t-3.5 -12t0 -14.5q0 -4 1 -6q2 -7 6 -11t7 -3q3 2 5 15z" />
    <glyph glyph-name="o" unicode="&#xf3;" horiz-adv-x="303" 
d="M393.5 366.5q12.5 -12.5 -0.5 -25.5q-5 -5 -16 -12q-73 -47 -157 -57q-2 0 -26 -1q-32 1 -40 3q-7 1 -10 -0.5t-6 -8.5q-2 -3 -4 -7t-3.5 -8t-3.5 -6q-14 -27 -37 -48q-16 -16 -33 -22q-20 -7 -34.5 0.5t-19.5 27.5q-4 16 -3 30q6 68 44 135q16 29 38 51q11 11 20 14
q20 7 26 -11q3 -8 13 -20q16 -19 17 -44q1 -22 -2 -38q-2 -11 9 -12q26 -3 51 -1q73 9 135 47q4 3 17 14.5t25.5 -1zM106 279q3 8 -5 14q-19 14 -29 36q-2 3 -4.5 3t-4.5 -3q-25 -52 -27 -99q1 -17 2 -19q1 -6 8 -4q4 1 5 2q36 23 55 70zM124 341v4v2q0 1 -0.5 6t-0.5 7
t-1 5.5t-3 6t-5 4.5q-3 1 -5.5 -3.5t-3.5 -12t0 -14.5q0 -4 1 -6q2 -7 6 -11t7 -3q3 2 5 15z" />
    <glyph glyph-name="o" unicode="&#xf2;" horiz-adv-x="303" 
d="M393.5 366.5q12.5 -12.5 -0.5 -25.5q-5 -5 -16 -12q-73 -47 -157 -57q-2 0 -26 -1q-32 1 -40 3q-7 1 -10 -0.5t-6 -8.5q-2 -3 -4 -7t-3.5 -8t-3.5 -6q-14 -27 -37 -48q-16 -16 -33 -22q-20 -7 -34.5 0.5t-19.5 27.5q-4 16 -3 30q6 68 44 135q16 29 38 51q11 11 20 14
q20 7 26 -11q3 -8 13 -20q16 -19 17 -44q1 -22 -2 -38q-2 -11 9 -12q26 -3 51 -1q73 9 135 47q4 3 17 14.5t25.5 -1zM106 279q3 8 -5 14q-19 14 -29 36q-2 3 -4.5 3t-4.5 -3q-25 -52 -27 -99q1 -17 2 -19q1 -6 8 -4q4 1 5 2q36 23 55 70zM124 341v4v2q0 1 -0.5 6t-0.5 7
t-1 5.5t-3 6t-5 4.5q-3 1 -5.5 -3.5t-3.5 -12t0 -14.5q0 -4 1 -6q2 -7 6 -11t7 -3q3 2 5 15z" />
    <glyph glyph-name="p" unicode="p" horiz-adv-x="475" 
d="M549 338q1 -8 -7 -14q-4 -2 -16 -5q-69 -15 -78 -18q-86 -24 -173 -66q-19 -9 -29 -27q-27 -49 -55 -82q-17 -19 -38 -32t-39 -6q-25 9 -20 34q3 13 15 30q21 27 60 56q25 19 48 31q14 8 20 21q35 72 45 130q3 16 2 38v3q-4 23 -25 12q-5 -2 -13 -9q-22 -16 -47 -46
q-56 -64 -105 -147q-39 -67 -64 -122q-7 -16 -10 -30q-68 -266 -107 -465q-1 -6 -2.5 -17t-2.5 -16q-3 -13 -6 -18q-5 -9 -16 -7q-8 1 -12 10q-2 8 0 21q64 297 71 324q54 228 116 440q12 41 66 219q11 34 23 63q4 10 8 15q6 9 15 6q11 -4 10 -15q0 -4 -2 -9
q-10 -26 -19 -55.5t-21 -69t-17 -56.5q-6 -19 -53 -181q-2 -8 -1 -11q3 1 9 10q48 78 103 141q25 27 45 42q11 9 22 14q24 10 42.5 0.5t23.5 -35.5q4 -19 -2 -55q-5 -36 -26 -92q-3 -8 -4 -12q-1 -1 0.5 -2.5t2.5 -0.5q4 1 12 4q88 36 135 49q36 10 87 21q10 2 17 0
q11 -2 12 -13zM145 126q25 19 46 56q-42 -27 -62 -58v-2q-1 -1 0 -2q2 -1 3 -1q9 5 13 7z" />
    <glyph glyph-name="q" unicode="q" horiz-adv-x="412" 
d="M509 347q12 -1 15.5 -10t-2.5 -18q-4 -6 -14 -15q-66 -62 -132 -117q-83 -69 -159 -126q-21 -15 -49 -34q-13 -10 -18 -25t-37 -127q-4 -14 6 -26q34 -46 44 -96q9 -44 0 -85q-10 -41 -30 -84q-9 -17 -24 -31q-6 -5 -10 -7q-27 -16 -45 8q-19 25 -21 59q-2 39 6 78
q14 77 31 142v1v1q3 13 2 17t-12 14q-8 7 -22.5 20t-18.5 17q-10 9 -12 12q-13 15 -1 32q5 7 15 14q13 10 38 27.5l35 24.5q3 2 10 6.5t12 8.5t9 8.5t6.5 10.5t4.5 14l3 12q8 22 70 198q4 10 3 13q-3 0 -13 -7q-14 -9 -40.5 -28t-39.5 -28q-20 -14 -47 -32q-14 -9 -25 -13
q-10 -3 -18 -1t-14 8t-8.5 15.5t-1.5 20.5q11 82 55 153q13 21 31 38q29 28 66 30q32 2 56 -17q18 -13 28 -30q5 -9 6 -11q4 -4 7 0q3 6 7 15q39 87 58 126q8 15 11 19q4 8 10 13q9 7 18 2q10 -7 7 -16q-10 -33 -25 -55l-12 -18q-45 -102 -49 -109q-1 -4 -2.5 -14t-4.5 -15
q-10 -14 -15 -25q-4 -10 -16.5 -42.5t-18.5 -50.5q-7 -19 -43 -123q-4 -12 -4 -17q5 1 16 10q72 55 99 76q87 69 173 148q2 1 4 3l3.5 3.5l3.5 3.5q9 7 9 17q1 12 15 14q6 1 11 0zM78 231q28 20 136 95q4 3 8 5q5 5 4 12q-6 29 -22 46q-23 25 -54 18q-19 -5 -33 -17
q-12 -11 -22 -25q-41 -58 -56 -137q0 -1 -1 -8q0 -14 10 -8q16 10 30 19zM41 -74q9 -8 35 -31q1 -2 3 -2q4 -3 6 2q1 4 6 21q2 8 19 68q-7 -4 -28 -18q-25 -18 -41 -30q-6 -4 0 -10zM114 -205q-10 18 -14 23q-4 -13 -4 -14q-22 -103 -27 -126q-6 -34 -4 -61q1 -23 11 -39
q5 -7 11 -1q9 7 17 22q17 33 28 81q1 3 2 9q5 59 -20 106z" />
    <glyph glyph-name="r" unicode="r" horiz-adv-x="411" 
d="M471 377q10 -10 3 -21q-4 -6 -8 -9q-40 -25 -67 -32q-30 -7 -60.5 8.5t-42.5 44.5q-8 16 -11 41q-1 8 -4 26q-1 4 -3 4q-3 0 -5 -2q-6 -7 -11 -13q-52 -62 -109 -144q-8 -11 -62 -95l-27.5 -44t-22.5 -35q-4 -7 -7 -11t-7 -7q-9 -6 -19 -1q-9 5 -8 16l2 12q42 150 81 252
l20 45q4 9 9 14q8 7 17 2q10 -5 7 -16q-3 -12 -7 -21q-13 -24 -26 -63q-9 -25 -37 -110q-3 -9 0 -13q18 28 19 30q33 56 92 133q43 57 64 80q8 10 15 17q4 5 10 8q13 10 25 6t17 -19q6 -14 8 -40q2 -17 8 -37q4 -10 12 -18.5t18 -13t21 -6.5t20 2q24 8 48 24q2 1 5 3t4 3
q11 7 19 0z" />
    <glyph glyph-name="s" unicode="s" horiz-adv-x="322" 
d="M420 339q7 -13 -10 -23q-13 -8 -37.5 -21t-30.5 -17q-111 -63 -155 -89q-1 -1 -5 -3.5t-7 -3.5q-9 -6 -7 -17q9 -45 -15 -96q-19 -41 -50 -67q-15 -14 -34 -22q-17 -8 -36 -8q-23 1 -37 17.5t-12 39.5q2 19 13 37q23 35 56 65q35 31 65 52q6 4 6.5 7t-2.5 9q-7 15 -24 35
q-6 6 -34 37q-17 20 -26 36q-21 39 2 76q13 21 29 37q51 48 103 73q29 13 55 17q1 0 23 2q6 0 33 -4q8 -2 13 -7q7 -7 3 -15q-4 -10 -13 -9q-4 1 -10.5 2t-10.5 1q-33 3 -67 -11q-59 -25 -110 -76q-9 -10 -19 -25q-15 -23 -1 -48q6 -10 16 -22q8 -11 31 -35q20 -22 33 -45
q5 -8 7.5 -8.5t11.5 4.5q50 29 50 30q23 13 49.5 27.5t57.5 32t49 28.5q3 1 7 3.5t7.5 4.5t6.5 4q18 10 26 -5zM135 115q0 1 4 24h-1v5v4q-1 7 -7 4q-3 -1 -5 -3q-46 -34 -77 -67q-16 -18 -26 -36q-7 -14 -5 -27q1 -12 14 -14q10 -2 20 2q13 6 23 13q45 33 60 95z" />
    <glyph glyph-name="t" unicode="t" horiz-adv-x="344" 
d="M650 788q6 -11 -5 -20q-6 -5 -19 -8q-19 -5 -56 -10q-71 -9 -110 -14q-8 -1 -26 -2.5t-27 -2.5q-13 -2 -27 -2.5t-30.5 -1t-26.5 -0.5q-50 -3 -75 -2q-8 1 -11 -7q-3 -6 -5 -12q-71 -184 -117 -354q-29 -107 -42 -191q-8 -50 -9 -97q-1 -18 3 -41q7 -38 40 -18
q18 11 40 31q36 32 73 82q12 17 138 185q9 12 13 14q10 7 19 0q8 -8 4 -17q-2 -5 -7 -11q-14 -19 -71 -96t-89 -118q-38 -48 -77 -78q-21 -17 -39 -25q-23 -10 -42.5 -1.5t-28.5 31.5q-7 17 -8 44q-2 52 9 119q20 125 75 305q35 114 82 238q3 7 3 9q3 9 -6 10h-4
q-85 4 -90 4q-96 6 -142 15q-17 3 -25 7q-15 8 -11 20q4 13 20 11q5 0 8 -2q8 -4 16 -6t24 -3.5t18 -1.5q40 -5 76 -7q22 -1 63 -2.5t56 -2.5q14 -1 19 13q36 88 65 145q6 11 11 20q3 7 8 10q8 5 16 0t6 -14q-1 -2 -5 -11q-7 -17 -29.5 -67t-34.5 -78q-2 -4 -3 -8
q-3 -10 7 -10h64q20 -1 89 4q12 2 72 9q24 3 77 10q6 1 30 4q8 1 18 9q8 6 19.5 3.5t16.5 -10.5z" />
    <glyph glyph-name="u" unicode="u" horiz-adv-x="421" 
d="M474 334q22 -10 12 -32q-3 -6 -8 -13q-96 -125 -115 -147q-42 -48 -68 -69q-17 -14 -31 -23q-11 -6 -23 -9q-26 -6 -40 17q-8 13 -8 27q-1 26 1 42q15 98 50 186q3 8 2 10q-3 1 -9 -5q-14 -15 -85 -81q-37 -35 -71 -60q-15 -10 -25 -16q-16 -9 -30 -9q-24 0 -31 23
q-3 11 -2 22q5 46 20 99q11 40 27 79q3 7 11 24q3 6 9 9q10 7 18.5 -1t3.5 -17q-9 -12 -14 -27q-10 -30 -20 -62q-13 -40 -20 -87q-2 -10 -2 -20q0 -12 11 -6q9 4 16 9q34 24 70 56q57 52 156 153q16 16 21 26q6 11 19 14q10 3 17 -4q7 -9 2 -18q-3 -5 -11 -13
q-11 -12 -14 -19q-43 -98 -55 -133q-22 -69 -33 -145q-2 -19 1 -31.5t15 -7.5q11 5 25 16q25 19 54 51q21 23 40.5 47t47.5 60.5t37 48.5t8 24q0 9 6.5 12.5t14.5 -0.5z" />
    <glyph glyph-name="u" unicode="&#xfc;" horiz-adv-x="421" 
d="M474 334q22 -10 12 -32q-3 -6 -8 -13q-96 -125 -115 -147q-42 -48 -68 -69q-17 -14 -31 -23q-11 -6 -23 -9q-26 -6 -40 17q-8 13 -8 27q-1 26 1 42q15 98 50 186q3 8 2 10q-3 1 -9 -5q-14 -15 -85 -81q-37 -35 -71 -60q-15 -10 -25 -16q-16 -9 -30 -9q-24 0 -31 23
q-3 11 -2 22q5 46 20 99q11 40 27 79q3 7 11 24q3 6 9 9q10 7 18.5 -1t3.5 -17q-9 -12 -14 -27q-10 -30 -20 -62q-13 -40 -20 -87q-2 -10 -2 -20q0 -12 11 -6q9 4 16 9q34 24 70 56q57 52 156 153q16 16 21 26q6 11 19 14q10 3 17 -4q7 -9 2 -18q-3 -5 -11 -13
q-11 -12 -14 -19q-43 -98 -55 -133q-22 -69 -33 -145q-2 -19 1 -31.5t15 -7.5q11 5 25 16q25 19 54 51q21 23 40.5 47t47.5 60.5t37 48.5t8 24q0 9 6.5 12.5t14.5 -0.5z" />
    <glyph glyph-name="u" unicode="&#xfb;" horiz-adv-x="421" 
d="M474 334q22 -10 12 -32q-3 -6 -8 -13q-96 -125 -115 -147q-42 -48 -68 -69q-17 -14 -31 -23q-11 -6 -23 -9q-26 -6 -40 17q-8 13 -8 27q-1 26 1 42q15 98 50 186q3 8 2 10q-3 1 -9 -5q-14 -15 -85 -81q-37 -35 -71 -60q-15 -10 -25 -16q-16 -9 -30 -9q-24 0 -31 23
q-3 11 -2 22q5 46 20 99q11 40 27 79q3 7 11 24q3 6 9 9q10 7 18.5 -1t3.5 -17q-9 -12 -14 -27q-10 -30 -20 -62q-13 -40 -20 -87q-2 -10 -2 -20q0 -12 11 -6q9 4 16 9q34 24 70 56q57 52 156 153q16 16 21 26q6 11 19 14q10 3 17 -4q7 -9 2 -18q-3 -5 -11 -13
q-11 -12 -14 -19q-43 -98 -55 -133q-22 -69 -33 -145q-2 -19 1 -31.5t15 -7.5q11 5 25 16q25 19 54 51q21 23 40.5 47t47.5 60.5t37 48.5t8 24q0 9 6.5 12.5t14.5 -0.5z" />
    <glyph glyph-name="u" unicode="&#xfa;" horiz-adv-x="421" 
d="M474 334q22 -10 12 -32q-3 -6 -8 -13q-96 -125 -115 -147q-42 -48 -68 -69q-17 -14 -31 -23q-11 -6 -23 -9q-26 -6 -40 17q-8 13 -8 27q-1 26 1 42q15 98 50 186q3 8 2 10q-3 1 -9 -5q-14 -15 -85 -81q-37 -35 -71 -60q-15 -10 -25 -16q-16 -9 -30 -9q-24 0 -31 23
q-3 11 -2 22q5 46 20 99q11 40 27 79q3 7 11 24q3 6 9 9q10 7 18.5 -1t3.5 -17q-9 -12 -14 -27q-10 -30 -20 -62q-13 -40 -20 -87q-2 -10 -2 -20q0 -12 11 -6q9 4 16 9q34 24 70 56q57 52 156 153q16 16 21 26q6 11 19 14q10 3 17 -4q7 -9 2 -18q-3 -5 -11 -13
q-11 -12 -14 -19q-43 -98 -55 -133q-22 -69 -33 -145q-2 -19 1 -31.5t15 -7.5q11 5 25 16q25 19 54 51q21 23 40.5 47t47.5 60.5t37 48.5t8 24q0 9 6.5 12.5t14.5 -0.5z" />
    <glyph glyph-name="u" unicode="&#xf9;" horiz-adv-x="421" 
d="M474 334q22 -10 12 -32q-3 -6 -8 -13q-96 -125 -115 -147q-42 -48 -68 -69q-17 -14 -31 -23q-11 -6 -23 -9q-26 -6 -40 17q-8 13 -8 27q-1 26 1 42q15 98 50 186q3 8 2 10q-3 1 -9 -5q-14 -15 -85 -81q-37 -35 -71 -60q-15 -10 -25 -16q-16 -9 -30 -9q-24 0 -31 23
q-3 11 -2 22q5 46 20 99q11 40 27 79q3 7 11 24q3 6 9 9q10 7 18.5 -1t3.5 -17q-9 -12 -14 -27q-10 -30 -20 -62q-13 -40 -20 -87q-2 -10 -2 -20q0 -12 11 -6q9 4 16 9q34 24 70 56q57 52 156 153q16 16 21 26q6 11 19 14q10 3 17 -4q7 -9 2 -18q-3 -5 -11 -13
q-11 -12 -14 -19q-43 -98 -55 -133q-22 -69 -33 -145q-2 -19 1 -31.5t15 -7.5q11 5 25 16q25 19 54 51q21 23 40.5 47t47.5 60.5t37 48.5t8 24q0 9 6.5 12.5t14.5 -0.5z" />
    <glyph glyph-name="v" unicode="v" horiz-adv-x="432" 
d="M474.5 379q6.5 -2 9 -8.5t-0.5 -12.5t-9 -9q-67 -35 -106 -42q-32 -6 -47 -5q-21 -1 -50 7q-9 2 -11.5 1t-6.5 -9q-12 -21 -50 -81q-24 -40 -58 -80q-9 -10 -22 -22q-8 -8 -17 -12q-32 -17 -46 17q-3 7 -4 15q-3 13 -5 35q-2 36 1 97q6 87 19 151q2 7 3 11q4 9 13 9
q10 0 14 -11q1 -7 0 -19q-6 -37 -7 -50q-5 -38 -6 -51q-7 -87 -5 -131q1 -12 5 -37q2 -11 11 -3q16 14 29 31q45 57 93 140q0 1 1 2q2 3 2 4q9 12 2 30q-17 43 6 86q7 14 18.5 20.5t23.5 3t18 -15.5q4 -8 4 -18q1 -17 -5 -33q-2 -7 -7 -19t-6 -16q-3 -8 -1.5 -11t9.5 -5
q26 -7 59 -3q40 5 86 28q8 3 29 14q8 4 14.5 2zM252 382q10 16 12 31q0 3 -2 4l-3 -2q-9 -17 -7 -33z" />
    <glyph glyph-name="w" unicode="w" horiz-adv-x="531" 
d="M633 342q6 -10 -2 -19q-2 -4 -6 -7q-67 -48 -128 -69q-23 -7 -52 -12q-24 -3 -50 4q-7 2 -9.5 1t-5.5 -8q-2 -6 -6 -17.5t-7 -17.5q-24 -62 -63 -122q-12 -18 -30 -38q-19 -21 -39 -27q-30 -10 -45 16q-8 14 -11 32q-11 69 -5 124q3 24 10 70q1 6 0 7q-3 0 -9 -7
q-26 -30 -53 -55q-14 -13 -34 -25q-13 -7 -28 -10q-17 -3 -31 4t-21 23q-10 23 -7 53t8 63q7 41 31 107q4 11 8 15q6 6 13.5 4t9.5 -10q3 -10 0 -18q-15 -33 -30 -106q-8 -38 -7 -72q0 -11 1 -17q3 -14 19 -13q10 0 23 8q27 18 52 45q49 53 78 100q3 6 8 10q7 7 17 3
q11 -4 10 -16l-4 -16q-1 -3 -7.5 -27t-9.5 -36q-13 -49 -15 -103q-3 -49 4 -95l4 -16q4 -10 8 -11.5t13 5.5q10 7 18 16q14 17 24 31q37 56 63 122q3 8 8 22t6 18q4 10 -1 18q-17 26 -13 72q1 17 13 35q3 4 7 8q19 16 34 -4q4 -5 7 -11q8 -20 5 -38q-3 -23 -10 -52
q-2 -9 7 -13q17 -6 39 -3q48 7 98 34q31 16 59 36q9 6 16 9q11 5 18 -4zM372 328v5.5v5.5q-1 -2 -1 -5v-6h1z" />
    <glyph glyph-name="x" unicode="x" horiz-adv-x="403" 
d="M540 329q8 -7 3 -16q-2 -6 -6 -11q-73 -92 -110 -126q-63 -58 -128 -87q-40 -18 -75 -19q-61 1 -95 57q-16 26 -25 59q-5 17 -7.5 17.5t-14.5 -10.5q-7 -8 -110 -114l-15 -15q-5 -4 -9 -6q-8 -4 -15 2q-8 6 -4 16q2 4 6 9q11 12 17 18q26 27 120 122l11 11q8 7 7 18
q0 2 -0.5 7.5t-0.5 8.5q-2 19 -2.5 43t0 43t-0.5 43q0 6 2 13q3 7 11 8q9 1 13 -7q4 -6 4 -19v-24.5t1 -32.5q0 -13 3 -54q0 -3 2 -4.5t4 1.5l10 8q60 60 111 104q49 42 78 61q7 5 14 8t14 -2q12 -7 3 -19q-3 -4 -6 -6q-19 -11 -76 -60q-47 -39 -116 -107q-10 -10 -22 -21
q-12 -10 -9 -24q11 -53 32 -85q30 -45 84 -34q33 6 70 27q46 25 91 67q34 32 84 93q5 5 25 31q5 7 10 10q9 4 17 -2z" />
    <glyph glyph-name="y" unicode="y" horiz-adv-x="535" 
d="M649 347q7 -10 -1 -19q-6 -6 -16 -13q-31 -22 -69 -48q-57 -40 -179 -131q-12 -9 -20 -14q-10 -7 -14 -19q-6 -23 -21 -72q-35 -116 -72 -204q-30 -73 -65 -121q-39 -56 -92 -89q-17 -11 -33 -16q-28 -8 -53.5 0.5t-43.5 30.5q-30 39 -22 88q6 39 34.5 86.5t71.5 94.5
q90 98 225 198q31 23 33 25q14 9 18 25q5 18 15 51t14 47q11 42 31 112q2 7 0 9q-51 -58 -54 -61q-94 -101 -151 -145q-11 -9 -30 -22q-10 -7 -26 -11q-12 -4 -22.5 2t-15.5 16q-8 18 -6 40q2 21 5 32q27 109 70 186q6 10 17 27q3 5 8 9q8 7 16 2q8 -4 8 -14q0 -8 -6 -13
q-6 -7 -17 -29q-42 -80 -64 -173q-3 -14 -4 -35v-2q1 -12 5 -14t15 4t18 13q39 30 48 39q90 86 146 152q9 11 28 32q23 26 30 38q5 8 14 9q7 0 11.5 -2.5t6.5 -7.5t1 -11q-8 -36 -15 -62q-1 -1 -52 -181q0 -1 -4 -16q1 0 2 -0.5t2 -0.5q55 40 58 43q39 29 189 134l9 6
q12 4 19 -5zM307 69l2 8l-3 2q-47 -35 -49 -37q-119 -93 -184 -168q-45 -51 -72 -100q-19 -33 -22 -65q-4 -41 25 -65q26 -23 55 -12q11 4 17 8q22 12 40 28q39 35 67 81q24 40 47 96q34 83 77 224z" />
    <glyph glyph-name="y" unicode="&#xff;" horiz-adv-x="535" 
d="M649 347q7 -10 -1 -19q-6 -6 -16 -13q-31 -22 -69 -48q-57 -40 -179 -131q-12 -9 -20 -14q-10 -7 -14 -19q-6 -23 -21 -72q-35 -116 -72 -204q-30 -73 -65 -121q-39 -56 -92 -89q-17 -11 -33 -16q-28 -8 -53.5 0.5t-43.5 30.5q-30 39 -22 88q6 39 34.5 86.5t71.5 94.5
q90 98 225 198q31 23 33 25q14 9 18 25q5 18 15 51t14 47q11 42 31 112q2 7 0 9q-51 -58 -54 -61q-94 -101 -151 -145q-11 -9 -30 -22q-10 -7 -26 -11q-12 -4 -22.5 2t-15.5 16q-8 18 -6 40q2 21 5 32q27 109 70 186q6 10 17 27q3 5 8 9q8 7 16 2q8 -4 8 -14q0 -8 -6 -13
q-6 -7 -17 -29q-42 -80 -64 -173q-3 -14 -4 -35v-2q1 -12 5 -14t15 4t18 13q39 30 48 39q90 86 146 152q9 11 28 32q23 26 30 38q5 8 14 9q7 0 11.5 -2.5t6.5 -7.5t1 -11q-8 -36 -15 -62q-1 -1 -52 -181q0 -1 -4 -16q1 0 2 -0.5t2 -0.5q55 40 58 43q39 29 189 134l9 6
q12 4 19 -5zM307 69l2 8l-3 2q-47 -35 -49 -37q-119 -93 -184 -168q-45 -51 -72 -100q-19 -33 -22 -65q-4 -41 25 -65q26 -23 55 -12q11 4 17 8q22 12 40 28q39 35 67 81q24 40 47 96q34 83 77 224z" />
    <glyph glyph-name="y" unicode="&#xfd;" horiz-adv-x="535" 
d="M649 347q7 -10 -1 -19q-6 -6 -16 -13q-31 -22 -69 -48q-57 -40 -179 -131q-12 -9 -20 -14q-10 -7 -14 -19q-6 -23 -21 -72q-35 -116 -72 -204q-30 -73 -65 -121q-39 -56 -92 -89q-17 -11 -33 -16q-28 -8 -53.5 0.5t-43.5 30.5q-30 39 -22 88q6 39 34.5 86.5t71.5 94.5
q90 98 225 198q31 23 33 25q14 9 18 25q5 18 15 51t14 47q11 42 31 112q2 7 0 9q-51 -58 -54 -61q-94 -101 -151 -145q-11 -9 -30 -22q-10 -7 -26 -11q-12 -4 -22.5 2t-15.5 16q-8 18 -6 40q2 21 5 32q27 109 70 186q6 10 17 27q3 5 8 9q8 7 16 2q8 -4 8 -14q0 -8 -6 -13
q-6 -7 -17 -29q-42 -80 -64 -173q-3 -14 -4 -35v-2q1 -12 5 -14t15 4t18 13q39 30 48 39q90 86 146 152q9 11 28 32q23 26 30 38q5 8 14 9q7 0 11.5 -2.5t6.5 -7.5t1 -11q-8 -36 -15 -62q-1 -1 -52 -181q0 -1 -4 -16q1 0 2 -0.5t2 -0.5q55 40 58 43q39 29 189 134l9 6
q12 4 19 -5zM307 69l2 8l-3 2q-47 -35 -49 -37q-119 -93 -184 -168q-45 -51 -72 -100q-19 -33 -22 -65q-4 -41 25 -65q26 -23 55 -12q11 4 17 8q22 12 40 28q39 35 67 81q24 40 47 96q34 83 77 224z" />
    <glyph glyph-name="z" unicode="z" horiz-adv-x="426" 
d="M522 340q5 -9 -2 -17q-3 -4 -10 -9q-38 -29 -124 -109q-15 -15 -64 -60l-5 -5t-4 -5q-7 -6 -6 -15q13 -119 -45 -244q-40 -86 -97 -154q-45 -54 -89 -87q-56 -42 -125 -56q-25 -5 -48 1q-10 3 -19 8q-27 14 -28 45q-1 27 13 60q16 35 43 72q35 49 93 112q59 65 167 171
q19 18 84 78q12 11 13 15.5t-5 18.5q-5 11 -11 20q-22 35 -67 30q-26 -2 -58 -11q-10 -3 -17 -3q-9 0 -13.5 7t-0.5 15q2 6 11 17q39 43 93 97q35 35 55 58q23 27 35 49l5 11q-6 1 -16 -4q-24 -12 -56 -34q-52 -38 -112 -90q-9 -8 -15 -18q-8 -13 -19 -7q-14 7 -6 22
q4 8 17 22q14 15 45 41q39 33 74 57q24 17 50 32q18 10 31 13q19 4 30.5 -7.5t8.5 -30.5q-2 -10 -10 -24q-16 -30 -42 -58q-1 -1 -38 -39q-45 -47 -70 -73q-4 -3 -6 -7q-1 -1 0 -3t2 -2q9 1 15 1q64 9 100 -43q1 -1 15 -26q3 -5 8 -2q6 5 12 11q63 58 80 75q33 32 97 85
q8 6 13 7q13 2 18 -8zM277 74v19t-2 3.5t-4 -0.5q-4 -2 -6 -5q-48 -44 -53 -49q-124 -121 -181 -183q-56 -63 -94 -114q-22 -30 -37 -62q-10 -22 -12 -37q-4 -32 28 -36q1 0 9 -1q20 -1 55 11q68 23 129 86q39 42 64 78q60 88 85 171q17 53 19 119z" />
    <glyph glyph-name="braceleft" unicode="{" horiz-adv-x="320" 
d="M520 978q2 -11 -7 -16q-11 -6 -17 3q-10 13 -32 5q-36 -14 -71 -47q-40 -37 -69 -98t-55 -159q-8 -30 -23 -88.5t-23 -86.5q-11 -41 -26 -80q-18 -45 -41 -68q-20 -21 -42 -30q-6 -3 -13 -7q-2 -2 -1 -5q2 -3 4 -5q23 -23 26 -64q3 -47 -2 -93q-4 -35 -13.5 -98.5
t-12.5 -82.5q-7 -53 -6 -91q1 -65 56 -116q3 -3 9 -7q12 -7 21 -2q2 2 5 2q9 2 15 -6q4 -7 0 -14q-4 -8 -13.5 -12.5t-19.5 -3.5q-13 2 -21 7q-14 8 -19 13q-65 60 -67 153q8 79 9 84q4 29 12 83t11 80q6 44 5 80q0 13 -3 31q-4 28 -26 44q-8 6 -10 8q-11 10 -9.5 20.5
t14.5 16.5q5 2 27 10q39 14 62 56q16 31 34 92q7 21 13.5 46.5t11.5 45.5t12 47t11 45q22 81 45 139q30 71 72 119q37 42 87 66q21 10 40 10q15 0 25 -5q12 -8 15 -21z" />
    <glyph glyph-name="verticalbar" unicode="|" horiz-adv-x="487" 
d="M426 982q11 -3 11 -15q1 -6 -3 -18q-34 -119 -42 -146q-44 -151 -78 -268q-10 -35 -38.5 -133t-44.5 -152q-9 -33 -21 -73.5t-24 -83.5t-21 -74q-49 -168 -79 -271q-4 -14 -7 -21q-4 -6 -10.5 -8t-11.5 2q-7 5 -7 16q3 13 3 14q15 52 43 146q10 36 24.5 85.5t28 96.5
t24.5 85q53 181 92 316q17 61 51 178t50 171q20 71 36 125q4 13 7 20q5 11 17 8z" />
    <glyph glyph-name="braceright" unicode="}" horiz-adv-x="407" 
d="M356 854v-19q1 -40 -18 -110q-18 -65 -62 -199q-32 -96 -45 -156q-7 -33 -7 -52q1 -8 1 -13q1 -15 15 -22q4 -1 11 -3.5t10 -4.5q22 -9 9 -29q-4 -6 -7 -9q-22 -24 -36 -69q-18 -59 -31 -132q-20 -115 -31 -161q-13 -54 -29 -95q-11 -26 -27 -48q-32 -45 -96 -50
q-23 -2 -33 15q-8 15 5 35q5 8 11 12q9 5 16 1q8 -6 6 -15q0 -1 -0.5 -2l-0.5 -1q-2 -8 0 -10.5t9 -0.5q42 10 59 38t27 54q18 51 33 129q4 21 12.5 69t13.5 74q8 41 22 89q15 47 33 73q6 8 -3 14q-36 21 -32 72q2 16 9 50q9 44 29 107q8 23 21.5 65.5t19.5 60.5
q30 93 41 140q14 55 13 90q-1 31 -9 61q-6 21 -17 35q-19 25 -43 25q-2 0 -5 1q-8 2 -9.5 9.5t4 13t15.5 5.5q16 1 33 -9q27 -15 40 -40q18 -35 23 -88z" />
    <glyph glyph-name="asciitilde" unicode="~" horiz-adv-x="510" 
d="M453 336q8 -5 7 -16q-1 -9 -8 -15q-25 -22 -31 -27q-28 -21 -69 -23q-61 6 -111 35q-4 2 -15 8.5t-18 10.5q-31 17 -56 16q-26 0 -59 -16q-3 -1 -14 -14q-9 -10 -20 -4q-15 9 -6 22q8 13 22 20q43 26 84 24q24 -1 49 -13q12 -5 36 -19q43 -25 77 -33q23 -5 48 -2
q21 2 41 20l9 9l8 8q7 6 10 8q8 6 16 1z" />
    <glyph glyph-name="nonbreakingspace" unicode="&#xa0;" horiz-adv-x="332" 
 />
    <glyph glyph-name="softhyphen" unicode="&#xad;" 
 />
    </font>
</defs>
</svg>
